<svg xmlns="http://www.w3.org/2000/svg" xmlns:xlink="http://www.w3.org/1999/xlink" version="1.1" width="34.0719108581543" height="45.71214294433594" viewBox="10.681927680969238 0.8453691005706787 34.0719108581543 45.71214294433594">
  <defs>
    <linearGradient id="grad_1" x2="1">
      <stop offset="0" stop-color="#04D036" stop-opacity="1"/>
      <stop offset="1" stop-color="#04D036" stop-opacity="0"/>
    </linearGradient>
  <linearGradient id="grad_1-0.6262919306755066,-0.7795885801315308,-0.7795885801315308,0.6262919306755066,328.8501946032047,133.23534401357173" x2="22.488" x1="42.0306" y1="25.4642" y2="1.1383" gradientUnits="userSpaceOnUse">
      <stop offset="0" stop-color="#04D036" stop-opacity="1"/>
      <stop offset="1" stop-color="#04D036" stop-opacity="0"/>
    </linearGradient></defs>
  <!-- Exported by Scratch - http://scratch.mit.edu/ -->
  <g id="ID0.15835349401459098">
    <path id="ID0.39674359979107976" fill="url(#grad_1-0.6262919306755066,-0.7795885801315308,-0.7795885801315308,0.6262919306755066,328.8501946032047,133.23534401357173)" stroke="none" stroke-linecap="round" d="M 33.8289 22.2723 C 30.5605 15.3186 26.984 4.7642 22.4642 1.7392 C 20.2148 0.2356 22.5845 10.1534 20.4583 13.6125 C 19.5244 15.0272 15.8797 11.7788 15.1479 13.3891 C 13.733 16.5153 16.5544 20.425 15.9504 23.9682 C 15.4778 26.9262 11.558 29.1235 12.024 32.2535 C 12.3375 34.3554 15.841 34.3654 17.6524 35.2679 C 19.4933 36.1877 21.0705 37.6656 23.3989 37.5653 C 25.7278 37.4657 28.2849 36.5069 30.5161 34.7144 C 32.7473 32.922 34.2347 30.6316 34.8339 28.3788 C 35.4337 26.1268 34.706 24.1369 33.8289 22.2723 Z " stroke-width="0.9999999683503743"/>
    <path id="ID0.6462057833559811" fill="#01EE4B" stroke="#000000" stroke-width="0.9999999683503743" stroke-linecap="round" d="M 38.3328 29.0762 C 34.4663 21.1433 30.3083 12.4452 25.648 4.5047 C 24.4831 2.5198 22.6347 1.0763 22.5026 1.3877 C 22.2382 1.9208 24.1067 4.9221 24.5829 6.7714 C 26.4803 14.1326 30.6303 25.4743 29.3685 29.0945 C 28.5476 31.4498 22.9217 23.0497 19.9633 19.7824 C 18.0891 17.4335 15.1588 12.2515 14.9114 12.2964 C 14.664 12.3412 16.2669 17.6018 17.2698 20.0222 C 19.5875 25.069 22.5516 29.6735 24.8508 34.648 C 25.4257 35.8921 24.9827 35.7798 24.6035 35.9369 C 23.2451 36.0534 21.8191 35.7186 20.5808 35.3204 C 17.3541 34.2786 11.833 30.8805 11.2411 31.279 C 10.65 31.6769 14.6322 35.8945 16.7352 37.3195 C 19.8813 39.4458 23.1688 40.7709 27.0526 42.1788 C 30.5015 43.4206 34.4131 45.1665 37.8332 44.4213 C 40.0527 43.9364 42.9417 42.3544 42.9603 39.8676 C 43.0033 35.9772 40.0481 32.5892 38.3328 29.0762 Z "/>
    <path id="ID0.342473431956023" fill="#01EE4B" stroke="none" stroke-linecap="round" d="M 36.8741 33.6473 C 35.4358 32.5259 33.8702 31.3388 31.9471 31.2585 C 30.0241 31.1769 27.7097 31.8343 26.2534 33.2005 C 25.0485 34.3416 25.4736 36.5617 25.327 38.4342 C 24.854 40.0584 23.4665 41.9813 24.4007 43.6679 C 25.2801 45.2639 27.5049 46.087 29.3277 46.0567 C 34.3095 45.9796 38.9971 45.15 43.2969 43.2388 C 44.4311 42.7266 44.4066 40.994 43.9933 40.1139 C 42.0571 37.4851 39.232 35.4678 36.8741 33.6473 Z " stroke-width="0.9999999683503743"/>
  </g>
</svg>