<svg xmlns="http://www.w3.org/2000/svg" xmlns:xlink="http://www.w3.org/1999/xlink" version="1.1" width="38.123207092285156" height="36.15584182739258" viewBox="2.547865867614746 1.4168473482131958 38.123207092285156 36.15584182739258">
  <!-- Exported by Scratch - http://scratch.mit.edu/ -->
  <path id="ID0.6462057833559811" fill="#01EE4B" stroke="#000000" stroke-width="0.9523142372315309" stroke-linecap="round" d="M 4.7294 25.0183 C 15.0762 16.7996 26.1227 8.8751 37.8228 2.3977 C 40.7479 0.7785 40.3464 3.6558 39.7393 5.0217 C 38.2241 10.7339 35.2853 16.2796 32.1481 21.3286 C 29.8608 25.011 26.8986 28.3637 23.806 31.5122 C 22.4326 32.9131 21.1882 34.1038 19.7518 34.0282 C 15.9968 34.3331 11.9854 33.9887 9.3305 32.1511 C 7.6082 30.9575 8.0388 28.1656 6.8871 26.4661 C 6.3266 25.6204 1.8839 27.0633 4.7294 25.0183 Z "/>
  <path id="ID0.342473431956023" fill="#01EE4B" stroke="none" stroke-linecap="round" d="M 14.9319 23.3443 C 16.7072 23.005 18.5885 22.4317 20.3045 23.0392 C 22.0211 23.6455 23.7492 25.0195 24.4107 26.6963 C 24.9532 28.0929 23.5892 29.8365 22.8801 31.4847 C 22.5672 33.0359 22.9197 35.1632 21.3494 36.273 C 19.8676 37.3248 17.5558 37.2446 15.9768 36.5781 C 11.6588 34.7614 8.2448 32.1636 5.0322 29.2654 C 4.1562 28.4766 2.3961 26.6874 3.2982 25.9969 C 6.9014 23.9918 11.3347 24.0211 14.9319 23.3443 Z " stroke-width="0.9523142372315309"/>
</svg>