<svg xmlns="http://www.w3.org/2000/svg" xmlns:xlink="http://www.w3.org/1999/xlink" version="1.1" width="52.13895034790039" height="32.9948616027832" viewBox="0.14185047149658203 6.787692070007324 52.13895034790039 32.9948616027832">
  <!-- Exported by Scratch - http://scratch.mit.edu/ -->
  <g id="ID0.7705161585472524">
    <path id="ID0.6462057833559811" fill="#01EE4B" stroke="#000000" stroke-width="0.8231393072943226" stroke-linecap="round" d="M 1.5158 28.6525 C 6.3314 24.1013 13.6464 21.4405 20.2515 18.707 C 30.2475 14.3279 41.1906 9.6977 51.254 7.34 C 53.7389 6.7727 46.7344 10.9726 44.7595 12.546 C 38.6973 17.3786 32.3512 21.4317 26.4921 26.9803 C 24.4439 28.9221 24.0259 31.9591 22.1577 34.2628 C 21.3331 35.2795 20.2005 36.623 18.9849 36.5844 C 15.8546 36.9311 12.4472 36.7047 10.0398 35.1215 C 8.478 34.0931 8.8571 31.3348 7.4465 30.108 C 5.9531 28.8159 0.1195 29.9732 1.5158 28.6525 Z "/>
    <path id="ID0.342473431956023" fill="#01EE4B" stroke="none" stroke-linecap="round" d="M 13.9604 27.1276 C 15.4403 26.8838 16.9504 26.2417 18.4516 26.7483 C 19.953 27.2538 21.5369 28.4428 22.252 29.9228 C 22.8405 31.1555 21.8579 32.7355 21.4171 34.2174 C 21.3006 35.605 21.7984 37.4923 20.5822 38.5121 C 19.435 39.4784 17.4825 39.4532 16.0911 38.8913 C 12.2865 37.36 9.4645 34.7268 6.1917 32.5986 C 4.6078 31.5782 -0.309 30.0862 0.8043 29.0664 C 3.5747 27.3512 9.8081 27.7964 13.9604 27.1276 Z " stroke-width="0.8231393072943226"/>
  </g>
</svg>