<svg xmlns="http://www.w3.org/2000/svg" xmlns:xlink="http://www.w3.org/1999/xlink" version="1.1" width="36.522659309330066" height="52.72020722192772" viewBox="11.48217868426319 0.7883663139628965 36.522659309330066 52.72020722192772">
  <!-- Exported by Scratch - http://scratch.mit.edu/ -->
  <path id="ID0.6462057833559811" fill="#01EE4B" stroke="#000000" stroke-width="1.000000007572254" stroke-linecap="round" d="M 43.6463 39.2597 C 43.73 38.6175 43.5793 39.6639 42.5772 38.9327 C 37.96 34.8547 30.9407 32.6212 29.1915 26.888 C 26.7864 18.963 35.1172 0.0537 32.0918 1.352 C 28.3067 3.3024 17.8295 23.3014 12.7646 34.7243 C 11.4982 37.5802 11.8301 40.5696 13.3206 42.8447 C 15.7745 46.5982 18.809 51.4561 23.1014 52.1499 C 25.2816 52.4436 23.7686 45.8557 26.2785 44.8206 C 29.663 43.4277 33.9713 46.8018 37.2617 45.6079 C 39.3969 44.8318 40.2986 42.159 41.7369 40.4121 C 42.2804 39.6856 43.4933 39.8471 43.6463 39.2597 Z "/>
  <path id="ID0.342473431956023" fill="#01EE4B" stroke="none" stroke-linecap="round" d="M 34.8818 35.1228 C 33.1254 34.6347 31.5973 33.2348 29.6806 33.4113 C 27.7639 33.5864 25.5576 34.546 24.2961 36.0939 C 23.2538 37.3853 24.7592 39.7754 24.0747 41.4044 C 22.6115 44.8778 17.6402 47.9328 18.4851 51.2694 C 18.7667 53.4572 23.5707 53.2258 26.2961 52.4894 C 32.221 50.7128 37.406 47.1503 42.5243 43.774 C 44.6043 42.4044 48.7043 40.0027 47.1681 38.5302 C 44.883 35.6772 39.1224 36.2946 34.8818 35.1228 Z " stroke-width="1.000000007572254"/>
</svg>