<svg xmlns="http://www.w3.org/2000/svg" xmlns:xlink="http://www.w3.org/1999/xlink" version="1.1" width="49.794921875" height="37.560325622558594" viewBox="2.170180320739746 0.9551496505737305 49.794921875 37.560325622558594">
  <!-- Exported by Scratch - http://scratch.mit.edu/ -->
  <path id="ID0.6462057833559811" fill="#01EE4B" stroke="#000000" stroke-width="0.7396046186199127" stroke-linecap="round" d="M 3.6896 25.8806 C 13.6681 21.1105 25.3993 20.5515 34.9958 15.6639 C 41.3534 12.426 49.4124 0.3618 51.1036 1.5352 C 52.7948 2.7085 48.2733 16.0682 43.3388 21.2845 C 37.6619 27.5748 28.735 29.8803 21.0538 34.1202 C 19.1334 35.1798 18.9481 35.8967 17.8792 35.6695 C 15.0558 35.479 12.0783 34.7377 10.2007 32.9553 C 8.9828 31.7978 9.7561 29.4186 8.7034 28.1096 C 7.5879 26.7298 1.3273 26.9523 3.6896 25.8806 Z "/>
  <path id="ID0.342473431956023" fill="#01EE4B" stroke="none" stroke-linecap="round" d="M 14.8126 26.5305 C 16.1601 26.55 17.5976 26.2218 18.8447 26.9083 C 20.0923 27.5938 21.3042 28.8968 21.7016 30.3192 C 22.0263 31.5029 20.9064 32.7441 20.2813 33.9847 C 19.9578 35.1934 20.0984 36.9415 18.8609 37.6502 C 17.6928 38.3226 15.9701 37.9903 14.8288 37.2724 C 11.7073 35.3139 9.6298 32.537 7.0734 30.1352 C 5.8347 28.9812 1.7234 26.881 2.8698 26.1558 C 5.5923 25.0789 11.0342 26.4625 14.8126 26.5305 Z " stroke-width="0.7396046186199127"/>
</svg>