<svg xmlns="http://www.w3.org/2000/svg" xmlns:xlink="http://www.w3.org/1999/xlink" version="1.1" width="64.77808382133793" height="50.81734468559575" viewBox="0.2799610991271746 17.48853300998533 64.77808382133793 50.81734468559575">
  <!-- Exported by Scratch - http://scratch.mit.edu/ -->
  <g id="ID0.4255608366802335">
    <path id="ID0.6462057833559811" fill="#01EE4B" stroke="#000000" stroke-width="1.0000000200684047" stroke-linecap="round" d="M 23.3097 61.3739 C 24.18 61.3678 23.9694 65.1985 24.929 63.3596 C 29.3905 55.2393 30.8836 45.5025 35.9109 38.2216 C 39.9902 32.3181 46.197 28.2108 52.0341 23.9223 C 55.6934 21.5422 66.7771 18.8026 64.1632 18.381 C 59.5295 17.6693 44.1675 17.418 35.7286 22.2181 C 25.6404 27.6474 19.8126 39.0779 11.6974 47.349 C 9.4157 49.6751 3.93 51.773 4.3222 54.5067 C 4.703 57.0847 11.1902 55.0491 14.0259 56.7272 C 16.4564 58.2449 17.5428 61.2914 19.9795 62.575 C 21.1517 63.222 22.1512 61.3485 23.3097 61.3739 Z "/>
    <path id="ID0.342473431956023" fill="#01EE4B" stroke="none" stroke-linecap="round" d="M 17.049 52.8611 C 18.8565 52.6302 20.9659 51.6381 22.5183 52.5978 C 23.7172 53.3269 22.0514 55.2191 22.2868 56.2985 C 23.1872 58.4104 25.5319 59.8516 25.7907 61.7961 C 26.0269 63.5349 26.1098 65.7888 24.5885 66.9734 C 23.1532 68.0962 20.7839 67.9799 19.1192 67.2366 C 14.5675 65.2104 11.257 61.8896 7.377 59.1621 C 5.4989 57.8537 -0.4049 55.8265 0.9915 54.6372 C 4.4302 52.6765 11.9785 53.4907 17.049 52.8611 Z " stroke-width="1.0000000036198338"/>
  </g>
</svg>