<svg xmlns="http://www.w3.org/2000/svg" xmlns:xlink="http://www.w3.org/1999/xlink" version="1.1" width="36.69737243652344" height="51.476654052734375" viewBox="11.354598999023438 3.6868977546691895 36.69737243652344 51.476654052734375">
  <!-- Exported by Scratch - http://scratch.mit.edu/ -->
  <g id="ID0.7280652914196253">
    <path id="ID0.6462057833559811" fill="#01EE4B" stroke="#000000" stroke-width="0.8473221581288076" stroke-linecap="round" d="M 19.9258 38.3482 C 21.9381 35.08 23.0445 31.2757 25.0211 27.8584 C 26.4385 24.9579 28.3167 22.3417 30.0986 19.4132 C 32.8808 14.8291 33.9804 8.589 38.13 5.454 C 40.4695 3.7 45.0976 3.7485 46.942 5.715 C 48.4508 7.3469 46.8948 11.1137 45.158 12.9949 C 41.9098 16.2371 36.6381 17.049 33.0345 20.0094 C 30.2721 22.2803 27.7646 25.473 26.3102 29.0373 C 24.3427 33.102 23.1303 37.627 22.9806 42.4228 C 22.8822 45.6773 27.3657 49.954 25.6554 51.8309 C 23.8176 53.7699 18.9442 52.3462 16.3755 50.8635 C 14.7089 49.9002 12.7845 47.8789 13.4102 45.8667 C 14.3778 42.7154 18.1902 41.1687 19.9258 38.3482 Z "/>
    <path id="ID0.342473431956023" fill="#01EE4B" stroke="none" stroke-linecap="round" d="M 19.9255 42.4138 C 21.0803 42.2606 21.4457 44.1042 22.1504 45.0054 C 23.2512 45.8018 24.3001 46.5644 25.3157 47.4823 C 26.119 48.184 27.7983 48.2059 28.0131 49.2528 C 28.3397 50.7033 28.6011 52.5954 27.4124 53.7161 C 26.2913 54.7779 24.2834 54.869 22.8198 54.3749 C 18.8184 53.0292 15.2483 51.1518 12.2699 48.5013 C 11.4863 47.7956 11.9525 46.4034 12.5129 45.7995 C 14.753 44.1763 17.2422 42.7572 19.9255 42.4138 Z " stroke-width="0.8473221581288076"/>
  </g>
</svg>