<svg xmlns="http://www.w3.org/2000/svg" xmlns:xlink="http://www.w3.org/1999/xlink" version="1.1" width="34.80860900878906" height="35.79735565185547" viewBox="3.173410654067993 0.7753325700759888 34.80860900878906 35.79735565185547">
  <!-- Exported by Scratch - http://scratch.mit.edu/ -->
  <path id="ID0.6462057833559811" fill="#01EE4B" stroke="#000000" stroke-width="0.9523142372315309" stroke-linecap="round" d="M 14.7548 17.891 C 21.6796 12.4857 28.5065 5.7271 36.8228 1.3977 C 38.6252 0.4607 36.2167 5.154 35.6933 6.994 C 34.3293 11.8527 33.343 16.1139 31.1481 20.3286 C 29.0554 24.3827 25.8986 27.3637 22.806 30.5122 C 21.4326 31.9131 20.1882 33.1038 18.7518 33.0282 C 14.9968 33.3331 10.9854 32.9887 8.3305 31.1511 C 6.6082 29.9575 4.7916 27.5932 5.8871 25.4661 C 7.5889 22.1338 11.6855 20.2836 14.7548 17.891 Z "/>
  <path id="ID0.342473431956023" fill="#01EE4B" stroke="none" stroke-linecap="round" d="M 13.8819 22.3443 C 15.6399 21.8937 17.5385 21.4317 19.2545 22.0392 C 20.9711 22.6455 22.6992 24.0195 23.3607 25.6963 C 23.9032 27.0929 22.5392 28.8365 21.8301 30.4847 C 21.5172 32.0359 21.8697 34.1632 20.2994 35.273 C 18.8176 36.3248 16.5058 36.2446 14.9268 35.5781 C 10.6088 33.7614 6.8844 31.4064 3.9822 28.2654 C 3.2204 27.43 4.0163 25.9613 4.771 25.3561 C 7.6378 23.7951 11.008 23.0679 13.8819 22.3443 Z " stroke-width="0.9523142372315309"/>
</svg>