<svg xmlns="http://www.w3.org/2000/svg" xmlns:xlink="http://www.w3.org/1999/xlink" version="1.1" width="40.4028205871582" height="38.37699890136719" viewBox="4.409717082977295 4.011148452758789 40.4028205871582 38.37699890136719">
  <!-- Exported by Scratch - http://scratch.mit.edu/ -->
  <g id="ID0.6250023483298719">
    <path id="ID0.6462057833559811" fill="#01EE4B" stroke="#000000" stroke-width="0.8184818414351063" stroke-linecap="round" d="M 14.1184 19.5119 C 20.0729 13.7163 27.5829 8.9931 35.2664 5.4686 C 37.7497 4.33 45.658 3.954 44.1145 5.77 C 38.3982 12.0535 22.1195 19.4865 20.7454 21.6684 C 19.5105 23.641 36.9102 13.7072 36.8199 16.5377 C 37.1202 20.7636 26.8378 30.418 21.1956 36.7884 C 19.7851 38.3807 19.3138 39.1871 18.1045 39.1816 C 15.0024 39.6106 11.6094 39.4775 9.1738 37.9687 C 7.5937 36.9886 5.9913 34.8711 6.4609 33.0553 C 7.6714 28.3607 10.4071 23.126 14.1184 19.5119 Z "/>
    <path id="ID0.342473431956023" fill="#01EE4B" stroke="none" stroke-linecap="round" d="M 12.8553 29.9172 C 14.2712 29.4446 15.8033 28.956 17.3091 29.4191 C 18.8152 29.8811 20.4216 31.0202 21.1723 32.472 C 21.7905 33.6814 20.8564 35.2784 20.4582 36.7633 C 20.3798 38.1457 20.9255 40.0082 19.7442 41.0545 C 18.6299 42.046 16.6885 42.0736 15.2903 41.5526 C 11.4673 40.1331 8.0768 38.2132 5.2809 35.5647 C 4.5455 34.8598 5.0374 33.5296 5.5966 32.9634 C 7.8083 31.4635 10.5389 30.6782 12.8553 29.9172 Z " stroke-width="0.8184818414351063"/>
  </g>
</svg>