<svg xmlns="http://www.w3.org/2000/svg" xmlns:xlink="http://www.w3.org/1999/xlink" version="1.1" width="28.51988410949707" height="37.772674560546875" viewBox="10.592206954956055 1.4873954057693481 28.51988410949707 37.772674560546875">
  <!-- Exported by Scratch - http://scratch.mit.edu/ -->
  <g id="ID0.42933904146775603">
    <path id="ID0.6462057833559811" fill="#01EE4B" stroke="#000000" stroke-width="0.8682431991425931" stroke-linecap="round" d="M 32.8944 23.6012 C 29.1684 16.9058 25.7252 9.1486 20.7394 2.8963 C 19.4961 1.3371 16.9862 1.9157 17.3177 3.6325 C 18.6444 10.4993 25.7659 22.5373 25.1235 24.0395 C 24.4805 25.541 17.6183 13.7766 14.0757 12.3716 C 12.5443 11.8487 12.6082 16.8029 13.4192 18.7918 C 15.0043 22.6593 18.7856 25.5775 21.4685 29.0669 C 21.9408 29.9577 21.3673 28.7331 20.5656 28.7104 C 17.2496 28.6334 13.2302 27.8554 11.3367 28.8235 C 10.2285 29.3824 13.1673 31.0258 14.5584 31.7655 C 17.4698 33.3029 20.2988 34.4546 23.7322 35.4922 C 26.7807 36.4062 30.2543 37.7356 33.1843 36.9284 C 35.0856 36.4034 37.5157 34.8957 37.4147 32.7389 C 37.2686 29.364 34.547 26.5661 32.8944 23.6012 Z "/>
    <path id="ID0.342473431956023" fill="#01EE4B" stroke="none" stroke-linecap="round" d="M 31.8451 27.6329 C 30.5453 26.7285 29.1321 25.773 27.461 25.7941 C 25.79 25.8139 23.8145 26.4929 22.6163 27.7459 C 21.6254 28.792 22.0986 30.6967 22.0598 32.327 C 21.7262 33.7575 20.6138 35.4899 21.5033 36.9081 C 22.3409 38.2504 24.3085 38.8591 25.8874 38.747 C 30.2028 38.4454 34.2277 37.5053 37.8654 35.6458 C 38.8245 35.1482 38.7217 33.6473 38.3219 32.9038 C 36.5194 30.7159 33.9751 29.1001 31.8451 27.6329 Z " stroke-width="0.8682431991425931"/>
  </g>
</svg>