<svg xmlns="http://www.w3.org/2000/svg" xmlns:xlink="http://www.w3.org/1999/xlink" version="1.1" width="72.84441375732422" height="62.435062408447266" viewBox="0.18992292881011963 0.75 72.84441375732422 62.435062408447266">
  <!-- Exported by Scratch - http://scratch.mit.edu/ -->
  <path id="ID0.5588462282903492" fill="#04D036" stroke="#000000" stroke-width="0.999999986927563" stroke-linecap="round" d="M 28.0886 54.8236 C 31.3238 52.4441 32.0666 46.8384 35.8604 45.4927 C 38.1994 44.6661 40.2855 47.7996 42.5027 48.8902 C 44.1063 49.682 49.0748 50.312 47.5066 51.7509 C 41.5266 56.1457 33.9553 58.5687 26.7807 61.0405 C 22.6079 62.4762 18.0378 62.6173 13.6318 62.6709 C 11.3867 62.7033 5.9091 62.7764 6.633 61.6177 C 7.769 59.7801 14.4259 58.5557 18.3501 57.15 C 21.389 56.0625 25.2104 56.5143 28.0886 54.8236 Z "/>
  <path id="ID0.44618347007781267" fill="#000000" stroke="none" stroke-linecap="round" d="M 30.75 45.85 C 34.13 45.85 37.192 46.354 39.41 47.169 C 41.627 47.983 43 49.108 43 50.35 C 43 51.592 41.627 52.717 39.41 53.531 C 37.192 54.346 33.524 53.95 30.75 54.85 C 26.79 56.133 23.768 58.98 20 59.75 C 15.864 60.815 6.997 62.672 7.5 60.25 C 8.344 56.291 16.327 50.748 22.09 47.169 C 24.568 45.631 27.37 45.85 30.75 45.85 Z " stroke-width="1"/>
  <path id="ID0.06452212668955326" fill="#01EE4B" stroke="#000000" stroke-width="1" stroke-linecap="round" d="M 44.5 1.25 C 51.612 1.426 59.884 2.325 65.5 7.25 C 70.652 11.768 72.841 19.829 72.5 26.6 C 72.152 33.423 69.2 40.536 64.514 45.51 C 60.464 49.773 55.176 51.024 50 52.25 C 48.592 52.571 48.281 50.374 47 50.25 C 44.949 49.673 42.701 50.002 40.5 50.25 C 35.006 50.872 29.53 52.435 24 52.25 C 17.721 52.042 11.877 50.017 6 48.75 C 4.199 48.515 1.18 49.321 1 47.75 C 0.403 42.398 0.396 36.159 3.5 31.75 C 6.535 27.435 13.221 27.568 17.5 24.75 C 18.643 23.72 18.319 22.004 19 20.75 C 21.591 15.995 23.581 10.141 28 6.75 C 32.336 3.363 38.558 1.252 44.5 1.25 Z "/>
  <path id="ID0.9962429832667112" fill="#FFFFFF" stroke="#000000" stroke-width="0.7668710924736255" stroke-linecap="round" d="M 20.905 52.8864 L 23.3017 58.3179 L 25.936 52.5342 L 21.6661 52.988 Z "/>
</svg>