<svg xmlns="http://www.w3.org/2000/svg" xmlns:xlink="http://www.w3.org/1999/xlink" version="1.1" width="73.44087982177734" height="55.88722610473633" viewBox="0.19346153736114502 0.5184402465820312 73.44087982177734 55.88722610473633">
  <!-- Exported by Scratch - http://scratch.mit.edu/ -->
  <path id="ID0.5588462282903492" fill="#01EE4B" stroke="#000000" stroke-width="1" stroke-linecap="round" d="M 24.5 41.35 C 28.904 41.303 34.229 42.162 37.578 43.475 C 40.927 44.787 41.178 46.931 43 48.6 C 44.317 49.81 48.909 51.809 47 52.75 C 40.027 55.29 32.08 55.491 24.5 55.85 C 20.092 56.057 15.314 55.758 11.422 53.725 C 8.006 51.934 3.276 47.146 3.5 44.25 C 3.674 42.184 9.59 43.605 12.8 43.1 C 16.586 42.639 20.321 41.407 24.5 41.35 Z "/>
  <path id="ID0.06452212668955326" fill="#01EE4B" stroke="#000000" stroke-width="1" stroke-linecap="round" d="M 45.1 1.2 C 52.212 1.376 60.484 2.275 66.1 7.2 C 71.252 11.718 73.441 19.779 73.1 26.55 C 72.752 33.373 70.047 40.618 65.114 45.46 C 60.181 50.303 52.715 52.404 45.85 53.3 C 43.571 53.595 42.914 49.136 40.6 49.2 C 35.226 48.738 30.133 52.745 24.6 52.2 C 18.048 51.55 12.718 46.469 6.1 45.2 C 4.404 44.875 1.93 49.442 1.6 47.7 C 0.681 42.705 0.996 36.109 4.1 31.7 C 7.135 27.385 13.821 27.518 18.1 24.7 C 19.243 23.67 18.919 21.954 19.6 20.7 C 22.191 15.945 24.181 10.091 28.6 6.7 C 32.936 3.313 39.158 1.202 45.1 1.2 Z "/>
  <path id="ID0.06452212668955326" fill="#EEFFF2" stroke="#000000" stroke-width="1" stroke-linecap="round" d="M 39 7.25 C 43.165 6.318 46.834 3.28 51 1.25 C 51.856 1.048 52.265 0.85 52.5 1.25 C 52.733 1.897 52.365 1.93 52 2.75 C 50.345 7.17 46.929 10.942 47 15.5 C 47.05 18.106 50.019 20.754 52.5 22.25 C 54.982 23.754 59.005 22.915 61.5 24.75 C 62.427 25.454 60.392 27.079 59.5 28.25 C 57.714 30.678 55.742 32.964 53.5 35.5 C 52.94 36.134 52.164 36.179 52.5 36.5 C 53.794 37.59 57.674 37.425 57 39 C 54.742 44.237 50.273 49.39 45 52.75 C 43.699 53.601 42.91 49.222 41 49.25 C 35.588 49.304 30.411 52.516 25 52.25 C 20.508 52.026 16.825 48.522 12.5 48.5 C 10.898 48.525 10.33 52.075 9 51.25 C 7.33 50.45 8.464 45.991 6.5 45.25 C 4.579 44.561 1.266 49.321 1 47.25 C 0.266 42.571 1.13 36.283 4.5 31.75 C 7.618 27.575 14.221 27.568 18.5 24.75 C 19.643 23.72 19.319 22.004 20 20.75 C 22.591 15.995 24.478 9.954 29 6.75 C 31.958 4.653 35.755 7.956 39 7.25 Z "/>
  <path id="ID0.19907213374972343" fill="none" stroke="#000000" stroke-width="1" stroke-linecap="round" d="M 1.05 40.45 C 1.05 40.45 0.637 43.02 0.7 43.95 C 0.781 44.717 1.125 45.523 1.55 46.1 C 1.72 46.327 2.4 46.2 2.4 46.2 "/>
</svg>