<svg xmlns="http://www.w3.org/2000/svg" xmlns:xlink="http://www.w3.org/1999/xlink" version="1.1" width="78.62897584275261" height="69.72264191941277" viewBox="-0.16867636360653104 0.32404280982486544 78.62897584275261 69.72264191941277">
  <!-- Exported by Scratch - http://scratch.mit.edu/ -->
  <path id="ID0.06519657000899315" fill="#FFFFFF" stroke="#000000" stroke-width="1" stroke-linecap="round" d="M 10.85 22.1 C 13.416 21.975 12.61 27.066 12.824 29.879 C 12.878 30.583 12.478 29.89 12.35 30.1 C 11.23 30.508 10.298 31.048 9.35 31.6 C 9.032 31.788 8.705 31.873 8.35 32.1 C 8.165 32.795 8.36 34.278 7.876 34.121 C 7.355 33.954 7.541 32.39 6.85 32 C 4.675 30.803 0.046 31.308 0.85 29.6 C 2.49 25.996 7.427 21.835 10.85 22.1 Z "/>
  <path id="ID0.8724241112358868" fill="none" stroke="#000000" stroke-width="1" stroke-linecap="round" d="M 3.35 27.5 L 7.85 30.5 "/>
  <path id="ID0.21627704985439777" fill="none" stroke="#000000" stroke-width="1" stroke-linecap="round" d="M 8.35 25.5 L 8.35 30.5 "/>
  <path id="ID0.06452212668955326" fill="#01EE4B" stroke="#000000" stroke-width="1" stroke-linecap="round" d="M 49.5 1.25 C 56.612 1.426 64.884 2.325 70.5 7.25 C 75.652 11.768 77.841 19.829 77.5 26.6 C 77.152 33.423 74.447 40.668 69.514 45.51 C 64.581 50.353 56.752 50.982 50.25 53.35 C 48.487 53.99 46.462 54.082 44.5 54.5 C 40.045 54.965 35.67 55.995 31 56 C 25.153 56.012 19.311 55.154 13.5 54.5 C 11.263 54.244 9.666 53.55 7.75 53.5 C 7.065 53.543 7.007 53.272 6.75 53.5 C 5.847 54.289 5.437 57.127 5.25 56 C 3.686 52.627 2.622 48.41 3.25 44.5 C 3.981 39.97 5.184 35.504 8.5 31.75 C 11.99 27.893 18.221 27.568 22.5 24.75 C 23.643 23.72 23.319 22.004 24 20.75 C 26.591 15.995 28.581 10.141 33 6.75 C 37.336 3.363 43.558 1.252 49.5 1.25 Z "/>
  <path id="ID0.003244746010750532" fill="none" stroke="#000000" stroke-width="1" stroke-linecap="round" d="M 6.25 53.5 C 6.25 53.5 12.949 52.517 16 52.5 C 17.148 52.491 18 52 19.5 52 C 24.65 51.95 29.839 52.357 35 52.5 C 36.29 52.536 37.308 53.01 38.45 52.75 C 39.177 52.465 40.15 51 40.15 51 "/>
  <path id="ID0.6959688821807504" fill="#FFFFFF" stroke="#000000" stroke-width="1" stroke-linecap="round" d="M 32.25 54.25 C 33.204 54.029 33.356 54.421 33.952 55.128 C 35.04 56.497 36.079 58.144 36.15 59.9 C 36.26 62.656 35.858 66.215 34.25 68.75 C 33.611 69.694 32.377 68.576 31.75 68.25 C 28.728 67.21 25.451 66.457 23.348 64.672 C 22.021 63.533 21.764 61.526 21.15 59.9 C 20.958 59.239 19.488 59.107 20.25 58.75 C 24.17 56.724 28.369 55.119 32.25 54.25 Z "/>
  <path id="ID0.9666587663814425" fill="#000000" stroke="none" d="M 30.9 56.65 C 31.797 56.65 32.609 57.014 33.197 57.603 C 33.786 58.191 34.15 59.003 34.15 59.9 C 34.15 60.797 33.786 61.609 33.197 62.197 C 32.609 62.786 31.797 63.15 30.9 63.15 C 30.003 63.15 29.191 62.786 28.603 62.197 C 28.014 61.609 27.65 60.797 27.65 59.9 C 27.65 59.003 28.014 58.191 28.603 57.603 C 29.191 57.014 30.003 56.65 30.9 56.65 Z " stroke-width="1"/>
  <path id="ID0.12639576103538275" fill="none" stroke="#000000" stroke-width="1.8519143803502691" stroke-linecap="round" d="M 23.5 52.7705 L 24.5 54.4614 L 26 55.7296 "/>
</svg>