<svg xmlns="http://www.w3.org/2000/svg" xmlns:xlink="http://www.w3.org/1999/xlink" version="1.1" width="72.98693084716797" height="55.65566635131836" viewBox="0.047408461570739746 0.75 72.98693084716797 55.65566635131836">
  <!-- Exported by Scratch - http://scratch.mit.edu/ -->
  <path id="ID0.5588462282903492" fill="#04D036" stroke="#000000" stroke-width="1" stroke-linecap="round" d="M 23.5 41.35 C 28.604 41.35 33.229 42.162 36.578 43.475 C 39.927 44.787 40.178 46.931 42 48.6 C 43.317 49.81 47.909 51.809 46 52.75 C 39.027 55.29 31.08 55.491 23.5 55.85 C 19.092 56.057 14.314 55.758 10.422 53.725 C 7.006 51.934 2.542 47.558 2.5 44.25 C 2.542 42.433 7.84 43.941 10.422 43.475 C 14.739 42.7 18.396 41.35 23.5 41.35 Z "/>
  <path id="ID0.06452212668955326" fill="#01EE4B" stroke="#000000" stroke-width="1" stroke-linecap="round" d="M 44.5 1.25 C 51.612 1.426 59.884 2.325 65.5 7.25 C 70.652 11.768 72.841 19.829 72.5 26.6 C 72.152 33.423 69.447 40.668 64.514 45.51 C 59.581 50.353 52.115 52.454 45.25 53.35 C 42.971 53.645 42.314 49.186 40 49.25 C 34.626 48.788 29.533 52.795 24 52.25 C 17.448 51.6 12.118 46.519 5.5 45.25 C 3.804 44.925 1.33 49.492 1 47.75 C 0.081 42.755 0.396 36.159 3.5 31.75 C 6.535 27.435 13.221 27.568 17.5 24.75 C 18.643 23.72 18.319 22.004 19 20.75 C 21.591 15.995 23.581 10.141 28 6.75 C 32.336 3.363 38.558 1.252 44.5 1.25 Z "/>
</svg>