<svg xmlns="http://www.w3.org/2000/svg" xmlns:xlink="http://www.w3.org/1999/xlink" version="1.1" width="73.05653500556946" height="70.1082775592804" viewBox="0.0838623046875 0.6439393758773804 73.05653500556946 70.1082775592804">
  <!-- Exported by Scratch - http://scratch.mit.edu/ -->
  <path id="ID0.5588462282903492" fill="#04D036" stroke="#000000" stroke-width="0.9999999715573167" stroke-linecap="round" d="M 31.617 57.0188 C 34.1904 53.9356 33.573 48.3147 36.9356 46.1019 C 39.0096 44.7407 41.7837 47.2853 44.1972 47.8149 C 45.9435 48.2008 50.9186 47.6261 49.7394 49.3979 C 44.9819 55.0936 38.2084 59.2546 31.8315 63.3682 C 28.1223 65.7588 23.7182 66.9872 19.4525 68.0914 C 17.28 68.659 11.9784 70.0381 12.4047 68.74 C 13.0689 66.6843 19.2409 63.9057 22.7158 61.6035 C 25.4071 59.8217 29.2258 59.3479 31.617 57.0188 Z "/>
  <path id="ID0.44618347007781267" fill="#000000" stroke="none" stroke-linecap="round" d="M 31.242 49.7451 C 34.5209 48.9245 37.6137 48.6701 39.9632 48.9222 C 42.3115 49.1737 43.9165 49.9317 44.218 51.1365 C 44.5195 52.3414 43.4607 53.7661 41.5077 55.0939 C 39.5539 56.423 35.8995 56.9293 33.427 58.4758 C 29.8969 60.6818 27.6565 64.1773 24.1881 65.839 C 20.4344 67.8762 12.2835 71.8303 12.1835 69.3587 C 12.0411 65.3132 18.4396 57.998 23.1613 53.127 C 25.1918 51.0334 27.9632 50.5656 31.242 49.7451 Z " stroke-width="1.0000000047090225"/>
  <path id="ID0.7300830553285778" fill="#FFFFFF" stroke="#000000" stroke-width="1" stroke-linecap="round" d="M 1.7 45.9 L 7.2 45.9 L 4.25 55.5 L 1.7 45.9 Z "/>
  <g id="ID0.0028113406151533127">
    <path id="ID0.7300830553285778" fill="#FFFFFF" stroke="#000000" stroke-width="0.6822718381881714" stroke-linecap="round" d="M 12.4413 47.6564 L 16.1938 47.6564 L 14.147 53.0804 L 12.4413 47.6564 Z "/>
    <path id="ID0.7300830553285778" fill="#FFFFFF" stroke="#000000" stroke-width="0.5443658232688904" stroke-linecap="round" d="M 16.2691 46.7684 L 19.2631 46.7684 L 17.63 51.0961 L 16.2691 46.7684 Z "/>
  </g>
  <g id="ID0.0028113406151533127">
    <path id="ID0.7300830553285778" fill="#FFFFFF" stroke="#000000" stroke-width="0.6822718381881714" stroke-linecap="round" d="M 31.5913 49.8064 L 35.3438 49.8064 L 33.297 55.2304 L 31.5913 49.8064 Z "/>
    <path id="ID0.7300830553285778" fill="#FFFFFF" stroke="#000000" stroke-width="0.5443658232688904" stroke-linecap="round" d="M 35.4191 48.9184 L 38.4131 48.9184 L 36.78 53.2461 L 35.4191 48.9184 Z "/>
  </g>
  <path id="ID0.7300830553285778" fill="#FFFFFF" stroke="#000000" stroke-width="1.2121212482452393" stroke-linecap="round" d="M 16.4712 49.7076 L 23.1379 49.7076 L 18.7136 64.9803 L 16.4712 49.7076 Z "/>
  <path id="ID0.06452212668955326" fill="#01EE4B" stroke="#000000" stroke-width="1" stroke-linecap="round" d="M 44.5 1.25 C 51.612 1.426 59.884 2.325 65.5 7.25 C 70.652 11.768 72.841 19.829 72.5 26.6 C 72.152 33.423 69.2 40.536 64.514 45.51 C 60.464 49.773 55.176 51.024 50 52.25 C 48.592 52.571 48.281 50.374 47 50.25 C 44.949 49.673 42.701 50.002 40.5 50.25 C 35.006 50.872 29.53 52.435 24 52.25 C 17.721 52.042 11.877 50.017 6 48.75 C 4.199 48.515 1.18 49.321 1 47.75 C 0.403 42.398 0.396 36.159 3.5 31.75 C 6.535 27.435 13.221 27.568 17.5 24.75 C 18.643 23.72 18.319 22.004 19 20.75 C 21.591 15.995 23.581 10.141 28 6.75 C 32.336 3.363 38.558 1.252 44.5 1.25 Z "/>
</svg>