<svg xmlns="http://www.w3.org/2000/svg" xmlns:xlink="http://www.w3.org/1999/xlink" version="1.1" width="73.08619689941406" height="55.75243377685547" viewBox="0.9481463432312012 0.75 73.08619689941406 55.75243377685547">
  <!-- Exported by Scratch - http://scratch.mit.edu/ -->
  <path id="ID0.06452212668955326" fill="#01EE4B" stroke="#000000" stroke-width="1" stroke-linecap="round" d="M 45.5 1.25 C 52.612 1.426 60.884 2.325 66.5 7.25 C 71.652 11.768 73.841 19.829 73.5 26.6 C 73.152 33.423 70.447 40.668 65.514 45.51 C 60.581 50.353 52.683 50.8 46.25 53.35 C 44.618 53.996 42.929 54.313 41 54.5 C 36.502 55.198 31.977 56.054 27 56 C 21.152 55.943 14.985 56.127 9.5 54.5 C 6.285 53.521 2.654 50.747 2 47.75 C 0.857 42.484 1.396 36.159 4.5 31.75 C 7.535 27.435 14.221 27.568 18.5 24.75 C 19.643 23.72 19.319 22.004 20 20.75 C 22.591 15.995 24.581 10.141 29 6.75 C 33.336 3.363 39.558 1.252 45.5 1.25 Z "/>
  <path id="ID0.2524055317044258" fill="none" stroke="#000000" stroke-width="1" stroke-linecap="round" d="M 3.5 50 C 3.5 50 11.62 51.439 15.5 52 C 20.788 52.274 26.031 52.868 31 52.5 C 33.286 52.336 37.5 50 37.5 50 "/>
</svg>