<svg xmlns="http://www.w3.org/2000/svg" xmlns:xlink="http://www.w3.org/1999/xlink" version="1.1" width="73.05653500556946" height="62.647183656692505" viewBox="0.0838623046875 0.6439393758773804 73.05653500556946 62.647183656692505">
  <!-- Exported by Scratch - http://scratch.mit.edu/ -->
  <path id="ID0.5588462282903492" fill="#04D036" stroke="#000000" stroke-width="0.999999986927563" stroke-linecap="round" d="M 28.0886 54.8236 C 31.3238 52.4441 32.0666 46.8384 35.8604 45.4927 C 38.1994 44.6661 40.2855 47.7996 42.5027 48.8902 C 44.1063 49.682 49.0748 50.312 47.5066 51.7509 C 41.5266 56.1457 33.9553 58.5687 26.7807 61.0405 C 22.6079 62.4762 18.0378 62.6173 13.6318 62.6709 C 11.3867 62.7033 5.9091 62.7764 6.633 61.6177 C 7.769 59.7801 14.4259 58.5557 18.3501 57.15 C 21.389 56.0625 25.2104 56.5143 28.0886 54.8236 Z "/>
  <path id="ID0.44618347007781267" fill="#000000" stroke="none" stroke-linecap="round" d="M 30.75 45.85 C 34.13 45.85 37.192 46.354 39.41 47.169 C 41.627 47.983 43 49.108 43 50.35 C 43 51.592 41.627 52.717 39.41 53.531 C 37.192 54.346 33.524 53.95 30.75 54.85 C 26.79 56.133 23.768 58.98 20 59.75 C 15.864 60.815 6.997 62.672 7.5 60.25 C 8.344 56.291 16.327 50.748 22.09 47.169 C 24.568 45.631 27.37 45.85 30.75 45.85 Z " stroke-width="1"/>
  <path id="ID0.7300830553285778" fill="#FFFFFF" stroke="#000000" stroke-width="1" stroke-linecap="round" d="M 1.7 45.9 L 7.2 45.9 L 4.2 53.85 L 1.7 45.9 Z "/>
  <g id="ID0.0028113406151533127">
    <path id="ID0.7300830553285778" fill="#FFFFFF" stroke="#000000" stroke-width="0.6822718381881714" stroke-linecap="round" d="M 12.4413 47.6564 L 16.1938 47.6564 L 14.147 53.0804 L 12.4413 47.6564 Z "/>
    <path id="ID0.7300830553285778" fill="#FFFFFF" stroke="#000000" stroke-width="0.5443658232688904" stroke-linecap="round" d="M 16.2691 46.7684 L 19.2631 46.7684 L 17.63 51.0961 L 16.2691 46.7684 Z "/>
  </g>
  <g id="ID0.0028113406151533127">
    <path id="ID0.7300830553285778" fill="#FFFFFF" stroke="#000000" stroke-width="0.6822718381881714" stroke-linecap="round" d="M 31.5913 49.8064 L 35.3438 49.8064 L 33.297 55.2304 L 31.5913 49.8064 Z "/>
    <path id="ID0.7300830553285778" fill="#FFFFFF" stroke="#000000" stroke-width="0.5443658232688904" stroke-linecap="round" d="M 35.4191 48.9184 L 38.4131 48.9184 L 36.78 53.2461 L 35.4191 48.9184 Z "/>
  </g>
  <path id="ID0.7300830553285778" fill="#FFFFFF" stroke="#000000" stroke-width="1.2121212482452393" stroke-linecap="round" d="M 16.4712 49.7076 L 23.1379 49.7076 L 19.5015 59.3439 L 16.4712 49.7076 Z "/>
  <path id="ID0.06452212668955326" fill="#01EE4B" stroke="#000000" stroke-width="1" stroke-linecap="round" d="M 44.5 1.25 C 51.612 1.426 59.884 2.325 65.5 7.25 C 70.652 11.768 72.841 19.829 72.5 26.6 C 72.152 33.423 69.2 40.536 64.514 45.51 C 60.464 49.773 55.176 51.024 50 52.25 C 48.592 52.571 48.281 50.374 47 50.25 C 44.949 49.673 42.701 50.002 40.5 50.25 C 35.006 50.872 29.53 52.435 24 52.25 C 17.721 52.042 11.877 50.017 6 48.75 C 4.199 48.515 1.18 49.321 1 47.75 C 0.403 42.398 0.396 36.159 3.5 31.75 C 6.535 27.435 13.221 27.568 17.5 24.75 C 18.643 23.72 18.319 22.004 19 20.75 C 21.591 15.995 23.581 10.141 28 6.75 C 32.336 3.363 38.558 1.252 44.5 1.25 Z "/>
  <path id="ID0.7300830553285778" fill="#FFFFFF" stroke="#000000" stroke-width="0.4481704251811861" stroke-linecap="round" d="M 23.9513 57.2156 L 26.8235 56.3704 L 24.5283 54.3556 L 23.9513 57.2156 Z "/>
  <path id="ID0.7300830553285778" fill="#FFFFFF" stroke="#000000" stroke-width="0.40537560930252886" stroke-linecap="round" d="M 14.3714 53.4463 L 11.7584 54.9079 L 12.4859 52.8632 L 14.3714 53.4463 Z "/>
</svg>