<svg xmlns="http://www.w3.org/2000/svg" xmlns:xlink="http://www.w3.org/1999/xlink" version="1.1" width="72.85459971518809" height="72.86018443198496" viewBox="0.18482994987818724 0.7449070210680676 72.85459971518809 72.86018443198496">
  <!-- Exported by Scratch - http://scratch.mit.edu/ -->
  <path id="ID0.9929410084150732" fill="#FFFFFF" stroke="#000000" stroke-width="0.6545483595072685" stroke-linecap="round" d="M 6.1147 58.8774 C 6.483 59.0303 6.1643 58.2417 6.28 57.6463 C 6.2238 55.1471 6.1227 52.6694 6.28 50.1949 C 6.4955 47.837 7.7688 45.7571 7.2716 43.7154 C 7.0409 42.7616 5.0775 42.7247 4.6273 43.3914 C 3.5352 45.0677 3.4618 47.4443 3.3051 49.223 C 3.1062 51.4843 2.9673 54.0061 3.6357 56.0264 C 4.0304 57.2167 5.1608 58.4361 6.1147 58.8774 Z "/>
  <path id="ID0.5588462282903492" fill="#04D036" stroke="#000000" stroke-width="0.999999986927563" stroke-linecap="round" d="M 28.0886 54.8236 C 31.3238 52.4441 32.0666 46.8384 35.8604 45.4927 C 38.1994 44.6661 40.2855 47.7996 42.5027 48.8902 C 44.1063 49.682 49.0748 50.312 47.5066 51.7509 C 41.5266 56.1457 33.9553 58.5687 26.7807 61.0405 C 22.6079 62.4762 18.0378 62.6173 13.6318 62.6709 C 11.3867 62.7033 5.9091 62.7764 6.633 61.6177 C 7.769 59.7801 14.4259 58.5557 18.3501 57.15 C 21.389 56.0625 25.2104 56.5143 28.0886 54.8236 Z "/>
  <path id="ID0.44618347007781267" fill="#000000" stroke="none" stroke-linecap="round" d="M 30.75 45.85 C 34.13 45.85 37.192 46.354 39.41 47.169 C 41.627 47.983 43 49.108 43 50.35 C 43 51.592 41.627 52.717 39.41 53.531 C 37.192 54.346 33.524 53.95 30.75 54.85 C 26.79 56.133 23.768 58.98 20 59.75 C 15.864 60.815 6.997 62.672 7.5 60.25 C 8.344 56.291 16.327 50.748 22.09 47.169 C 24.568 45.631 27.37 45.85 30.75 45.85 Z " stroke-width="1"/>
  <path id="ID0.9929410084150732" fill="#FFFFFF" stroke="#000000" stroke-width="1.0101859578638648" stroke-linecap="round" d="M 17.7524 67.8 C 18.3206 68.036 17.8289 66.819 18.0074 65.9 C 17.9207 62.043 17.7646 58.219 18.0074 54.4 C 18.34 50.761 20.3051 47.551 19.5378 44.4 C 19.1818 42.928 16.1516 42.871 15.4567 43.9 C 13.7713 46.487 13.658 50.155 13.4162 52.9 C 13.1091 56.39 12.8948 60.282 13.9263 63.4 C 14.5354 65.237 16.2801 67.119 17.7524 67.8 Z "/>
  <path id="ID0.06452212668955326" fill="#01EE4B" stroke="#000000" stroke-width="1" stroke-linecap="round" d="M 44.5 1.25 C 51.612 1.426 59.884 2.325 65.5 7.25 C 70.652 11.768 72.841 19.829 72.5 26.6 C 72.152 33.423 69.2 40.536 64.514 45.51 C 60.464 49.773 55.176 51.024 50 52.25 C 48.592 52.571 48.281 50.374 47 50.25 C 44.949 49.673 42.701 50.002 40.5 50.25 C 35.006 50.872 29.53 52.435 24 52.25 C 17.721 52.042 11.877 50.017 6 48.75 C 4.199 48.515 1.18 49.321 1 47.75 C 0.403 42.398 0.396 36.159 3.5 31.75 C 6.535 27.435 13.221 27.568 17.5 24.75 C 18.643 23.72 18.319 22.004 19 20.75 C 21.591 15.995 23.581 10.141 28 6.75 C 32.336 3.363 38.558 1.252 44.5 1.25 Z "/>
  <path id="ID0.8837756318971515" fill="#00CC44" stroke="none" stroke-linecap="round" d="M 15.5 57.35 C 16.213 58.362 15.744 60.649 16.1 62.25 C 16.208 62.731 16.559 63.225 16.6 63.75 C 16.748 65.667 16.834 68.181 16.35 69.75 C 16.284 70.231 15.968 68.359 15.5 67.85 C 14.979 67.277 14.185 67.262 13.733 66.311 C 13.28 65.361 13 64.048 13 62.6 C 13 61.152 13.28 59.839 13.733 58.889 C 14.185 57.938 15.14 56.839 15.5 57.35 Z " stroke-width="1"/>
  <path id="ID0.20917626423761249" fill="#00CC44" stroke="none" d="M 14.35 70.6 C 14.557 70.6 14.744 70.74 14.88 70.966 C 15.016 71.193 15.1 71.505 15.1 71.85 C 15.1 72.195 15.016 72.507 14.88 72.734 C 14.744 72.96 14.557 73.1 14.35 73.1 C 14.143 73.1 13.956 72.96 13.82 72.734 C 13.684 72.507 13.6 72.195 13.6 71.85 C 13.6 71.505 13.684 71.193 13.82 70.966 C 13.956 70.74 14.143 70.6 14.35 70.6 Z " stroke-width="1"/>
</svg>