<svg xmlns="http://www.w3.org/2000/svg" xmlns:xlink="http://www.w3.org/1999/xlink" version="1.1" width="75.54794311523438" height="55.75093460083008" viewBox="0.48639631271362305 0.75 75.54794311523438 55.75093460083008">
  <!-- Exported by Scratch - http://scratch.mit.edu/ -->
  <path id="ID0.06452212668955326" fill="#01EE4B" stroke="#000000" stroke-width="1" stroke-linecap="round" d="M 47.5 1.25 C 54.612 1.426 62.884 2.325 68.5 7.25 C 73.652 11.768 75.841 19.829 75.5 26.6 C 75.152 33.423 72.447 40.668 67.514 45.51 C 62.581 50.353 54.752 50.982 48.25 53.35 C 46.487 53.99 44.462 54.082 42.5 54.5 C 38.045 54.965 33.67 55.995 29 56 C 23.153 56.012 17.151 55.929 11.5 54.5 C 8.662 53.771 6.958 51.238 4.5 50.5 C 3.307 49.85 0.779 52.151 1 50.5 C 1.818 44.083 2.448 37.138 6.5 31.75 C 9.635 27.587 16.221 27.568 20.5 24.75 C 21.643 23.72 21.319 22.004 22 20.75 C 24.591 15.995 26.581 10.141 31 6.75 C 35.336 3.363 41.558 1.252 47.5 1.25 Z "/>
  <path id="ID0.2524055317044258" fill="none" stroke="#000000" stroke-width="1" stroke-linecap="round" d="M 5.5 50 C 5.5 50 13.62 51.439 17.5 52 C 22.788 52.274 28.031 52.868 33 52.5 C 35.286 52.336 39.5 50 39.5 50 "/>
</svg>