<svg xmlns="http://www.w3.org/2000/svg" xmlns:xlink="http://www.w3.org/1999/xlink" version="1.1" width="72.70648193359375" height="55.65566635131836" viewBox="0.327858567237854 0.75 72.70648193359375 55.65566635131836">
  <!-- Exported by Scratch - http://scratch.mit.edu/ -->
  <path id="ID0.5588462282903492" fill="#04D036" stroke="#000000" stroke-width="1" stroke-linecap="round" d="M 23.5 41.35 C 28.604 41.35 33.229 42.162 36.578 43.475 C 39.927 44.787 40.178 46.931 42 48.6 C 43.317 49.81 47.909 51.809 46 52.75 C 39.027 55.29 31.08 55.491 23.5 55.85 C 19.092 56.057 14.314 55.758 10.422 53.725 C 7.006 51.934 2.542 47.558 2.5 44.25 C 2.542 42.433 7.84 43.941 10.422 43.475 C 14.739 42.7 18.396 41.35 23.5 41.35 Z "/>
  <path id="ID0.2305470439605415" fill="#FFFFFF" stroke="#000000" stroke-width="0.7093595631115895" stroke-linecap="round" d="M 3.7501 47.299 L 9.4765 45.4111 L 6.5009 53.2637 L 3.7501 47.299 Z "/>
  <path id="ID0.2305470439605415" fill="#FFFFFF" stroke="#000000" stroke-width="0.7093595584459171" stroke-linecap="round" d="M 18.7999 44.049 L 13.0735 42.1611 L 16.0491 50.0137 L 18.7999 44.049 Z "/>
  <path id="ID0.2305470439605415" fill="#FFFFFF" stroke="#000000" stroke-width="1" stroke-linecap="round" d="M 36 44 L 27.5 44 L 30 52.5 L 36 44 Z "/>
  <path id="ID0.06452212668955326" fill="#01EE4B" stroke="#000000" stroke-width="1" stroke-linecap="round" d="M 44.5 1.25 C 51.612 1.426 59.884 2.325 65.5 7.25 C 70.652 11.768 72.841 19.829 72.5 26.6 C 72.152 33.423 69.447 40.668 64.514 45.51 C 59.581 50.353 51.889 51.391 45.25 53.35 C 43.18 53.963 40.748 54.409 38.5 54 C 37.288 53.343 37.013 51.387 36 50.5 C 34.696 49.331 33.906 47.597 32 47 C 29.933 46.319 27.369 46.513 25.5 46.5 C 23.171 46.529 20.76 46.356 18.5 46.5 C 13.969 46.781 9.665 46.837 5 48.5 C 3.214 49.142 1.789 54.923 1.5 53 C 0.611 46.632 0.057 38.105 3.5 31.75 C 5.984 27.17 13.221 27.568 17.5 24.75 C 18.643 23.72 18.319 22.004 19 20.75 C 21.591 15.995 23.581 10.141 28 6.75 C 32.336 3.363 38.558 1.252 44.5 1.25 Z "/>
</svg>