<svg xmlns="http://www.w3.org/2000/svg" xmlns:xlink="http://www.w3.org/1999/xlink" version="1.1" width="94.71185302734375" height="64.35456085205078" viewBox="1.3224923610687256 0.75 94.71185302734375 64.35456085205078">
  <defs>
    <linearGradient id="grad_1" x2="1">
      <stop offset="0" stop-color="#FF99E5" stop-opacity="1"/>
      <stop offset="1" stop-color="#00FFFF" stop-opacity="1"/>
    </linearGradient>
    <linearGradient id="grad_2" x2="1">
      <stop offset="0" stop-color="#FF99E5" stop-opacity="1"/>
      <stop offset="1" stop-color="#00FFFF" stop-opacity="1"/>
    </linearGradient>
  <linearGradient id="grad_1-.9694934487342834,0.2451172173023224,-0.2451172173023224,0.9694934487342834,-111.2,-208.85" x2="80.9675" x1="67.3946" y1="54.3046" y2="57.7362" gradientUnits="userSpaceOnUse">
      <stop offset="0" stop-color="#FF99E5" stop-opacity="1"/>
      <stop offset="1" stop-color="#00FFFF" stop-opacity="1"/>
    </linearGradient><linearGradient id="grad_2-.9694934487342834,0.2451172173023224,-0.2451172173023224,0.9694934487342834,-175.65,-228.65" x2="16.5175" x1="2.9446" y1="34.5046" y2="37.9362" gradientUnits="userSpaceOnUse">
      <stop offset="0" stop-color="#FF99E5" stop-opacity="1"/>
      <stop offset="1" stop-color="#00FFFF" stop-opacity="1"/>
    </linearGradient></defs>
  <!-- Exported by Scratch - http://scratch.mit.edu/ -->
  <path id="ID0.6764228730462492" fill="#666666" stroke="#000000" stroke-width="0.9999999720478967" stroke-linecap="round" d="M 31.3852 44.8618 L 12.3906 37.4317 L 11.1049 43.1411 L 39.2309 49.2997 L 31.3852 44.8618 Z "/>
  <path id="ID0.06452212668955326" fill="#01EE4B" stroke="#000000" stroke-width="1" stroke-linecap="round" d="M 67.5 1.25 C 74.612 1.426 82.884 2.325 88.5 7.25 C 93.652 11.768 95.841 19.829 95.5 26.6 C 95.152 33.423 92.447 40.668 87.514 45.51 C 82.581 50.353 74.752 50.982 68.25 53.35 C 66.487 53.99 64.462 54.082 62.5 54.5 C 58.045 54.965 53.67 55.995 49 56 C 43.153 56.012 37.151 55.929 31.5 54.5 C 28.662 53.771 26.958 51.238 24.5 50.5 C 23.307 49.85 20.779 52.151 21 50.5 C 21.818 44.083 22.448 37.138 26.5 31.75 C 29.635 27.587 36.221 27.568 40.5 24.75 C 41.643 23.72 41.319 22.004 42 20.75 C 44.591 15.995 46.581 10.141 51 6.75 C 55.336 3.363 61.558 1.252 67.5 1.25 Z "/>
  <path id="ID0.2524055317044258" fill="none" stroke="#000000" stroke-width="1" stroke-linecap="round" d="M 25.5 50 C 25.5 50 33.62 51.439 37.5 52 C 42.788 52.274 48.031 52.868 53 52.5 C 55.286 52.336 59.5 50 59.5 50 "/>
  <path id="ID0.6764228730462492" fill="#666666" stroke="#000000" stroke-width="1" stroke-linecap="round" d="M 50.75 52.75 L 70.75 56.75 L 68.75 62.25 L 41.75 52.25 L 50.75 52.75 Z "/>
  <path id="ID0.8146214340813458" fill="#FFFFFF" stroke="#000000" stroke-width="1" stroke-linecap="round" d="M 47 52.75 L 52.5 52.75 L 49.25 58 L 47 52.75 Z "/>
  <path id="ID0.1456503802910447" fill="url(#grad_1-.9694934487342834,0.2451172173023224,-0.2451172173023224,0.9694934487342834,-111.2,-208.85)" stroke="#000000" stroke-width="0.9999999986783643" d="M 74.181 56.0204 C 76.0531 56.4937 77.6331 57.3841 78.6727 58.4412 C 79.7135 59.4975 80.2133 60.7193 79.9258 61.8565 C 79.6382 62.9938 78.6178 63.8312 77.2 64.2659 C 75.7829 64.7019 73.9696 64.7344 72.0976 64.2611 C 70.2255 63.7877 68.6455 62.8973 67.6059 61.8402 C 66.5651 60.7839 66.0653 59.5621 66.3528 58.4249 C 66.6404 57.2877 67.6608 56.4502 69.0786 56.0155 C 70.4957 55.5796 72.309 55.547 74.181 56.0204 Z "/>
  <path id="ID0.1456503802910447" fill="url(#grad_2-.9694934487342834,0.2451172173023224,-0.2451172173023224,0.9694934487342834,-175.65,-228.65)" stroke="#000000" stroke-width="0.9999999986783643" d="M 9.731 36.2204 C 11.6031 36.6937 13.1831 37.5841 14.2227 38.6412 C 15.2635 39.6975 15.7633 40.9193 15.4758 42.0565 C 15.1882 43.1938 14.1678 44.0312 12.75 44.4659 C 11.3329 44.9019 9.5196 44.9344 7.6476 44.4611 C 5.7755 43.9877 4.1955 43.0973 3.1559 42.0402 C 2.1151 40.9839 1.6153 39.7621 1.9028 38.6249 C 2.1904 37.4877 3.2108 36.6502 4.6286 36.2155 C 6.0457 35.7796 7.859 35.747 9.731 36.2204 Z "/>
</svg>