<svg xmlns="http://www.w3.org/2000/svg" xmlns:xlink="http://www.w3.org/1999/xlink" version="1.1" width="81.16210174560547" height="84.00782775878906" viewBox="3.8722362518310547 0.75 81.16210174560547 84.00782775878906">
  <!-- Exported by Scratch - http://scratch.mit.edu/ -->
  <path id="ID0.5588462282903492" fill="#04D036" stroke="#000000" stroke-width="0.999999986927563" stroke-linecap="round" d="M 40.0886 54.8236 C 43.3238 52.4441 44.0666 46.8384 47.8604 45.4927 C 50.1994 44.6661 52.2855 47.7996 54.5027 48.8902 C 56.1063 49.682 61.0748 50.312 59.5066 51.7509 C 53.5266 56.1457 45.9553 58.5687 38.7807 61.0405 C 34.6079 62.4762 30.0378 62.6173 25.6318 62.6709 C 23.3867 62.7033 17.9091 62.7764 18.633 61.6177 C 19.769 59.7801 26.4259 58.5557 30.3501 57.15 C 33.389 56.0625 37.2104 56.5143 40.0886 54.8236 Z "/>
  <path id="ID0.44618347007781267" fill="#000000" stroke="none" stroke-linecap="round" d="M 42.75 45.85 C 46.13 45.85 49.192 46.354 51.41 47.169 C 53.627 47.983 55 49.108 55 50.35 C 55 51.592 53.627 52.717 51.41 53.531 C 49.192 54.346 45.524 53.95 42.75 54.85 C 38.79 56.133 35.768 58.98 32 59.75 C 27.864 60.815 18.997 62.672 19.5 60.25 C 20.344 56.291 28.327 50.748 34.09 47.169 C 36.568 45.631 39.37 45.85 42.75 45.85 Z " stroke-width="1"/>
  <path id="ID0.5305366339161992" fill="#FF99E5" stroke="#000000" stroke-width="0.9999999857563058" stroke-linecap="round" d="M 30.6785 50.1905 C 32.5702 49.4588 34.4395 50.7603 36.7706 50.5061 C 38.8443 50.3208 40.9159 49.7029 43.0016 49.7714 C 45.8962 49.8596 52.7047 50.305 52.738 50.912 C 52.7208 51.5458 46.2383 51.9406 43.2638 53.2408 C 39.2876 54.9945 34.9486 55.8534 32.4833 59.1099 C 28.1996 64.7804 28.563 73.0906 23.5678 77.8693 C 21.0762 80.2682 15.8246 79.127 12.1075 78.2621 C 9.6171 77.6771 5.5054 77.0414 4.4887 74.5359 C 3.9001 70.7106 5.5941 66.2705 8.4053 63.6601 C 14.4661 58.0427 22.7798 53.9994 30.6785 50.1905 Z "/>
  <path id="ID0.06452212668955326" fill="#01EE4B" stroke="#000000" stroke-width="1" stroke-linecap="round" d="M 56.5 1.25 C 63.612 1.426 71.884 2.325 77.5 7.25 C 82.652 11.768 84.841 19.829 84.5 26.6 C 84.152 33.423 81.2 40.536 76.514 45.51 C 72.464 49.773 67.176 51.024 62 52.25 C 60.592 52.571 60.281 50.374 59 50.25 C 56.949 49.673 54.701 50.002 52.5 50.25 C 47.006 50.872 41.53 52.435 36 52.25 C 29.721 52.042 23.877 50.017 18 48.75 C 16.199 48.515 13.18 49.321 13 47.75 C 12.403 42.398 12.396 36.159 15.5 31.75 C 18.535 27.435 25.221 27.568 29.5 24.75 C 30.643 23.72 30.319 22.004 31 20.75 C 33.591 15.995 35.581 10.141 40 6.75 C 44.336 3.363 50.558 1.252 56.5 1.25 Z "/>
  <path id="ID0.0665331520140171" fill="#FFFFFF" stroke="none" d="M 10.75 70.85 C 12.06 70.85 13.248 71.102 14.108 71.509 C 14.968 71.917 15.5 72.479 15.5 73.1 C 15.5 73.721 14.968 74.283 14.108 74.691 C 13.248 75.098 12.06 75.35 10.75 75.35 C 9.44 75.35 8.252 75.098 7.392 74.691 C 6.532 74.283 6 73.721 6 73.1 C 6 72.479 6.532 71.917 7.392 71.509 C 8.252 71.102 9.44 70.85 10.75 70.85 Z " stroke-width="1"/>
  <path id="ID0.49980212142691016" fill="#FFFFFF" stroke="none" d="M 19.25 74.85 C 19.733 74.85 20.17 75.046 20.487 75.363 C 20.804 75.68 21 76.117 21 76.6 C 21 77.083 20.804 77.52 20.487 77.837 C 20.17 78.154 19.733 78.35 19.25 78.35 C 18.767 78.35 18.33 78.154 18.013 77.837 C 17.696 77.52 17.5 77.083 17.5 76.6 C 17.5 76.117 17.696 75.68 18.013 75.363 C 18.33 75.046 18.767 74.85 19.25 74.85 Z " stroke-width="1"/>
  <g id="ID0.7054107831791043">
    <path id="ID0.8441726942546666" fill="none" stroke="#000000" stroke-width="0.7883597612380981" stroke-linecap="round" d="M 18.1836 81.1172 C 18.1836 81.1172 19.4891 81.4373 20.1545 81.5114 C 20.6764 81.5697 21.2101 81.5768 21.7312 81.5114 C 22.2681 81.4444 22.7829 81.2488 23.3079 81.1172 C 23.833 80.9855 24.3596 80.8547 24.8847 80.723 C 25.0163 80.6899 24.8847 80.723 24.8847 80.723 "/>
    <path id="ID0.8441726942546666" fill="none" stroke="#000000" stroke-width="0.6077055381781828" stroke-linecap="round" d="M 22.3478 83.8172 C 22.3478 83.8172 22.9145 84.1373 23.2033 84.2114 C 23.4299 84.2697 23.6615 84.2768 23.8877 84.2114 C 24.1208 84.1444 24.3442 83.9488 24.5721 83.8172 C 24.8 83.6855 25.0286 83.5547 25.2565 83.423 C 25.3137 83.3899 25.2565 83.423 25.2565 83.423 "/>
  </g>
  <g id="ID0.7054107831791043">
    <path id="ID0.8441726942546666" fill="none" stroke="#000000" stroke-width="0.7883597558270039" stroke-linecap="round" d="M 15.9708 54.5573 C 15.9708 54.5573 14.6362 54.718 13.9874 54.8832 C 13.4785 55.0126 12.9765 55.1942 12.512 55.4391 C 12.0332 55.6911 11.6204 56.0556 11.1754 56.3639 C 10.7305 56.6722 10.2839 56.9803 9.8389 57.2886 C 9.7274 57.366 9.8389 57.2886 9.8389 57.2886 "/>
    <path id="ID0.8441726942546666" fill="none" stroke="#000000" stroke-width="0.60770553073865" stroke-linecap="round" d="M 11.1557 53.4555 C 11.1557 53.4555 10.5126 53.3558 10.2162 53.3882 C 9.9836 53.4135 9.7643 53.4885 9.5757 53.6295 C 9.3813 53.7744 9.2411 54.0361 9.0742 54.2397 C 8.9074 54.4432 8.7396 54.6463 8.5728 54.8498 C 8.531 54.901 8.5728 54.8498 8.5728 54.8498 "/>
  </g>
</svg>