<svg xmlns="http://www.w3.org/2000/svg" xmlns:xlink="http://www.w3.org/1999/xlink" version="1.1" width="73.85299684412013" height="74.3821411312295" viewBox="0.7813408285045141 0.4807583003901953 73.85299684412013 74.3821411312295">
  <!-- Exported by Scratch - http://scratch.mit.edu/ -->
  <path id="ID0.3901695995591581" fill="#FFFFFF" stroke="#000000" stroke-width="1.000000017948247" stroke-linecap="round" d="M 27.0391 45.9429 C 27.7462 44.6757 27.0483 46.0103 27.3763 46.0493 C 28.0941 46.2441 28.9357 46.486 29.4276 47.0677 C 29.91 47.6678 30.1944 48.2841 29.8785 48.693 C 29.1835 50.6855 27.8193 52.1716 26.6051 53.777 C 23.5643 57.7933 19.9144 62.5457 16.7315 65.6755 C 15.9533 66.5785 18.0084 63.1764 18.683 61.8426 C 21.3816 56.5052 24.2124 51.0122 27.0391 45.9429 Z "/>
  <path id="ID0.5588462282903492" fill="#01EE4B" stroke="#000000" stroke-width="1" stroke-linecap="round" d="M 25.5 43.35 C 29.904 43.303 35.229 44.162 38.578 45.475 C 41.927 46.787 42.178 48.931 44 50.6 C 45.317 51.81 49.909 53.809 48 54.75 C 41.027 57.29 33.08 57.491 25.5 57.85 C 21.092 58.057 16.314 57.758 12.422 55.725 C 9.006 53.934 4.276 49.146 4.5 46.25 C 4.674 44.184 10.59 45.605 13.8 45.1 C 17.586 44.639 21.321 43.407 25.5 43.35 Z "/>
  <path id="ID0.06452212668955326" fill="#01EE4B" stroke="#000000" stroke-width="1" stroke-linecap="round" d="M 46.1 3.2 C 53.212 3.376 61.484 4.275 67.1 9.2 C 72.252 13.718 74.441 21.779 74.1 28.55 C 73.752 35.373 71.047 42.618 66.114 47.46 C 61.181 52.303 53.715 54.404 46.85 55.3 C 44.571 55.595 43.914 51.136 41.6 51.2 C 36.226 50.738 31.133 54.745 25.6 54.2 C 19.048 53.55 13.718 48.469 7.1 47.2 C 5.404 46.875 2.93 51.442 2.6 49.7 C 1.681 44.705 1.996 38.109 5.1 33.7 C 8.135 29.385 14.821 29.518 19.1 26.7 C 20.243 25.67 19.919 23.954 20.6 22.7 C 23.191 17.945 25.181 12.091 29.6 8.7 C 33.936 5.313 40.158 3.202 46.1 3.2 Z "/>
  <path id="ID0.06452212668955326" fill="#CCCCCC" stroke="#000000" stroke-width="1" stroke-linecap="round" d="M 48.5 1 C 54.21 0.641 63.857 5.411 64.25 6.5 C 64.986 7.495 55.396 4.641 51.75 7 C 48.642 9.029 49.227 14.002 48 17.5 C 47.693 18.375 46.982 17.893 48 19 C 52.065 23.417 56.875 27.129 61 31.5 C 62.186 32.44 61.535 31.485 61 32 C 58.859 34.061 56.65 35.805 54.5 37.5 C 53.922 38.169 53.164 38.179 53.5 38.5 C 54.794 39.59 59.852 38.036 58 41 C 50.593 52.856 34.801 71.921 31.25 74.25 C 28.447 75.992 43.675 57.086 42 51.25 C 40.892 47.405 31.411 54.516 26 54.25 C 21.508 54.026 17.495 48.821 13.5 50.5 C 9.91 52.045 10.12 62.853 9 62.5 C 7.895 61.647 9.808 49.682 7.5 47.25 C 6.048 45.769 1.801 55.799 1.5 53.5 C 0.806 49.084 1.666 39.682 5.5 33.75 C 8.335 29.378 15.221 29.568 19.5 26.75 C 20.643 25.72 20.319 24.004 21 22.75 C 23.591 17.995 25.681 12.22 30 8.75 C 34.963 4.777 41.835 1.421 48.5 1 Z "/>
  <path id="ID0.19907213374972343" fill="none" stroke="#000000" stroke-width="1" stroke-linecap="round" d="M 2.05 42.45 C 2.05 42.45 1.637 45.02 1.7 45.95 C 1.781 46.717 2.125 47.523 2.55 48.1 C 2.72 48.327 3.4 48.2 3.4 48.2 "/>
  <path id="ID0.44991150638088584" fill="#00FFFF" stroke="#000000" stroke-linecap="round" d="M 29.917 9.1311 C 30.743 11.4986 30.7907 14.1811 30.4699 16.4879 C 30.2842 17.8013 29.6107 18.8662 28.6315 20.0248 C 27.6523 21.1835 26.5082 22.0168 25.4505 22.427 C 24.3929 22.8372 23.4224 22.8235 22.79 22.2891 C 22.1576 21.7546 21.9824 20.8 22.2106 19.6888 C 22.4388 18.5776 23.3137 17.2588 24.0489 16.1519 C 25.3152 14.2369 26.742 11.9599 28.4055 10.145 C 28.85 9.667 29.7936 8.583 29.917 9.1311 Z " stroke-width="0.9999999877625781"/>
</svg>