<svg xmlns="http://www.w3.org/2000/svg" xmlns:xlink="http://www.w3.org/1999/xlink" version="1.1" width="77.75056457519531" height="74.60131072998047" viewBox="2.283773899078369 0.75 77.75056457519531 74.60131072998047">
  <!-- Exported by Scratch - http://scratch.mit.edu/ -->
  <path id="ID0.5588462282903492" fill="#04D036" stroke="#000000" stroke-width="0.999999986927563" stroke-linecap="round" d="M 35.0886 54.8236 C 38.3238 52.4441 39.0666 46.8384 42.8604 45.4927 C 45.1994 44.6661 47.2855 47.7996 49.5027 48.8902 C 51.1063 49.682 56.0748 50.312 54.5066 51.7509 C 48.5266 56.1457 40.9553 58.5687 33.7807 61.0405 C 29.6079 62.4762 25.0378 62.6173 20.6318 62.6709 C 18.3867 62.7033 12.9091 62.7764 13.633 61.6177 C 14.769 59.7801 21.4259 58.5557 25.3501 57.15 C 28.389 56.0625 32.2104 56.5143 35.0886 54.8236 Z "/>
  <path id="ID0.44618347007781267" fill="#000000" stroke="none" stroke-linecap="round" d="M 37.75 45.85 C 41.13 45.85 44.192 46.354 46.41 47.169 C 48.627 47.983 50 49.108 50 50.35 C 50 51.592 48.627 52.717 46.41 53.531 C 44.192 54.346 40.524 53.95 37.75 54.85 C 33.79 56.133 30.768 58.98 27 59.75 C 22.864 60.815 13.997 62.672 14.5 60.25 C 15.344 56.291 23.327 50.748 29.09 47.169 C 31.568 45.631 34.37 45.85 37.75 45.85 Z " stroke-width="1"/>
  <path id="ID0.5305366339161992" fill="#FF99E5" stroke="#000000" stroke-width="0.9999999821202756" stroke-linecap="round" d="M 19.1737 55.7438 C 23.2016 54.0216 27.6993 52.0082 32.1647 50.7861 C 34.1272 50.2467 39.4387 49.3825 38.4162 50.2533 C 36.0684 52.3888 29.6218 55.0662 25.1695 57.0259 C 23.2678 57.8614 21.2087 58.2716 19.2142 58.8836 C 17.0662 59.5468 14.5496 59.8948 12.6726 61.2436 C 11.2792 62.2634 10.0821 63.4773 9.8821 65.0298 C 9.4974 68.0835 12.4449 72.3847 11.385 74.5126 C 10.5719 75.757 7.1667 73.2827 6.136 71.7744 C 4.4125 69.2512 1.5221 65.2364 3.3891 63.0163 C 7.1229 58.5975 13.853 58.0206 19.1737 55.7438 Z "/>
  <path id="ID0.06452212668955326" fill="#01EE4B" stroke="#000000" stroke-width="1" stroke-linecap="round" d="M 51.5 1.25 C 58.612 1.426 66.884 2.325 72.5 7.25 C 77.652 11.768 79.841 19.829 79.5 26.6 C 79.152 33.423 76.2 40.536 71.514 45.51 C 67.464 49.773 62.176 51.024 57 52.25 C 55.592 52.571 55.281 50.374 54 50.25 C 51.949 49.673 49.701 50.002 47.5 50.25 C 42.006 50.872 36.53 52.435 31 52.25 C 24.721 52.042 18.877 50.017 13 48.75 C 11.199 48.515 8.18 49.321 8 47.75 C 7.403 42.398 7.396 36.159 10.5 31.75 C 13.535 27.435 20.221 27.568 24.5 24.75 C 25.643 23.72 25.319 22.004 26 20.75 C 28.591 15.995 30.581 10.141 35 6.75 C 39.336 3.363 45.558 1.252 51.5 1.25 Z "/>
  <path id="ID0.6709865066222847" fill="#FFFFFF" stroke="none" d="M 8.9 69.75 C 9.245 69.75 9.557 69.932 9.784 70.226 C 10.01 70.52 10.15 70.927 10.15 71.375 C 10.15 71.823 10.01 72.23 9.784 72.524 C 9.557 72.818 9.245 73 8.9 73 C 8.555 73 8.243 72.818 8.016 72.524 C 7.79 72.23 7.65 71.823 7.65 71.375 C 7.65 70.927 7.79 70.52 8.016 70.226 C 8.243 69.932 8.555 69.75 8.9 69.75 Z " stroke-width="1"/>
  <path id="ID0.46814138861373067" fill="#FFFFFF" stroke="none" d="M 6.15 68 C 6.288 68 6.413 68.07 6.503 68.183 C 6.594 68.296 6.65 68.453 6.65 68.625 C 6.65 68.797 6.594 68.954 6.503 69.067 C 6.413 69.18 6.288 69.25 6.15 69.25 C 6.012 69.25 5.887 69.18 5.797 69.067 C 5.706 68.954 5.65 68.797 5.65 68.625 C 5.65 68.453 5.706 68.296 5.797 68.183 C 5.887 68.07 6.012 68 6.15 68 Z " stroke-width="1"/>
</svg>