<svg xmlns="http://www.w3.org/2000/svg" xmlns:xlink="http://www.w3.org/1999/xlink" version="1.1" width="81.44628143310547" height="73.51277923583984" viewBox="3.5880579948425293 0.75 81.44628143310547 73.51277923583984">
  <!-- Exported by Scratch - http://scratch.mit.edu/ -->
  <path id="ID0.5588462282903492" fill="#04D036" stroke="#000000" stroke-width="0.999999986927563" stroke-linecap="round" d="M 40.0886 54.8236 C 43.3238 52.4441 44.0666 46.8384 47.8604 45.4927 C 50.1994 44.6661 52.2855 47.7996 54.5027 48.8902 C 56.1063 49.682 61.0748 50.312 59.5066 51.7509 C 53.5266 56.1457 45.9553 58.5687 38.7807 61.0405 C 34.6079 62.4762 30.0378 62.6173 25.6318 62.6709 C 23.3867 62.7033 17.9091 62.7764 18.633 61.6177 C 19.769 59.7801 26.4259 58.5557 30.3501 57.15 C 33.389 56.0625 37.2104 56.5143 40.0886 54.8236 Z "/>
  <path id="ID0.44618347007781267" fill="#000000" stroke="none" stroke-linecap="round" d="M 42.75 45.85 C 46.13 45.85 49.192 46.354 51.41 47.169 C 53.627 47.983 55 49.108 55 50.35 C 55 51.592 53.627 52.717 51.41 53.531 C 49.192 54.346 45.524 53.95 42.75 54.85 C 38.79 56.133 35.768 58.98 32 59.75 C 27.864 60.815 18.997 62.672 19.5 60.25 C 20.344 56.291 28.327 50.748 34.09 47.169 C 36.568 45.631 39.37 45.85 42.75 45.85 Z " stroke-width="1"/>
  <path id="ID0.5305366339161992" fill="#FF99E5" stroke="#000000" stroke-width="0.9999999821202756" stroke-linecap="round" d="M 31.0861 50.2738 C 33.0004 49.6036 34.8266 50.9649 37.1647 50.7861 C 39.2434 50.668 41.3338 50.1173 43.4162 50.2533 C 46.3065 50.435 52.6589 51.4051 53.1107 51.7079 C 53.5588 52.0124 48.7922 51.5035 46.7303 51.502 C 43.3225 51.9324 39.8359 52.341 36.7377 52.9924 C 33.6318 53.6341 30.2392 54.4709 27.7185 55.9879 C 23.6544 58.4271 19.592 61.679 16.7068 65.0159 C 15.0554 66.9243 14.9959 72.3178 13.7105 71.9849 C 12.34 71.6181 13.5632 63.5283 11.7095 64.0102 C 8.6482 64.8379 4.4228 73.9482 4.123 73.7599 C 3.8211 73.5659 5.495 65.5345 8.3891 63.0163 C 14.6283 57.5978 23.0683 53.8253 31.0861 50.2738 Z "/>
  <path id="ID0.06452212668955326" fill="#01EE4B" stroke="#000000" stroke-width="1" stroke-linecap="round" d="M 56.5 1.25 C 63.612 1.426 71.884 2.325 77.5 7.25 C 82.652 11.768 84.841 19.829 84.5 26.6 C 84.152 33.423 81.2 40.536 76.514 45.51 C 72.464 49.773 67.176 51.024 62 52.25 C 60.592 52.571 60.281 50.374 59 50.25 C 56.949 49.673 54.701 50.002 52.5 50.25 C 47.006 50.872 41.53 52.435 36 52.25 C 29.721 52.042 23.877 50.017 18 48.75 C 16.199 48.515 13.18 49.321 13 47.75 C 12.403 42.398 12.396 36.159 15.5 31.75 C 18.535 27.435 25.221 27.568 29.5 24.75 C 30.643 23.72 30.319 22.004 31 20.75 C 33.591 15.995 35.581 10.141 40 6.75 C 44.336 3.363 50.558 1.252 56.5 1.25 Z "/>
  <path id="ID0.887495547067374" fill="#FFFFFF" stroke="none" d="M 14.4 62 C 14.745 62 15.057 62.112 15.284 62.293 C 15.51 62.474 15.65 62.724 15.65 63 C 15.65 63.276 15.51 63.526 15.284 63.707 C 15.057 63.888 14.745 64 14.4 64 C 14.055 64 13.743 63.888 13.516 63.707 C 13.29 63.526 13.15 63.276 13.15 63 C 13.15 62.724 13.29 62.474 13.516 62.293 C 13.743 62.112 14.055 62 14.4 62 Z " stroke-width="1"/>
  <path id="ID0.6242842855863273" fill="#FFFFFF" stroke="none" d="M 18.4 59.5 C 18.607 59.5 18.794 59.556 18.93 59.647 C 19.066 59.737 19.15 59.862 19.15 60 C 19.15 60.138 19.066 60.263 18.93 60.353 C 18.794 60.444 18.607 60.5 18.4 60.5 C 18.193 60.5 18.006 60.444 17.87 60.353 C 17.734 60.263 17.65 60.138 17.65 60 C 17.65 59.862 17.734 59.737 17.87 59.647 C 18.006 59.556 18.193 59.5 18.4 59.5 Z " stroke-width="1"/>
</svg>