<svg xmlns="http://www.w3.org/2000/svg" xmlns:xlink="http://www.w3.org/1999/xlink" version="1.1" width="30.977643995701193" height="80.02611544650685" viewBox="4.356118664533437 2.9141461704080704 30.977643995701193 80.02611544650685">
  <!-- Exported by Scratch - http://scratch.mit.edu/ -->
  <path id="ID0.21615128219127655" fill="#01EE4B" stroke="#000000" stroke-width="1.000000029026388" stroke-linecap="round" d="M 29.8074 7.2416 C 32.2051 7.8865 33.8176 10.5539 34.4855 14.3424 C 35.1544 18.1312 34.8779 23.0398 33.4984 28.1685 C 32.1189 33.2973 28.176 36.0755 27.4164 40.6243 C 25.587 51.7375 32.4628 65.1902 27.2221 75.5651 C 23.9772 81.9618 9.5781 84.7411 5.781 80.2052 C 2.1028 76.4395 10.4614 65.0331 12.2715 58.9619 C 12.8263 57.1457 10.8773 69.5046 11.419 65.9814 C 13.3989 51.8983 13.0344 37.4031 16.1162 23.4932 C 17.1154 18.9891 19.719 13.9794 22.1982 11.0374 C 24.6765 8.0952 27.4096 6.5966 29.8074 7.2416 Z "/>
  <path id="ID0.732419051695615" fill="#01EE4B" stroke="none" d="M 25.4207 3.7891 C 28.6 4.7136 30.9957 7.2192 32.2978 10.5201 C 33.5999 13.8209 33.8094 17.9174 32.6154 22.0233 C 31.4215 26.1292 29.048 29.4745 26.1789 31.5625 C 23.3098 33.6504 19.9441 34.4806 16.7648 33.5561 C 13.5855 32.6316 11.1898 30.126 9.8877 26.8252 C 8.5856 23.5243 8.376 19.4279 9.57 15.3219 C 10.764 11.216 13.1375 7.8707 16.0066 5.7828 C 18.8757 3.6948 22.2414 2.8646 25.4207 3.7891 Z " stroke-width="0.9999999949260006"/>
</svg>