<svg xmlns="http://www.w3.org/2000/svg" xmlns:xlink="http://www.w3.org/1999/xlink" version="1.1" width="35.08276753031599" height="80.70581059061873" viewBox="-0.5000000218718641 0.15000001389092277 35.08276753031599 80.70581059061873">
  <!-- Exported by Scratch - http://scratch.mit.edu/ -->
  <path id="ID0.21615128219127655" fill="#01EE4B" stroke="#000000" stroke-width="1.0000000437437282" stroke-linecap="round" d="M 17.1988 2.7205 C 19.6813 2.6702 21.9745 4.7813 23.6736 8.2326 C 25.3738 11.6839 26.4789 16.4746 26.5863 21.7845 C 26.6938 27.0944 23.6834 30.863 24.2241 35.443 C 25.5706 46.6251 35.9292 57.6228 33.7939 69.0483 C 32.4642 76.0967 19.4138 82.786 14.5012 79.4907 C 9.9179 76.9019 14.7591 63.6153 14.8019 57.2801 C 14.8275 55.3812 16.4069 67.7928 15.9433 64.2584 C 13.9122 50.1827 9.5148 36.3658 8.59 22.1486 C 8.2918 17.5447 9.3931 12.0073 10.9522 8.49 C 12.5104 4.9728 14.7163 2.7707 17.1988 2.7205 Z "/>
  <path id="ID0.732419051695615" fill="#01EE4B" stroke="none" d="M 12 0.65 C 15.311 0.65 18.311 2.387 20.483 5.193 C 22.655 7.999 24 11.874 24 16.15 C 24 20.426 22.655 24.301 20.483 27.107 C 18.311 29.913 15.311 31.65 12 31.65 C 8.689 31.65 5.689 29.913 3.517 27.107 C 1.345 24.301 0 20.426 0 16.15 C 0 11.874 1.345 7.999 3.517 5.193 C 5.689 2.387 8.689 0.65 12 0.65 Z " stroke-width="1"/>
</svg>