<svg xmlns="http://www.w3.org/2000/svg" xmlns:xlink="http://www.w3.org/1999/xlink" version="1.1" width="46.27775576590954" height="77.77704623221813" viewBox="-0.500000014302425 4.4979376649883465 46.27775576590954 77.77704623221813">
  <!-- Exported by Scratch - http://scratch.mit.edu/ -->
  <path id="ID0.21615128219127655" fill="#01EE4B" stroke="#000000" stroke-width="1.00000002860485" stroke-linecap="round" d="M 11.5905 5.1758 C 13.9713 4.4708 16.7411 5.9002 19.2926 8.7792 C 21.845 11.658 24.1777 15.9858 25.6857 21.0782 C 27.1936 26.1706 25.2871 30.6013 27.0199 34.8752 C 31.2758 45.303 43.1331 53.3026 45.1366 64.753 C 46.2186 70.9675 40.8528 82.7134 36.81 81.7152 C 30.1387 79.5502 27.0042 64.5833 23.7085 58.4266 C 22.7891 56.6881 28.0367 68.1405 26.6549 64.8546 C 20.9734 51.8172 13.0784 39.6553 8.4264 26.1889 C 6.9213 21.8278 6.5188 16.1963 7.0922 12.3919 C 7.6647 8.5878 9.2096 5.8808 11.5905 5.1758 Z "/>
  <path id="ID0.732419051695615" fill="#01EE4B" stroke="none" d="M 12 5.65 C 15.311 5.65 18.311 7.387 20.483 10.193 C 22.655 12.999 24 16.874 24 21.15 C 24 25.426 22.655 29.301 20.483 32.107 C 18.311 34.913 15.311 36.65 12 36.65 C 8.689 36.65 5.689 34.913 3.517 32.107 C 1.345 29.301 0 25.426 0 21.15 C 0 16.874 1.345 12.999 3.517 10.193 C 5.689 7.387 8.689 5.65 12 5.65 Z " stroke-width="1"/>
</svg>