<svg xmlns="http://www.w3.org/2000/svg" xmlns:xlink="http://www.w3.org/1999/xlink" version="1.1" width="45.05850601196289" height="29.627389907836914" viewBox="0.45490604639053345 0.4950765371322632 45.05850601196289 29.627389907836914">
  <!-- Exported by Scratch - http://scratch.mit.edu/ -->
  <path id="ID0.6462057833559811" fill="#01EE4B" stroke="#000000" stroke-width="1" stroke-linecap="round" d="M 15.15 6.5 C 23.756 4.546 33.055 1.533 42.25 1 C 44.543 0.867 45.977 3.464 44.25 4.5 C 37.342 8.643 21.544 11.794 20.75 13.5 C 19.957 15.206 35.321 12.043 39.25 14 C 40.876 14.911 36.579 18.666 34.25 19.5 C 29.715 21.115 24.305 20.117 19.25 20.5 C 18.123 20.78 19.614 20.33 20.25 21 C 22.866 23.784 26.624 26.632 27.25 29 C 27.623 30.38 23.954 29.124 22.25 28.5 C 18.693 27.186 15.53 25.646 12 23.5 C 8.872 21.589 5.061 19.633 3.5 16.5 C 2.488 14.466 1.912 11.223 3.839 9.651 C 6.845 7.181 11.337 7.363 15.15 6.5 Z "/>
  <path id="ID0.342473431956023" fill="#01EE4B" stroke="none" stroke-linecap="round" d="M 12.5 10.5 C 14.275 10.919 16.181 11.396 17.448 12.845 C 18.716 14.293 19.653 16.509 19.5 18.5 C 19.365 20.154 17.368 21.213 16 22.5 C 15.03 23.886 14.4 26.172 12.5 26.5 C 10.705 26.814 8.67 25.595 7.552 24.155 C 4.492 20.223 2.203 16.049 1 11.5 C 0.689 10.295 2.055 9.229 3 9 C 6.262 8.863 9.604 9.802 12.5 10.5 Z " stroke-width="1"/>
</svg>