<svg xmlns="http://www.w3.org/2000/svg" xmlns:xlink="http://www.w3.org/1999/xlink" version="1.1" width="61.09375762939453" height="28.88330078125" viewBox="0.45490604639053345 0.16644585132598877 61.09375762939453 28.88330078125">
  <!-- Exported by Scratch - http://scratch.mit.edu/ -->
  <path id="ID0.6462057833559811" fill="#01EE4B" stroke="#000000" stroke-width="1" stroke-linecap="round" d="M 20.5 2.5 C 30.412 0.305 41.251 0.224 51.5 1.5 C 54.812 1.913 63.271 6.605 60.5 7.5 C 50.522 10.355 28.83 7.616 26 9 C 23.449 10.256 47.913 11.117 46 14 C 43.596 18.584 26.707 22.007 16.75 25 C 14.261 25.748 13.253 26.283 12 25.5 C 8.501 23.952 5.061 21.633 3.5 18.5 C 2.488 16.466 2.184 13.236 3.839 11.651 C 8.114 7.551 14.321 3.87 20.5 2.5 Z "/>
  <path id="ID0.342473431956023" fill="#01EE4B" stroke="none" stroke-linecap="round" d="M 12.5 12.5 C 14.275 12.919 16.181 13.396 17.448 14.845 C 18.716 16.293 19.653 18.509 19.5 20.5 C 19.365 22.154 17.368 23.213 16 24.5 C 15.03 25.886 14.4 28.172 12.5 28.5 C 10.705 28.814 8.67 27.595 7.552 26.155 C 4.492 22.223 2.203 18.049 1 13.5 C 0.689 12.295 2.055 11.229 3 11 C 6.262 10.863 9.604 11.802 12.5 12.5 Z " stroke-width="1"/>
</svg>