<svg xmlns="http://www.w3.org/2000/svg" xmlns:xlink="http://www.w3.org/1999/xlink" version="1.1" width="44.182613372802734" height="34.49317932128906" viewBox="-0.420301616191864 0.8248499631881714 44.182613372802734 34.49317932128906">
  <!-- Exported by Scratch - http://scratch.mit.edu/ -->
  <path id="ID0.6462057833559811" fill="#01EE4B" stroke="#000000" stroke-width="1" stroke-linecap="round" d="M 3.25 8.5 C 14.396 5.554 25.879 3.765 36.75 2 C 39.468 1.558 40.654 0.732 42.25 2 C 43.373 2.921 43.809 3.997 42.25 6.5 C 36.47 15.288 31.346 25.2 22.75 32 C 19.225 34.786 12.838 34.456 9.25 32 C 7.468 30.71 13.105 26.98 12 24.5 C 10.508 21.158 5.061 20.633 3.5 17.5 C 2.488 15.466 3.677 12.908 3.839 10.651 C 3.946 9.75 0.757 9.139 3.25 8.5 Z "/>
  <path id="ID0.342473431956023" fill="#01EE4B" stroke="none" stroke-linecap="round" d="M 12.5 11.5 C 14.109 12.357 16.181 12.396 17.448 13.845 C 18.716 15.293 19.653 17.509 19.5 19.5 C 19.365 21.154 16.627 21.848 16 23.5 C 14.666 27.025 16.162 32.665 13.25 34.5 C 11.538 35.891 8.217 32.412 6.75 30 C 3.682 24.629 2.381 18.474 1 12.5 C 0.437 10.074 -0.878 5.508 1.25 5.5 C 4.872 5.008 8.62 9.426 12.5 11.5 Z " stroke-width="1"/>
</svg>