<svg xmlns="http://www.w3.org/2000/svg" xmlns:xlink="http://www.w3.org/1999/xlink" version="1.1" width="68.2290267944336" height="23.867136001586914" viewBox="-0.43538331985473633 0.182611882686615 68.2290267944336 23.867136001586914">
  <!-- Exported by Scratch - http://scratch.mit.edu/ -->
  <path id="ID0.6462057833559811" fill="#01EE4B" stroke="#000000" stroke-width="1" stroke-linecap="round" d="M 1.5 1.5 C 9.337 -0.338 18.644 1.336 27.25 2.5 C 40.422 4.007 54.742 5.829 66.75 9.5 C 69.706 10.422 59.785 10.554 56.75 11 C 47.432 12.372 38.292 12.752 28.75 15 C 25.413 15.788 23.119 18.722 19.75 20 C 18.263 20.564 16.253 21.283 15 20.5 C 11.501 18.952 8.061 16.633 6.5 13.5 C 5.488 11.466 7.571 8.801 6.839 6.651 C 6.06 4.382 -0.773 2.034 1.5 1.5 Z "/>
  <path id="ID0.342473431956023" fill="#01EE4B" stroke="none" stroke-linecap="round" d="M 15.5 7.5 C 17.203 8.148 19.181 8.396 20.448 9.845 C 21.716 11.293 22.653 13.509 22.5 15.5 C 22.365 17.154 20.368 18.213 19 19.5 C 18.03 20.886 17.4 23.172 15.5 23.5 C 13.705 23.814 11.67 22.595 10.552 21.155 C 7.492 17.223 6.137 12.734 4 8.5 C 2.96 6.461 -1.292 1.891 0.5 1.5 C 4.457 1.391 10.731 5.666 15.5 7.5 Z " stroke-width="1"/>
</svg>