<svg xmlns="http://www.w3.org/2000/svg" xmlns:xlink="http://www.w3.org/1999/xlink" version="1.1" width="63.07588195800781" height="41.55912399291992" viewBox="0.45490604639053345 0.49062424898147583 63.07588195800781 41.55912399291992">
  <!-- Exported by Scratch - http://scratch.mit.edu/ -->
  <path id="ID0.6462057833559811" fill="#01EE4B" stroke="#000000" stroke-width="1" stroke-linecap="round" d="M 15.15 21.5 C 19.26 19.596 22.828 16.574 27 14.5 C 30.285 12.57 33.838 11.22 37.5 9.5 C 43.225 6.803 48.374 1.38 54.5 1 C 57.945 0.799 62.467 3.863 63 7 C 63.421 9.589 59.435 12.281 56.5 13 C 51.191 14.073 45.475 11.436 40 12 C 35.802 12.434 31.254 13.941 27.5 16.5 C 22.915 19.217 18.773 22.879 15.5 27.5 C 13.282 30.638 14.906 37.768 12 38.5 C 8.928 39.21 5.061 34.633 3.5 31.5 C 2.488 29.466 1.912 26.223 3.839 24.651 C 6.845 22.181 11.604 23.144 15.15 21.5 Z "/>
  <path id="ID0.342473431956023" fill="#01EE4B" stroke="none" stroke-linecap="round" d="M 12.5 25.5 C 13.736 26.102 12.894 28.154 13 29.5 C 13.564 31.001 14.099 32.435 14.5 34 C 14.833 35.214 16.471 36.33 16 37.5 C 15.376 39.14 14.4 41.172 12.5 41.5 C 10.705 41.814 8.67 40.595 7.552 39.155 C 4.492 35.223 2.203 31.049 1 26.5 C 0.689 25.295 2.055 24.229 3 24 C 6.262 23.863 9.636 24.089 12.5 25.5 Z " stroke-width="1"/>
</svg>