<svg xmlns="http://www.w3.org/2000/svg" xmlns:xlink="http://www.w3.org/1999/xlink" version="1.1" width="46.898658752441406" height="29.45888900756836" viewBox="0.45490604639053345 0.3936534523963928 46.898658752441406 29.45888900756836">
  <defs>
    <linearGradient id="grad_1" x2="1">
      <stop offset="0" stop-color="#04D036" stop-opacity="1"/>
      <stop offset="1" stop-color="#04D036" stop-opacity="0"/>
    </linearGradient>
  <linearGradient id="grad_1-,0,0,1,-248,-154.75" x2="46.8535" x1="15.65" y1="1.3551" y2="1.3551" gradientUnits="userSpaceOnUse">
      <stop offset="0" stop-color="#04D036" stop-opacity="1"/>
      <stop offset="1" stop-color="#04D036" stop-opacity="0"/>
    </linearGradient></defs>
  <!-- Exported by Scratch - http://scratch.mit.edu/ -->
  <path id="ID0.39674359979107976" fill="url(#grad_1-,0,0,1,-248,-154.75)" stroke="none" stroke-linecap="round" d="M 23.275 5.75 C 30.743 3.943 41.211 0.121 46.4 1.75 C 48.981 2.562 39.765 6.926 38.4 10.75 C 37.882 12.364 42.697 13.171 41.9 14.75 C 40.349 17.811 35.534 18.06 33.15 20.75 C 31.14 22.971 31.882 27.403 29.15 29 C 27.315 30.072 25.113 27.347 23.275 26.5 C 21.405 25.641 19.265 25.337 17.885 23.459 C 16.504 21.581 15.65 18.987 15.65 16.125 C 15.65 13.263 16.504 10.669 17.885 8.791 C 19.265 6.913 21.272 6.234 23.275 5.75 Z " stroke-width="1"/>
  <path id="ID0.6462057833559811" fill="#01EE4B" stroke="#000000" stroke-width="1" stroke-linecap="round" d="M 15.15 6.5 C 23.756 4.546 33.141 2.34 42.25 1 C 44.527 0.665 46.81 1.202 46.65 1.5 C 46.4 2.04 42.89 2.463 41.15 3.25 C 34.223 6.381 22.782 10.249 20.75 13.5 C 19.428 15.615 29.5 14.74 33.9 15 C 36.905 14.99 42.78 14.029 42.9 14.25 C 43.02 14.471 37.915 16.516 35.4 17.25 C 30.014 18.604 24.568 19.177 19.25 20.5 C 17.92 20.831 18.285 21.106 18.4 21.5 C 19.16 22.632 20.314 23.534 21.4 24.25 C 24.233 26.113 30.34 28.289 30.4 29 C 30.46 29.71 24.678 29.247 22.25 28.5 C 18.622 27.379 15.53 25.646 12 23.5 C 8.872 21.589 5.061 19.633 3.5 16.5 C 2.488 14.466 1.912 11.223 3.839 9.651 C 6.845 7.181 11.337 7.363 15.15 6.5 Z "/>
  <path id="ID0.342473431956023" fill="#01EE4B" stroke="none" stroke-linecap="round" d="M 12.5 10.5 C 14.275 10.919 16.181 11.396 17.448 12.845 C 18.716 14.293 19.653 16.509 19.5 18.5 C 19.365 20.154 17.368 21.213 16 22.5 C 15.03 23.886 14.4 26.172 12.5 26.5 C 10.705 26.814 8.67 25.595 7.552 24.155 C 4.492 20.223 2.203 16.049 1 11.5 C 0.689 10.295 2.055 9.229 3 9 C 6.262 8.863 9.604 9.802 12.5 10.5 Z " stroke-width="1"/>
</svg>