<svg xmlns="http://www.w3.org/2000/svg" xmlns:xlink="http://www.w3.org/1999/xlink" version="1.1" width="38.8715934753418" height="47.13634490966797" viewBox="-0.420301616191864 0.18168067932128906 38.8715934753418 47.13634490966797">
  <!-- Exported by Scratch - http://scratch.mit.edu/ -->
  <path id="ID0.6462057833559811" fill="#01EE4B" stroke="#000000" stroke-width="1" stroke-linecap="round" d="M 3.25 20.5 C 3.632 19.977 3.02 20.839 4.25 21 C 10.406 21.228 17.031 24.448 22.25 21.5 C 29.455 17.416 36.453 -2.026 37.75 1 C 39.148 5.022 32.954 26.733 28.75 38.5 C 27.699 41.442 25.398 43.379 22.75 44 C 18.385 45.028 12.838 46.456 9.25 44 C 7.468 42.71 13.105 38.98 12 36.5 C 10.508 33.158 5.061 32.633 3.5 29.5 C 2.488 27.466 3.677 24.908 3.839 22.651 C 3.946 21.75 2.956 21.031 3.25 20.5 Z "/>
  <path id="ID0.342473431956023" fill="#01EE4B" stroke="none" stroke-linecap="round" d="M 12.5 23.5 C 14.109 24.357 16.181 24.396 17.448 25.845 C 18.716 27.293 19.653 29.509 19.5 31.5 C 19.365 33.154 16.627 33.848 16 35.5 C 14.666 39.025 16.162 44.665 13.25 46.5 C 11.538 47.891 8.217 44.412 6.75 42 C 3.682 36.629 2.381 30.474 1 24.5 C 0.437 22.074 -0.878 17.508 1.25 17.5 C 4.872 17.008 8.62 21.426 12.5 23.5 Z " stroke-width="1"/>
</svg>