<svg xmlns="http://www.w3.org/2000/svg" xmlns:xlink="http://www.w3.org/1999/xlink" version="1.1" width="74.08207702636719" height="32.34410858154297" viewBox="-0.43538331985473633 0.7056398391723633 74.08207702636719 32.34410858154297">
  <!-- Exported by Scratch - http://scratch.mit.edu/ -->
  <path id="ID0.6462057833559811" fill="#01EE4B" stroke="#000000" stroke-width="1" stroke-linecap="round" d="M 1.5 10.5 C 16.384 9.055 31.547 13.771 46 12 C 55.575 10.827 71.394 -0.773 73 1.5 C 74.606 3.773 62.682 18.655 54 23 C 43.878 28.366 31.47 27.166 19.75 29 C 16.82 29.458 16.253 30.283 15 29.5 C 11.501 27.952 8.061 25.633 6.5 22.5 C 5.488 20.466 7.571 17.801 6.839 15.651 C 6.06 13.382 -1.997 10.769 1.5 10.5 Z "/>
  <path id="ID0.342473431956023" fill="#01EE4B" stroke="none" stroke-linecap="round" d="M 15.5 16.5 C 17.203 17.148 19.181 17.396 20.448 18.845 C 21.716 20.293 22.653 22.509 22.5 24.5 C 22.365 26.154 20.368 27.213 19 28.5 C 18.03 29.886 17.4 32.172 15.5 32.5 C 13.705 32.814 11.67 31.595 10.552 30.155 C 7.492 26.223 6.137 21.734 4 17.5 C 2.96 15.461 -1.292 10.891 0.5 10.5 C 4.457 10.391 10.731 14.666 15.5 16.5 Z " stroke-width="1"/>
</svg>