<svg xmlns="http://www.w3.org/2000/svg" xmlns:xlink="http://www.w3.org/1999/xlink" version="1.1" width="42.836570739746094" height="26.550125122070312" viewBox="0.45490604639053345 0.4996224641799927 42.836570739746094 26.550125122070312">
  <!-- Exported by Scratch - http://scratch.mit.edu/ -->
  <path id="ID0.6462057833559811" fill="#01EE4B" stroke="#000000" stroke-width="1" stroke-linecap="round" d="M 15.15 6.5 C 23.756 4.546 32.876 1.2 42.25 1 C 44.281 0.958 40.037 4.431 38.75 6 C 35.368 10.152 32.59 13.897 28.75 17 C 25.073 19.994 20.92 21.398 16.75 23 C 14.897 23.714 13.253 24.283 12 23.5 C 8.501 21.952 5.061 19.633 3.5 16.5 C 2.488 14.466 1.912 11.223 3.839 9.651 C 6.845 7.181 11.337 7.363 15.15 6.5 Z "/>
  <path id="ID0.342473431956023" fill="#01EE4B" stroke="none" stroke-linecap="round" d="M 12.5 10.5 C 14.275 10.919 16.181 11.396 17.448 12.845 C 18.716 14.293 19.653 16.509 19.5 18.5 C 19.365 20.154 17.368 21.213 16 22.5 C 15.03 23.886 14.4 26.172 12.5 26.5 C 10.705 26.814 8.67 25.595 7.552 24.155 C 4.492 20.223 2.203 16.049 1 11.5 C 0.689 10.295 2.055 9.229 3 9 C 6.262 8.863 9.604 9.802 12.5 10.5 Z " stroke-width="1"/>
</svg>