<svg xmlns="http://www.w3.org/2000/svg" xmlns:xlink="http://www.w3.org/1999/xlink" version="1.1" width="42.415767669677734" height="27.01409149169922" viewBox="0.45490604639053345 0.03565621376037598 42.415767669677734 27.01409149169922">
  <!-- Exported by Scratch - http://scratch.mit.edu/ -->
  <path id="ID0.08424276439473033" fill="#04D036" stroke="none" stroke-linecap="round" d="M 23.325 7.1 C 23.919 7.105 24.413 7.483 24.95 7.65 C 25.076 7.771 25.118 7.762 25.216 7.921 C 25.556 8.523 25.635 9.292 26 9.9 C 26.621 10.935 28.299 12.875 28.2 13.05 C 28.1 13.225 26.605 11.313 25.55 11.15 C 24.158 10.889 22.72 12.211 21.434 11.879 C 20.749 11.7 20.65 10.672 20.65 9.9 C 20.65 9.128 20.95 8.428 21.434 7.921 C 21.918 7.414 22.643 7.1 23.325 7.1 Z " stroke-width="1"/>
  <path id="ID0.07061333023011684" fill="#04D036" stroke="none" stroke-linecap="round" d="M 29.4 5.35 C 30.141 4.93 30.865 4.271 31.7 3.8 C 32.518 3.336 34.445 1.78 34.35 2.55 C 34.117 4.381 32.226 7.1 30.885 9.191 C 30.549 9.713 29.979 9.85 29.4 9.85 C 28.821 9.85 28.296 9.598 27.915 9.191 C 27.535 8.783 27.3 8.221 27.3 7.6 C 27.3 6.979 27.535 6.417 27.915 6.009 C 28.296 5.602 28.929 5.614 29.4 5.35 Z " stroke-width="1"/>
  <path id="ID0.6462057833559811" fill="#01EE4B" stroke="#000000" stroke-width="1" stroke-linecap="round" d="M 15.15 6.5 C 16.843 6.057 18.515 5.692 20.2 5.3 C 21.48 5.076 23.527 4.372 24.05 4.65 C 24.439 4.858 22.492 5.6 22.25 6.4 C 21.554 8.615 20.518 11.127 21.25 13.35 C 21.656 14.572 23.585 15.158 24.75 14.85 C 26.118 14.314 27.761 12.684 27.25 11.35 C 26.275 8.813 20.676 7.965 21 6.1 C 21.31 4.319 26.017 3.686 28.55 4.3 C 29.771 4.496 28.294 8.236 29.35 7.9 C 31.556 7.201 32.611 3.3 35.05 2 C 37.186 0.862 41.402 -0.054 42.25 1 C 43.003 1.956 40.037 4.431 38.75 6 C 35.368 10.152 32.59 13.897 28.75 17 C 25.073 19.994 20.92 21.398 16.75 23 C 14.897 23.714 13.253 24.283 12 23.5 C 8.501 21.952 5.061 19.633 3.5 16.5 C 2.488 14.466 1.912 11.223 3.839 9.651 C 6.845 7.181 11.367 7.489 15.15 6.5 Z "/>
  <path id="ID0.342473431956023" fill="#01EE4B" stroke="none" stroke-linecap="round" d="M 12.5 10.5 C 14.275 10.919 16.181 11.396 17.448 12.845 C 18.716 14.293 19.653 16.509 19.5 18.5 C 19.365 20.154 17.368 21.213 16 22.5 C 15.03 23.886 14.4 26.172 12.5 26.5 C 10.705 26.814 8.67 25.595 7.552 24.155 C 4.492 20.223 2.203 16.049 1 11.5 C 0.689 10.295 2.055 9.229 3 9 C 6.262 8.863 9.604 9.802 12.5 10.5 Z " stroke-width="1"/>
  <path id="ID0.1999601381830871" fill="#01EE4B" stroke="none" stroke-linecap="round" d="M 20.45 5.65 C 22.247 5.188 24.41 4.15 26.05 4.65 C 26.809 4.962 25.637 6.532 25.25 7.275 C 25.06 7.641 24.711 8.038 24.297 8.07 C 23.429 8.136 22.554 7.464 21.7 7.65 C 21.025 7.794 20.953 9.181 20.35 9.15 C 19.5 8.996 18.875 7.986 18.75 7.275 C 18.685 6.87 19.403 6.763 19.703 6.48 C 20.021 6.185 20 5.765 20.45 5.65 Z " stroke-width="1"/>
</svg>