<svg xmlns="http://www.w3.org/2000/svg" xmlns:xlink="http://www.w3.org/1999/xlink" version="1.1" width="74.5024261639095" height="35.281738297698574" viewBox="-0.4353833280790217 17.76800917756673 74.5024261639095 35.281738297698574">
  <!-- Exported by Scratch - http://scratch.mit.edu/ -->
  <path id="ID0.6462057833559811" fill="#01EE4B" stroke="#000000" stroke-width="1.0000000164485707" stroke-linecap="round" d="M 17.0106 46.9586 C 17.7811 47.3633 15.7903 50.6428 17.5032 49.473 C 25.2647 44.4131 31.1698 36.5286 39.0349 32.4757 C 45.4147 29.1909 52.8246 28.4929 59.9938 27.461 C 64.343 27.086 75.41 29.8924 73.3031 28.2888 C 69.5515 25.4777 56.1203 18.0172 46.4151 18.2745 C 34.9588 18.3095 24.4324 25.6452 13.3771 29.1165 C 10.2686 30.093 4.4415 29.3584 3.4993 31.9544 C 2.6203 34.4077 9.3014 35.6691 11.0118 38.4855 C 12.4403 40.9694 11.9631 44.1684 13.5074 46.4488 C 14.2364 47.5718 16.0008 46.3903 17.0106 46.9586 Z "/>
  <path id="ID0.342473431956023" fill="#01EE4B" stroke="none" stroke-linecap="round" d="M 15.5 36.5 C 17.203 37.148 19.531 37.267 20.448 38.845 C 21.162 40.053 18.801 40.937 18.5 42 C 18.299 44.287 19.688 46.663 19 48.5 C 18.389 50.145 17.4 52.172 15.5 52.5 C 13.705 52.814 11.67 51.595 10.552 50.155 C 7.492 46.223 6.137 41.734 4 37.5 C 2.96 35.461 -1.292 30.891 0.5 30.5 C 4.457 30.391 10.731 34.666 15.5 36.5 Z " stroke-width="1"/>
</svg>