<svg xmlns="http://www.w3.org/2000/svg" xmlns:xlink="http://www.w3.org/1999/xlink" version="1.1" width="22.869234085083008" height="22.35927963256836" viewBox="0.6162575483322144 0.3453606367111206 22.869234085083008 22.35927963256836">
  <!-- Exported by Scratch - http://scratch.mit.edu/ -->
  <path id="ID0.5745106874965131" fill="#3D3D3F" stroke="#000000" stroke-width="1" stroke-linecap="round" d="M 17.95 0.9 C 18.143 0.709 17.951 1.041 17.95 1.55 C 17.649 3.774 17.562 6.076 17.15 8.15 C 16.963 9.097 16.702 10.122 15.978 10.801 C 15.254 11.48 14.254 11.9 13.15 11.9 C 12.046 11.9 10.339 11.224 10.322 10.801 C 10.306 10.379 12.404 10.867 12.95 10.2 C 14.551 8.208 15.141 5.583 16.3 3.4 C 16.767 2.519 17.179 1.664 17.95 0.9 Z "/>
  <path id="ID0.5745106874965131" fill="#3D3D3F" stroke="#000000" stroke-width="1" stroke-linecap="round" d="M 12.55 22.15 C 12.357 22.341 12.549 22.009 12.55 21.5 C 12.851 19.276 12.938 16.974 13.35 14.9 C 13.537 13.953 13.798 12.928 14.522 12.249 C 15.246 11.57 16.246 11.15 17.35 11.15 C 18.454 11.15 20.161 11.826 20.178 12.249 C 20.194 12.671 18.096 12.183 17.55 12.85 C 15.949 14.842 15.359 17.467 14.2 19.65 C 13.733 20.531 13.321 21.386 12.55 22.15 Z "/>
  <path id="ID0.35932795284315944" fill="#000000" stroke="#000000" stroke-width="0.9999999533243897" stroke-linecap="round" d="M 22.6033 4.6643 C 22.6116 4.1606 23.7165 4.3071 22.1306 4.9626 C 15.1756 7.5984 7.4355 8.792 1.4653 12.8087 C -0.0299 13.8148 3.6318 15.0588 5.7732 15.567 C 8.773 16.2337 12.0956 15.8689 15.0642 14.9816 C 17.6774 14.1944 20.3593 13.1336 21.8407 11.0636 C 23.1692 9.288 22.5705 6.6797 22.6033 4.6643 Z "/>
  <path id="ID0.18240864388644695" fill="#FFFFFF" stroke="none" d="M 8.7911 10.9743 C 9.1568 10.8737 9.0898 10.9803 9.1562 11.0823 C 9.2108 11.2198 9.3107 11.1627 9.1856 11.3305 C 8.6018 12.2534 8.0349 13.2256 7.3242 13.9006 C 6.9918 14.2148 6.5647 14.3589 6.0513 14.4195 C 5.5379 14.4802 5.0557 14.3962 4.6925 14.2115 C 4.3282 14.026 4.0831 13.7408 4.0426 13.3981 C 4.0021 13.0555 4.1598 12.6261 4.4851 12.4557 C 5.7542 11.7933 7.341 11.3742 8.7911 10.9743 Z " stroke-width="0.9999999794282561"/>
</svg>