<svg xmlns="http://www.w3.org/2000/svg" xmlns:xlink="http://www.w3.org/1999/xlink" version="1.1" width="25.60980796813965" height="23.49979591369629" viewBox="-0.3787999898195267 -0.4805999994277954 25.60980796813965 23.49979591369629">
  <!-- Exported by Scratch - http://scratch.mit.edu/ -->
  <path id="ID0.5853018658235669" fill="#000000" stroke="none" stroke-linecap="round" d="M 13.1136 0.0194 C 16.3186 0.0194 19.2226 1.4417 21.3246 3.739 C 23.4274 6.0363 24.786 9.4987 24.7293 12.7106 C 24.6828 15.0673 22.7064 16.4741 21.2015 17.658 C 19.3103 19.6224 17.093 21.5222 14.7484 21.9601 C 11.5304 22.5659 7.8702 22.9367 4.9026 21.6822 C 2.8083 20.7865 0.2623 18.9358 0.1212 16.7976 C 0.2623 12.0816 2.249 7.1093 4.9026 3.739 C 6.7706 1.3832 9.9085 0.0194 13.1136 0.0194 Z " stroke-width="0.8604206442832947"/>
  <path id="ID0.35878961998969316" fill="#FFFFFF" stroke="none" stroke-linecap="round" d="M 5.85 11 C 6.177 10.931 6.807 11.125 6.9 11.5 C 7.067 12.183 6.667 12.852 6.55 13.5 C 6.468 13.684 6.21 13.532 6.4 13.6 C 7.158 13.867 7.945 14.002 8.7 14.35 C 8.891 14.431 8.907 14.283 8.85 14.5 C 8.622 15.343 8.514 16.341 7.971 16.974 C 7.428 17.608 6.678 18 5.85 18 C 5.022 18 4.272 17.608 3.729 16.974 C 3.186 16.341 2.85 15.466 2.85 14.5 C 2.85 13.534 3.186 12.659 3.729 12.026 C 4.272 11.392 5.087 11.172 5.85 11 Z " stroke-width="1"/>
</svg>