<svg xmlns="http://www.w3.org/2000/svg" xmlns:xlink="http://www.w3.org/1999/xlink" version="1.1" width="22.869234085083008" height="12.546953201293945" viewBox="0.8662575483322144 1.8628716468811035 22.869234085083008 12.546953201293945">
  <!-- Exported by Scratch - http://scratch.mit.edu/ -->
  <path id="ID0.35932795284315944" fill="#000000" stroke="#000000" stroke-width="0.9999999533243897" stroke-linecap="round" d="M 22.8533 2.6643 C 22.8616 2.1606 23.9665 2.3071 22.3806 2.9626 C 15.4256 5.5984 7.6855 6.792 1.7153 10.8087 C 0.2201 11.8148 3.8818 13.0588 6.0232 13.567 C 9.023 14.2337 12.3456 13.8689 15.3142 12.9816 C 17.9274 12.1944 20.6093 11.1336 22.0907 9.0636 C 23.4192 7.288 22.8205 4.6797 22.8533 2.6643 Z "/>
  <path id="ID0.18240864388644695" fill="#FFFFFF" stroke="none" d="M 7.5411 8.7743 C 7.9068 8.6737 7.8398 8.7803 7.9062 8.8823 C 7.9608 9.0198 8.0607 8.9627 7.9356 9.1305 C 7.3518 10.0534 6.7849 11.0256 6.0742 11.7006 C 5.7418 12.0148 5.3147 12.1589 4.8013 12.2195 C 4.2879 12.2802 3.8057 12.1962 3.4425 12.0115 C 3.0782 11.826 2.8331 11.5408 2.7926 11.1981 C 2.7521 10.8555 2.9098 10.4261 3.2351 10.2557 C 4.5042 9.5933 6.091 9.1742 7.5411 8.7743 Z " stroke-width="0.9999999794282561"/>
</svg>