<svg xmlns="http://www.w3.org/2000/svg" xmlns:xlink="http://www.w3.org/1999/xlink" version="1.1" width="28.512289486868802" height="12.326538525565093" viewBox="0.962902564533738 1.8182320780835428 28.512289486868802 12.326538525565093">
  <!-- Exported by Scratch - http://scratch.mit.edu/ -->
  <path id="ID0.35932795284315944" fill="#FFFFFF" stroke="#000000" stroke-width="1.4117531404332564" stroke-linecap="round" d="M 9.0965 2.7273 C 6.4879 3.2388 4.3517 4.6554 2.6016 6.0417 C 1.6294 6.8114 1.7203 8.0682 1.6709 9.1332 C 1.6166 10.4596 2.6222 13.7173 2.7123 13.4198 C 2.8024 13.1223 1.197 9.0992 2.178 7.221 C 3.1128 5.4221 5.2627 3.7039 7.9434 3.0528 C 10.734 2.4604 14.5615 2.5124 17.0721 3.8352 C 20.6557 5.746 24.0851 11.9083 24.1358 11.8622 C 24.1865 11.8165 21.2046 5.688 17.7947 3.6605 C 15.554 2.3348 11.901 2.3905 9.0965 2.7273 Z "/>
  <path id="ID0.6886064512655139" fill="#000000" stroke="none" stroke-linecap="round" d="M 20.611 7.1271 C 22.7379 6.9548 24.9103 6.5858 26.8664 5.7296 C 27.4174 5.4883 28.2052 4.148 27.7593 4.1544 C 26.7166 4.1691 25.4691 5.4234 24.2278 5.795 C 23.1468 6.1162 22.0927 5.8598 21.1637 6.2437 C 20.7824 6.3422 20.078 7.1703 20.611 7.1271 Z " stroke-width="0.5725806171905133"/>
  <path id="ID0.6886064512655139" fill="#000000" stroke="none" stroke-linecap="round" d="M 21.4923 8.3279 C 23.3494 9.0393 25.3239 9.6036 27.3127 9.6714 C 27.873 9.6904 29.0747 8.8809 28.6973 8.7068 C 27.815 8.2994 26.2615 8.8515 25.0685 8.6642 C 24.0307 8.499 23.2478 7.8592 22.3125 7.8079 C 21.9523 7.7372 21.0269 8.1497 21.4923 8.3279 Z " stroke-width="0.5336221605377603"/>
</svg>