<svg xmlns="http://www.w3.org/2000/svg" xmlns:xlink="http://www.w3.org/1999/xlink" version="1.1" width="25.067407608032227" height="18.431381225585938" viewBox="0.6128594875335693 0.38085412979125977 25.067407608032227 18.431381225585938">
  <!-- Exported by Scratch - http://scratch.mit.edu/ -->
  <path id="ID0.35932795284315944" fill="#FFFFFF" stroke="#000000" stroke-width="1" stroke-linecap="round" d="M 11.4 9.6 C 15.452 9.364 19.521 9.068 23.65 8.6 C 24.569 8.517 25.345 8.769 25.15 8.1 C 24.38 5.469 21.221 0.851 21.186 0.881 C 21.151 0.913 24.85 5.218 24.85 7.95 C 24.85 10.682 23.449 13.209 21.186 15.019 C 18.924 16.829 15.799 17.95 12.35 17.95 C 8.901 17.95 6.004 16.857 3.514 15.019 C 1.968 13.876 0.252 11.034 1.6 10.05 C 3.985 8.315 8.139 9.79 11.4 9.6 Z "/>
  <path id="ID0.09959578141570091" fill="#000000" stroke="none" stroke-linecap="round" d="M 12.65 9.65 C 14.061 9.523 16.416 8.088 16.9 9.4 C 17.821 11.935 16.771 15.019 15.4 17.65 C 14.852 18.689 13.061 17.9 11.9 18.15 C 11.374 18.261 10.954 18.263 10.275 18.25 C 10.104 18.247 10.633 18.534 10.4 17.9 C 9.424 15.347 6.69 12.546 7.4 9.9 C 7.815 8.422 10.849 9.832 12.65 9.65 Z " stroke-width="1"/>
</svg>