<svg xmlns="http://www.w3.org/2000/svg" xmlns:xlink="http://www.w3.org/1999/xlink" version="1.1" width="23.334516525268555" height="12.555607795715332" viewBox="0.8325186967849731 0.905443549156189 23.334516525268555 12.555607795715332">
  <!-- Exported by Scratch - http://scratch.mit.edu/ -->
  <path id="ID0.35932795284315944" fill="#FFFFFF" stroke="#000000" stroke-width="0.9999999788223859" stroke-linecap="round" d="M 23.2349 1.6799 C 22.8879 0.911 22.625 1.9484 21.1163 2.4635 C 14.5873 4.444 7.3295 4.889 1.6859 8.3717 C 0.2382 9.2672 3.5734 10.8605 5.6404 11.6164 C 8.5413 12.6304 11.7555 12.9902 14.9359 12.1249 C 18.1163 11.2596 20.7702 9.4038 22.6925 6.9771 C 23.8623 5.4981 23.8949 3.2258 23.2349 1.6799 Z "/>
  <path id="ID0.09959578141570091" fill="#000000" stroke="none" stroke-linecap="round" d="M 3.1 8 C 3.625 6.403 6.581 6.571 8.35 6 C 9.83 5.523 11.261 5.281 12.85 4.75 C 13.525 4.525 14.942 3.378 14.85 4 C 14.493 7.108 13.311 10.134 11.9 12.65 C 11.548 13.278 10.954 12.763 10.275 12.75 C 10.104 12.747 10.765 12.509 10.4 12.4 C 8.939 11.964 7.321 12.756 6.1 12 C 4.656 11.106 2.5 9.403 3.1 8 Z " stroke-width="1"/>
  <path id="ID0.18240864388644695" fill="#FFFFFF" stroke="none" d="M 4.475 7.75 C 4.992 7.75 5.461 7.89 5.8 8.116 C 6.14 8.343 6.35 8.655 6.35 9 C 6.35 9.345 6.14 9.657 5.8 9.884 C 5.461 10.11 4.992 10.25 4.475 10.25 C 3.958 10.25 3.489 10.11 3.15 9.884 C 2.81 9.657 2.6 9.345 2.6 9 C 2.6 8.655 2.81 8.343 3.15 8.116 C 3.489 7.89 3.958 7.75 4.475 7.75 Z " stroke-width="1"/>
</svg>