<svg xmlns="http://www.w3.org/2000/svg" xmlns:xlink="http://www.w3.org/1999/xlink" version="1.1" width="25.60951805114746" height="22.514856338500977" viewBox="-0.3787999898195267 -0.49566102027893066 25.60951805114746 22.514856338500977">
  <defs>
    <linearGradient id="grad_1" x2="1">
      <stop offset="0" stop-color="#000000" stop-opacity="1"/>
      <stop offset="1" stop-color="#FFFFFF" stop-opacity="1"/>
    </linearGradient>
  <linearGradient id="grad_1-,0,0,1,-211.75,-176.75" x2="23.9404" x1="16.2794" y1="2.4903" y2="2.4903" gradientUnits="userSpaceOnUse">
      <stop offset="0" stop-color="#000000" stop-opacity="1"/>
      <stop offset="1" stop-color="#FFFFFF" stop-opacity="1"/>
    </linearGradient></defs>
  <!-- Exported by Scratch - http://scratch.mit.edu/ -->
  <path id="ID0.5853018658235669" fill="#000000" stroke="none" stroke-linecap="round" d="M 8.2092 0.0089 C 12.5724 0.3066 17.0595 1.0784 20.4702 3.4936 C 23.0402 5.3142 24.6294 8.7731 24.7293 11.7106 C 24.7929 13.7317 22.7064 15.4741 21.2015 16.658 C 19.3103 18.6224 17.093 20.5222 14.7484 20.9601 C 11.5304 21.5659 7.8702 21.9367 4.9026 20.6822 C 2.8083 19.7865 0.2623 17.9358 0.1212 15.7976 C 0.2623 11.0816 2.7197 6.8174 4.9026 2.739 C 5.6675 1.3339 6.7852 -0.0866 8.2092 0.0089 Z " stroke-width="0.8604206442832947"/>
  <path id="ID0.7961966712027788" fill="#FFFFFF" stroke="none" d="M 5.625 10 C 6.487 10 7.268 10.35 7.834 10.916 C 8.4 11.482 8.75 12.263 8.75 13.125 C 8.75 13.987 8.4 14.768 7.834 15.334 C 7.268 15.9 6.487 16.25 5.625 16.25 C 4.763 16.25 3.982 15.9 3.416 15.334 C 2.85 14.768 2.5 13.987 2.5 13.125 C 2.5 12.263 2.85 11.482 3.416 10.916 C 3.982 10.35 4.763 10 5.625 10 Z " stroke-width="1"/>
  <path id="ID0.01434624707326293" fill="#FFFFFF" stroke="none" d="M 20.875 10.5 C 21.254 10.5 21.598 10.654 21.847 10.903 C 22.096 11.152 22.25 11.496 22.25 11.875 C 22.25 12.254 22.096 12.598 21.847 12.847 C 21.598 13.096 21.254 13.25 20.875 13.25 C 20.496 13.25 20.152 13.096 19.903 12.847 C 19.654 12.598 19.5 12.254 19.5 11.875 C 19.5 11.496 19.654 11.152 19.903 10.903 C 20.152 10.654 20.496 10.5 20.875 10.5 Z " stroke-width="1"/>
  <path id="ID0.8579774918034673" fill="url(#grad_1-,0,0,1,-211.75,-176.75)" stroke="none" stroke-linecap="round" d="M 16.75 2.5 C 18.335 2.902 20.575 3.938 21.907 5.332 C 22.916 6.393 23.375 7.896 23.75 9.25 C 23.923 10.357 24.168 11.704 23.5 12.5 C 21.647 14.809 18.498 17.517 16.5 18 C 15.587 18.215 17.801 15.375 17.843 14.168 C 17.884 12.674 17.028 11.25 17 9.75 C 16.967 7.91 17.798 6.055 17.75 4.25 C 17.711 3.536 16.213 2.372 16.75 2.5 Z " stroke-width="1"/>
  <path id="ID0.40296974778175354" fill="#FFFFFF" stroke="none" d="M 5.875 6.75 C 6.875 6.75 7.781 7.338 8.438 8.289 C 9.094 9.239 9.5 10.552 9.5 12 C 9.5 13.448 9.094 14.761 8.438 15.711 C 7.781 16.662 6.875 17.25 5.875 17.25 C 4.875 17.25 3.969 16.662 3.312 15.711 C 2.656 14.761 2.25 13.448 2.25 12 C 2.25 10.552 2.656 9.239 3.312 8.289 C 3.969 7.338 4.875 6.75 5.875 6.75 Z " stroke-width="1"/>
  <path id="ID0.19520784635096788" fill="#FFFFFF" stroke="none" d="M 12.625 3.25 C 13.142 3.25 13.611 3.46 13.95 3.8 C 14.29 4.139 14.5 4.608 14.5 5.125 C 14.5 5.642 14.29 6.111 13.95 6.45 C 13.611 6.79 13.142 7 12.625 7 C 12.108 7 11.639 6.79 11.3 6.45 C 10.96 6.111 10.75 5.642 10.75 5.125 C 10.75 4.608 10.96 4.139 11.3 3.8 C 11.639 3.46 12.108 3.25 12.625 3.25 Z " stroke-width="1"/>
  <path id="ID0.06145833618938923" fill="#FFFFFF" stroke="none" d="M 10.375 15.75 C 10.547 15.75 10.704 15.848 10.817 16.006 C 10.93 16.165 11 16.384 11 16.625 C 11 16.866 10.93 17.085 10.817 17.244 C 10.704 17.402 10.547 17.5 10.375 17.5 C 10.203 17.5 10.046 17.402 9.933 17.244 C 9.82 17.085 9.75 16.866 9.75 16.625 C 9.75 16.384 9.82 16.165 9.933 16.006 C 10.046 15.848 10.203 15.75 10.375 15.75 Z " stroke-width="1"/>
  <path id="ID0.9122844291850924" fill="#FFFFFF" stroke="none" d="M 12 10 C 12.207 10 12.394 10.112 12.53 10.293 C 12.666 10.474 12.75 10.724 12.75 11 C 12.75 11.276 12.666 11.526 12.53 11.707 C 12.394 11.888 12.207 12 12 12 C 11.793 12 11.606 11.888 11.47 11.707 C 11.334 11.526 11.25 11.276 11.25 11 C 11.25 10.724 11.334 10.474 11.47 10.293 C 11.606 10.112 11.793 10 12 10 Z " stroke-width="1"/>
  <path id="ID0.617730607278645" fill="#FFFFFF" stroke="none" d="M 6.125 4 C 6.297 4 6.454 4.084 6.567 4.22 C 6.68 4.356 6.75 4.543 6.75 4.75 C 6.75 4.957 6.68 5.144 6.567 5.28 C 6.454 5.416 6.297 5.5 6.125 5.5 C 5.953 5.5 5.796 5.416 5.683 5.28 C 5.57 5.144 5.5 4.957 5.5 4.75 C 5.5 4.543 5.57 4.356 5.683 4.22 C 5.796 4.084 5.953 4 6.125 4 Z " stroke-width="1"/>
</svg>