<svg xmlns="http://www.w3.org/2000/svg" xmlns:xlink="http://www.w3.org/1999/xlink" version="1.1" width="23.516660690307617" height="21.174915313720703" viewBox="0.8471121788024902 0.1492549180984497 23.516660690307617 21.174915313720703">
  <!-- Exported by Scratch - http://scratch.mit.edu/ -->
  <path id="ID0.35932795284315944" fill="#FFFFFF" stroke="#000000" stroke-width="1" stroke-linecap="round" d="M 13.85 0.65 C 16.538 0.618 19.547 1.618 21.35 3.4 C 23.112 5.156 23.986 7.893 23.85 10.45 C 23.707 13.111 22.449 15.709 20.186 17.519 C 17.924 19.329 14.47 20.269 11.35 20.45 C 8.819 20.593 6.339 20.019 4.6 18.55 C 2.707 17.149 1.274 14.723 1.35 12.55 C 1.456 9.527 2.361 6.091 4.6 4.05 C 7.09 1.786 10.616 0.848 13.85 0.65 Z "/>
  <path id="ID0.09959578141570091" fill="#000000" stroke="none" stroke-linecap="round" d="M 11.1 3.1 C 12.882 3.51 13.052 6.431 13.6 8 C 14.33 10.093 15.007 12.227 15.1 14.5 C 15.093 16.239 15.054 18.314 13.85 19.75 C 12.836 20.924 10.775 20.903 9.275 20.75 C 7.986 20.622 6.84 19.661 6.005 18.625 C 4.939 17.316 3.698 15.807 3.35 14.1 C 3.121 11.434 2.884 8.285 4.35 6.1 C 5.724 4.051 8.804 2.575 11.1 3.1 Z " stroke-width="1"/>
  <path id="ID0.005726669915020466" fill="#FFFFFF" stroke="none" d="M 13.975 6.3 C 14.63 6.3 15.224 6.594 15.654 7.069 C 16.084 7.545 16.35 8.201 16.35 8.925 C 16.35 9.649 16.084 10.305 15.654 10.781 C 15.224 11.256 14.63 11.55 13.975 11.55 C 13.32 11.55 12.726 11.256 12.296 10.781 C 11.866 10.305 11.6 9.649 11.6 8.925 C 11.6 8.201 11.866 7.545 12.296 7.069 C 12.726 6.594 13.32 6.3 13.975 6.3 Z " stroke-width="1"/>
  <path id="ID0.4668941805139184" fill="#FFFFFF" stroke="none" d="M 5.6 15.8 C 5.945 15.8 6.257 15.954 6.484 16.203 C 6.71 16.452 6.85 16.796 6.85 17.175 C 6.85 17.554 6.71 17.898 6.484 18.147 C 6.257 18.396 5.945 18.55 5.6 18.55 C 5.255 18.55 4.943 18.396 4.716 18.147 C 4.49 17.898 4.35 17.554 4.35 17.175 C 4.35 16.796 4.49 16.452 4.716 16.203 C 4.943 15.954 5.255 15.8 5.6 15.8 Z " stroke-width="1"/>
</svg>