<svg xmlns="http://www.w3.org/2000/svg" xmlns:xlink="http://www.w3.org/1999/xlink" version="1.1" width="42.29883646965027" height="26.519495725631714" viewBox="0.6723763942718506 0.18037641048431396 42.29883646965027 26.519495725631714">
  <!-- Exported by Scratch - http://scratch.mit.edu/ -->
  <g id="ID0.16782232327386737">
    <path id="ID0.6696373913437128" fill="#000000" stroke="none" stroke-linecap="round" d="M 24.6177 1.7813 C 28.2276 1.6841 31.8873 2.5871 35.2528 3.9083 C 37.7384 4.8661 42.4058 5.8324 42.3632 8.6486 C 41.8782 14.1448 37.8928 19.1002 34.0374 23.0516 C 31.7366 25.4084 27.8678 26.1352 24.6177 26.0902 C 21.5304 26.0489 17.7468 25.158 16.2408 22.5278 C 13.6993 18.0926 15.6331 12.5964 14.2864 7.8585 C 13.861 6.3891 10.3313 5.3924 11.6732 4.6984 C 15.3572 2.4364 20.0269 1.9016 24.6177 1.7813 Z " stroke-width="1.215447187423706"/>
    <path id="ID0.5665018181316555" fill="#666666" stroke="none" d="M 29.1452 5.9138 C 30.1091 5.9138 30.983 6.2371 31.615 6.7598 C 32.2483 7.2824 32.6396 8.0044 32.6396 8.8005 C 32.6396 9.5966 32.2483 10.3186 31.615 10.8412 C 30.983 11.3639 30.1091 11.6872 29.1452 11.6872 C 28.1814 11.6872 27.3075 11.3639 26.6754 10.8412 C 26.0422 10.3186 25.6508 9.5966 25.6508 8.8005 C 25.6508 8.0044 26.0422 7.2824 26.6754 6.7598 C 27.3075 6.2371 28.1814 5.9138 29.1452 5.9138 Z " stroke-width="1.215447187423706"/>
    <path id="ID0.48575384356081486" fill="#666666" stroke="none" d="M 35.9821 9.2563 C 36.3176 9.2563 36.6214 9.4435 36.8414 9.7461 C 37.0614 10.0488 37.1976 10.4669 37.1976 10.9275 C 37.1976 11.3882 37.0614 11.8063 36.8414 12.109 C 36.6214 12.4116 36.3176 12.5988 35.9821 12.5988 C 35.6467 12.5988 35.3428 12.4116 35.1228 12.109 C 34.9028 11.8063 34.7667 11.3882 34.7667 10.9275 C 34.7667 10.4669 34.9028 10.0488 35.1228 9.7461 C 35.3428 9.4435 35.6467 9.2563 35.9821 9.2563 Z " stroke-width="1.215447187423706"/>
  </g>
  <path id="ID0.20949188666418195" fill="#000000" stroke="none" stroke-linecap="round" d="M 3.2473 0.7881 L 16.3636 4.4638 L 14.9089 12.4201 L 1.2801 7.7516 L 3.2473 0.7881 Z " stroke-width="1.215447112751128"/>
</svg>