<svg xmlns="http://www.w3.org/2000/svg" xmlns:xlink="http://www.w3.org/1999/xlink" version="1.1" width="27.262266159057617" height="23.38069725036621" viewBox="1.2769626379013062 -0.029073238372802734 27.262266159057617 23.38069725036621">
  <!-- Exported by Scratch - http://scratch.mit.edu/ -->
  <path id="ID0.35932795284315944" fill="#FFFFFF" stroke="#000000" stroke-width="1" stroke-linecap="round" d="M 18.15 0.6 C 21.551 1.131 24.8 3.937 27.15 6.85 C 28.304 8.217 28.089 10.582 27.85 12.45 C 27.472 15.429 26.442 18.541 25.4 21.6 C 25.134 22.218 25.945 22.889 24.15 22.85 C 16.954 22.693 9.564 21.756 2.65 20.6 C 0.922 20.311 2.219 20.684 2.65 19.35 C 4.373 14.012 5.136 7.743 8.65 3.6 C 10.798 1.072 14.871 0.094 18.15 0.6 Z "/>
  <path id="ID0.005726669915020466" fill="#FFFFFF" stroke="none" d="M 17.975 8.3 C 18.63 8.3 19.224 8.594 19.654 9.069 C 20.084 9.545 20.35 10.201 20.35 10.925 C 20.35 11.649 20.084 12.305 19.654 12.781 C 19.224 13.256 18.63 13.55 17.975 13.55 C 17.32 13.55 16.726 13.256 16.296 12.781 C 15.866 12.305 15.6 11.649 15.6 10.925 C 15.6 10.201 15.866 9.545 16.296 9.069 C 16.726 8.594 17.32 8.3 17.975 8.3 Z " stroke-width="1"/>
  <path id="ID0.9467235687188804" fill="#000000" stroke="none" stroke-linecap="round" d="M 12.1 2.35 C 13.962 2.35 15.65 3.429 16.872 5.171 C 18.094 6.913 18.697 9.621 18.85 11.975 C 19.061 15.301 18.459 18.914 17.6 22.35 C 17.522 23.131 17.097 22.112 16.6 22.1 C 15.105 22.003 13.422 21.781 12.1 21.6 C 9.266 21.213 5.256 22.693 3.6 20.35 C 1.904 18.043 4.257 14.641 4.85 11.85 C 5.51 9.562 5.974 7.012 7.328 5.171 C 8.471 3.61 10.238 2.35 12.1 2.35 Z " stroke-width="1"/>
  <path id="ID0.6756742880679667" fill="#FFFFFF" stroke="none" d="M 10.15 4.65 C 10.84 4.65 11.465 4.972 11.917 5.493 C 12.37 6.013 12.65 6.732 12.65 7.525 C 12.65 8.318 12.37 9.037 11.917 9.557 C 11.465 10.078 10.84 10.4 10.15 10.4 C 9.46 10.4 8.835 10.078 8.383 9.557 C 7.93 9.037 7.65 8.318 7.65 7.525 C 7.65 6.732 7.93 6.013 8.383 5.493 C 8.835 4.972 9.46 4.65 10.15 4.65 Z " stroke-width="1"/>
  <path id="ID0.7902789879590273" fill="#FFFFFF" stroke="none" d="M 16.025 16.9 C 16.404 16.9 16.748 17.068 16.997 17.34 C 17.246 17.611 17.4 17.986 17.4 18.4 C 17.4 18.814 17.246 19.189 16.997 19.46 C 16.748 19.732 16.404 19.9 16.025 19.9 C 15.646 19.9 15.302 19.732 15.053 19.46 C 14.804 19.189 14.65 18.814 14.65 18.4 C 14.65 17.986 14.804 17.611 15.053 17.34 C 15.302 17.068 15.646 16.9 16.025 16.9 Z " stroke-width="1"/>
</svg>