<svg xmlns="http://www.w3.org/2000/svg" xmlns:xlink="http://www.w3.org/1999/xlink" version="1.1" width="25.60980796813965" height="23.49979591369629" viewBox="-0.3787999898195267 -0.4805999994277954 25.60980796813965 23.49979591369629">
  <defs>
    <linearGradient id="grad_1" x2="1">
      <stop offset="0" stop-color="#000000" stop-opacity="1"/>
      <stop offset="1" stop-color="#FFFFFF" stop-opacity="1"/>
    </linearGradient>
  <linearGradient id="grad_1-,0,0,1,-211.75,-175.75" x2="23.9404" x1="16.2794" y1="3.4903" y2="3.4903" gradientUnits="userSpaceOnUse">
      <stop offset="0" stop-color="#000000" stop-opacity="1"/>
      <stop offset="1" stop-color="#FFFFFF" stop-opacity="1"/>
    </linearGradient></defs>
  <!-- Exported by Scratch - http://scratch.mit.edu/ -->
  <path id="ID0.5853018658235669" fill="#000000" stroke="none" stroke-linecap="round" d="M 13.1136 0.0194 C 16.3186 0.0194 19.2226 1.4417 21.3246 3.739 C 23.4274 6.0363 24.786 9.4987 24.7293 12.7106 C 24.6828 15.0673 22.7064 16.4741 21.2015 17.658 C 19.3103 19.6224 17.093 21.5222 14.7484 21.9601 C 11.5304 22.5659 7.8702 22.9367 4.9026 21.6822 C 2.8083 20.7865 0.2623 18.9358 0.1212 16.7976 C 0.2623 12.0816 2.249 7.1093 4.9026 3.739 C 6.7706 1.3832 9.9085 0.0194 13.1136 0.0194 Z " stroke-width="0.8604206442832947"/>
  <path id="ID0.7961966712027788" fill="#FFFFFF" stroke="none" d="M 5.625 11 C 6.487 11 7.268 11.35 7.834 11.916 C 8.4 12.482 8.75 13.263 8.75 14.125 C 8.75 14.987 8.4 15.768 7.834 16.334 C 7.268 16.9 6.487 17.25 5.625 17.25 C 4.763 17.25 3.982 16.9 3.416 16.334 C 2.85 15.768 2.5 14.987 2.5 14.125 C 2.5 13.263 2.85 12.482 3.416 11.916 C 3.982 11.35 4.763 11 5.625 11 Z " stroke-width="1"/>
  <path id="ID0.01434624707326293" fill="#FFFFFF" stroke="none" d="M 20.875 11.5 C 21.254 11.5 21.598 11.654 21.847 11.903 C 22.096 12.152 22.25 12.496 22.25 12.875 C 22.25 13.254 22.096 13.598 21.847 13.847 C 21.598 14.096 21.254 14.25 20.875 14.25 C 20.496 14.25 20.152 14.096 19.903 13.847 C 19.654 13.598 19.5 13.254 19.5 12.875 C 19.5 12.496 19.654 12.152 19.903 11.903 C 20.152 11.654 20.496 11.5 20.875 11.5 Z " stroke-width="1"/>
  <path id="ID0.8579774918034673" fill="url(#grad_1-,0,0,1,-211.75,-175.75)" stroke="none" stroke-linecap="round" d="M 16.75 3.5 C 18.335 3.902 20.575 4.938 21.907 6.332 C 22.916 7.393 23.375 8.896 23.75 10.25 C 23.923 11.357 24.168 12.704 23.5 13.5 C 21.647 15.809 18.498 18.517 16.5 19 C 15.587 19.215 17.801 16.375 17.843 15.168 C 17.884 13.674 17.028 12.25 17 10.75 C 16.967 8.91 17.798 7.055 17.75 5.25 C 17.711 4.536 16.213 3.372 16.75 3.5 Z " stroke-width="1"/>
  <path id="ID0.40296974778175354" fill="#FFFFFF" stroke="none" d="M 5.875 7.75 C 6.875 7.75 7.781 8.338 8.438 9.289 C 9.094 10.239 9.5 11.552 9.5 13 C 9.5 14.448 9.094 15.761 8.438 16.711 C 7.781 17.662 6.875 18.25 5.875 18.25 C 4.875 18.25 3.969 17.662 3.312 16.711 C 2.656 15.761 2.25 14.448 2.25 13 C 2.25 11.552 2.656 10.239 3.312 9.289 C 3.969 8.338 4.875 7.75 5.875 7.75 Z " stroke-width="1"/>
  <path id="ID0.19520784635096788" fill="#FFFFFF" stroke="none" d="M 12.625 4.25 C 13.142 4.25 13.611 4.46 13.95 4.8 C 14.29 5.139 14.5 5.608 14.5 6.125 C 14.5 6.642 14.29 7.111 13.95 7.45 C 13.611 7.79 13.142 8 12.625 8 C 12.108 8 11.639 7.79 11.3 7.45 C 10.96 7.111 10.75 6.642 10.75 6.125 C 10.75 5.608 10.96 5.139 11.3 4.8 C 11.639 4.46 12.108 4.25 12.625 4.25 Z " stroke-width="1"/>
  <path id="ID0.06145833618938923" fill="#FFFFFF" stroke="none" d="M 10.375 16.75 C 10.547 16.75 10.704 16.848 10.817 17.006 C 10.93 17.165 11 17.384 11 17.625 C 11 17.866 10.93 18.085 10.817 18.244 C 10.704 18.402 10.547 18.5 10.375 18.5 C 10.203 18.5 10.046 18.402 9.933 18.244 C 9.82 18.085 9.75 17.866 9.75 17.625 C 9.75 17.384 9.82 17.165 9.933 17.006 C 10.046 16.848 10.203 16.75 10.375 16.75 Z " stroke-width="1"/>
</svg>