<svg xmlns="http://www.w3.org/2000/svg" xmlns:xlink="http://www.w3.org/1999/xlink" version="1.1" width="24.371206164360046" height="21.676509737968445" viewBox="0.41983944177627563 0.47198206186294556 24.371206164360046 21.676509737968445">
  <!-- Exported by Scratch - http://scratch.mit.edu/ -->
  <path id="ID0.35932795284315944" fill="#FFFFFF" stroke="#000000" stroke-width="1" stroke-linecap="round" d="M 13.85 1.4 C 16.538 1.368 19.547 2.368 21.35 4.15 C 23.112 5.906 23.986 8.643 23.85 11.2 C 23.707 13.861 22.449 16.459 20.186 18.269 C 17.924 20.079 14.47 21.019 11.35 21.2 C 8.819 21.343 6.339 20.769 4.6 19.3 C 2.707 17.899 1.274 15.473 1.35 13.3 C 1.456 10.277 2.361 6.841 4.6 4.8 C 7.09 2.536 10.616 1.598 13.85 1.4 Z "/>
  <path id="ID0.09959578141570091" fill="#000000" stroke="none" stroke-linecap="round" d="M 12.05 4.1 C 14.466 4.137 17.53 4.971 19 7 C 20.823 9.52 21.752 13.34 20.75 16.5 C 20.098 18.754 17.026 19.718 14.8 20.75 C 13.524 21.344 12.07 21.058 10.75 20.75 C 9.414 20.681 7.905 20.554 6.955 19.625 C 5.716 18.419 4.648 16.807 4.3 15.1 C 4.071 12.434 3.834 9.285 5.3 7.1 C 6.674 5.051 9.593 4.058 12.05 4.1 Z " stroke-width="1"/>
  <path id="ID0.005726669915020466" fill="#FFFFFF" stroke="none" d="M 15.1674 2.8662 C 16.2466 2.8662 17.2252 3.3506 17.9337 4.1332 C 18.6422 4.9175 19.0805 5.9983 19.0805 7.1912 C 19.0805 8.3841 18.6422 9.4649 17.9337 10.2492 C 17.2252 11.0318 16.2466 11.5162 15.1674 11.5162 C 14.0882 11.5162 13.1095 11.0318 12.401 10.2492 C 11.6925 9.4649 11.2543 8.3841 11.2543 7.1912 C 11.2543 5.9983 11.6925 4.9175 12.401 4.1332 C 13.1095 3.3506 14.0882 2.8662 15.1674 2.8662 Z " stroke-width="1.6476190090179443"/>
  <path id="ID0.4668941805139184" fill="#FFFFFF" stroke="none" d="M 6.9736 14.4691 C 7.6135 14.4691 8.1921 14.7547 8.6131 15.2165 C 9.0322 15.6783 9.2918 16.3162 9.2918 17.0191 C 9.2918 17.722 9.0322 18.3599 8.6131 18.8217 C 8.1921 19.2835 7.6135 19.5691 6.9736 19.5691 C 6.3338 19.5691 5.7552 19.2835 5.3342 18.8217 C 4.9151 18.3599 4.6555 17.722 4.6555 17.0191 C 4.6555 16.3162 4.9151 15.6783 5.3342 15.2165 C 5.7552 14.7547 6.3338 14.4691 6.9736 14.4691 Z " stroke-width="1.8545454740524292"/>
</svg>