<svg xmlns="http://www.w3.org/2000/svg" xmlns:xlink="http://www.w3.org/1999/xlink" version="1.1" width="25.820905685424805" height="24.267671585083008" viewBox="0.41292762756347656 -0.2484768033027649 25.820905685424805 24.267671585083008">
  <!-- Exported by Scratch - http://scratch.mit.edu/ -->
  <path id="ID0.5853018658235669" fill="#000000" stroke="none" stroke-linecap="round" d="M 19.7493 0.5032 C 20.0892 0.4567 20.3817 -0.1757 20.7388 0.7613 C 22.7402 5.0341 25.4677 9.2683 25.7293 13.7106 C 25.8454 15.73 23.7064 17.4741 22.2015 18.658 C 20.3103 20.6224 18.093 22.5222 15.7484 22.9601 C 12.5304 23.5659 8.8702 23.9367 5.9026 22.6822 C 3.8083 21.7865 -0.0206 19.7654 1.1212 17.7976 C 5.148 10.8686 12.8935 6.5519 18.975 1.0194 C 20.3396 -0.3607 19.277 0.5711 19.7493 0.5032 Z " stroke-width="0.8604206442832947"/>
  <path id="ID0.35878961998969316" fill="#FFFFFF" stroke="none" stroke-linecap="round" d="M 4.4 15.6 C 6.55 13.828 8.811 11.736 10.8 10.2 C 11.304 9.811 9.704 11.095 9.2 11.6 C 9.081 11.72 9.219 11.239 9.2 11.7 C 9.124 13.827 9.602 16.047 8.971 17.974 C 8.727 18.72 7.667 19 6.85 19 C 6.033 19 5.254 18.557 4.729 17.974 C 4.218 17.407 4.242 16.654 4.2 16 C 4.122 15.79 3.861 16.041 4.4 15.6 Z " stroke-width="1"/>
</svg>