<svg xmlns="http://www.w3.org/2000/svg" xmlns:xlink="http://www.w3.org/1999/xlink" version="1.1" width="24.542160034179688" height="22.9718074798584" viewBox="0.0572504997253418 -0.021806955337524414 24.542160034179688 22.9718074798584">
  <!-- Exported by Scratch - http://scratch.mit.edu/ -->
  <path id="ID0.35932795284315944" fill="#FFFFFF" stroke="#000000" stroke-width="1" stroke-linecap="round" d="M 14.15 0.6 C 17.551 1.131 20.8 3.937 23.15 6.85 C 24.304 8.217 24.228 10.426 23.85 12.45 C 23.346 15.051 22.449 17.709 20.186 19.519 C 17.924 21.329 14.799 22.45 11.35 22.45 C 7.901 22.45 5.004 21.357 2.514 19.519 C 0.968 18.376 0.386 16.309 0.6 14.55 C 1.077 10.622 1.95 6.352 4.65 3.6 C 6.976 1.178 10.871 0.094 14.15 0.6 Z "/>
  <path id="ID0.005726669915020466" fill="#FFFFFF" stroke="none" d="M 13.975 8.3 C 14.63 8.3 15.224 8.594 15.654 9.069 C 16.084 9.545 16.35 10.201 16.35 10.925 C 16.35 11.649 16.084 12.305 15.654 12.781 C 15.224 13.256 14.63 13.55 13.975 13.55 C 13.32 13.55 12.726 13.256 12.296 12.781 C 11.866 12.305 11.6 11.649 11.6 10.925 C 11.6 10.201 11.866 9.545 12.296 9.069 C 12.726 8.594 13.32 8.3 13.975 8.3 Z " stroke-width="1"/>
  <path id="ID0.9467235687188804" fill="#000000" stroke="none" stroke-linecap="round" d="M 8.1 2.35 C 9.962 2.35 11.65 3.429 12.872 5.171 C 14.094 6.913 14.85 9.32 14.85 11.975 C 14.85 14.63 14.094 17.037 12.872 18.779 C 11.65 20.521 9.943 21.703 8.1 21.6 C 5.723 21.465 2.907 20.145 1.35 18.1 C 0.301 16.429 1.117 14.045 1.35 11.975 C 1.619 9.621 2.106 6.913 3.328 5.171 C 4.55 3.429 6.238 2.35 8.1 2.35 Z " stroke-width="1"/>
  <path id="ID0.6756742880679667" fill="#FFFFFF" stroke="none" d="M 6.15 4.65 C 6.84 4.65 7.465 4.972 7.917 5.493 C 8.37 6.013 8.65 6.732 8.65 7.525 C 8.65 8.318 8.37 9.037 7.917 9.557 C 7.465 10.078 6.84 10.4 6.15 10.4 C 5.46 10.4 4.835 10.078 4.383 9.557 C 3.93 9.037 3.65 8.318 3.65 7.525 C 3.65 6.732 3.93 6.013 4.383 5.493 C 4.835 4.972 5.46 4.65 6.15 4.65 Z " stroke-width="1"/>
  <path id="ID0.7902789879590273" fill="#FFFFFF" stroke="none" d="M 12.025 16.9 C 12.404 16.9 12.748 17.068 12.997 17.34 C 13.246 17.611 13.4 17.986 13.4 18.4 C 13.4 18.814 13.246 19.189 12.997 19.46 C 12.748 19.732 12.404 19.9 12.025 19.9 C 11.646 19.9 11.302 19.732 11.053 19.46 C 10.804 19.189 10.65 18.814 10.65 18.4 C 10.65 17.986 10.804 17.611 11.053 17.34 C 11.302 17.068 11.646 16.9 12.025 16.9 Z " stroke-width="1"/>
</svg>