<svg xmlns="http://www.w3.org/2000/svg" xmlns:xlink="http://www.w3.org/1999/xlink" version="1.1" width="25.818288803100586" height="18.79568862915039" viewBox="0.6107387542724609 0.5963326692581177 25.818288803100586 18.79568862915039">
  <!-- Exported by Scratch - http://scratch.mit.edu/ -->
  <path id="ID0.35932795284315944" fill="#FFFFFF" stroke="#000000" stroke-width="1" stroke-linecap="round" d="M 20.65 1.1 C 23.825 0.937 24.787 6.246 25.9 9.35 C 26.19 10.178 24.213 11.404 24.15 11.35 C 24.087 11.294 25.441 9.46 25.15 8.6 C 24.257 6.012 21.221 1.351 21.186 1.381 C 21.151 1.413 24.85 5.718 24.85 8.45 C 24.85 11.182 23.449 13.709 21.186 15.519 C 18.924 17.329 15.799 18.45 12.35 18.45 C 8.901 18.45 6.004 17.357 3.514 15.519 C 1.968 14.376 0.247 11.7 1.6 10.55 C 6.96 5.995 13.511 1.447 20.65 1.1 Z "/>
  <path id="ID0.09959578141570091" fill="#000000" stroke="none" stroke-linecap="round" d="M 10.9 4.15 C 11.302 3.97 11.324 3.767 11.65 4.4 C 13.05 6.916 14.97 9.339 14.9 12.15 C 15.063 14.554 13.391 16.718 11.9 18.65 C 11.539 19.12 10.954 18.763 10.275 18.75 C 10.104 18.747 10.572 18.885 10.4 18.4 C 9.129 16.259 7.087 14.394 6.65 12.15 C 6.286 10.243 6.661 8.074 7.65 6.4 C 8.306 5.262 9.709 4.708 10.9 4.15 Z " stroke-width="1"/>
</svg>