<svg xmlns="http://www.w3.org/2000/svg" xmlns:xlink="http://www.w3.org/1999/xlink" version="1.1" width="28.44145965576172" height="19.394765853881836" viewBox="1.6259946823120117 1.6281540393829346 28.44145965576172 19.394765853881836">
  <!-- Exported by Scratch - http://scratch.mit.edu/ -->
  <path id="ID0.35932795284315944" fill="#FFFFFF" stroke="#000000" stroke-width="0.8782380048187114" stroke-linecap="round" d="M 21.4021 19.5988 C 24.6239 18.4413 27.315 15.687 29.1129 13.0613 C 30.0064 11.8174 29.3993 10.1704 28.8524 8.8854 C 27.9833 6.8353 26.457 4.8387 24.9279 2.8829 C 24.565 2.5005 25.2417 1.8341 23.5007 2.2719 C 16.5213 4.0278 9.4842 6.3874 2.9473 8.7954 C 1.3136 9.3972 2.5136 8.8335 3.1576 9.6918 C 5.733 13.1265 7.5304 17.4481 11.6484 19.6168 C 14.1649 20.9392 18.2948 20.7105 21.4021 19.5988 Z "/>
  <path id="ID0.005726669915020466" fill="#FFFFFF" stroke="none" d="M 20.0724 14.0954 C 20.7101 13.9458 21.2389 13.5993 21.5777 13.1605 C 21.9162 12.7209 22.0648 12.1897 21.9431 11.6705 C 21.8213 11.1513 21.4519 10.7416 20.9532 10.4984 C 20.4547 10.256 19.8269 10.1808 19.1892 10.3303 C 18.5516 10.4799 18.0227 10.8264 17.684 11.2653 C 17.3454 11.7048 17.1968 12.236 17.3186 12.7552 C 17.4404 13.2744 17.8097 13.6842 18.3084 13.9273 C 18.8069 14.1698 19.4347 14.245 20.0724 14.0954 Z " stroke-width="0.8782380048187114"/>
  <path id="ID0.9467235687188804" fill="#000000" stroke="none" stroke-linecap="round" d="M 15.1342 19.6478 C 16.947 19.2226 18.4089 18.0633 19.3056 16.535 C 20.2023 15.0067 20.3338 12.9269 20.0868 11.2038 C 19.7327 8.7704 18.5389 6.3168 17.1246 4.0488 C 16.9172 3.5065 16.6749 4.3344 16.193 4.4565 C 14.7539 4.8674 13.1527 5.411 11.8961 5.8427 C 9.202 6.7674 5.049 6.6217 3.8309 8.6802 C 2.5678 10.722 5.4309 12.6244 6.4777 14.4905 C 7.5052 15.9807 8.3859 17.7034 10.0138 18.7145 C 11.3892 19.573 13.3214 20.0731 15.1342 19.6478 Z " stroke-width="0.8782380048187114"/>
  <path id="ID0.6756742880679667" fill="#FFFFFF" stroke="none" d="M 13.0069 18.4258 C 13.6787 18.2683 14.233 17.8946 14.5854 17.4178 C 14.939 16.9414 15.0906 16.3618 14.9572 15.7931 C 14.8238 15.2244 14.4303 14.7727 13.9018 14.5033 C 13.3741 14.2328 12.7114 14.1447 12.0396 14.3022 C 11.3679 14.4598 10.8136 14.8334 10.4611 15.3103 C 10.1076 15.7867 9.9559 16.3662 10.0893 16.9349 C 10.2227 17.5036 10.6163 17.9553 11.1448 18.2248 C 11.6725 18.4952 12.3351 18.5834 13.0069 18.4258 Z " stroke-width="0.8782380048187114"/>
  <path id="ID0.7902789879590273" fill="#FFFFFF" stroke="none" d="M 16.666 8.2991 C 17.035 8.2125 17.3416 8.0135 17.5383 7.7616 C 17.7351 7.5104 17.822 7.2063 17.7523 6.9094 C 17.6827 6.6125 17.4697 6.3787 17.1817 6.2412 C 16.8935 6.103 16.5303 6.0611 16.1613 6.1476 C 15.7924 6.2342 15.4857 6.4332 15.289 6.6852 C 15.0922 6.9364 15.0054 7.2405 15.075 7.5374 C 15.1446 7.8343 15.3577 8.068 15.6457 8.2055 C 15.9338 8.3437 16.297 8.3856 16.666 8.2991 Z " stroke-width="0.8782380048187114"/>
</svg>