<svg xmlns="http://www.w3.org/2000/svg" xmlns:xlink="http://www.w3.org/1999/xlink" version="1.1" width="24.701597213745117" height="19.40083122253418" viewBox="0.4499988555908203 0.4991680383682251 24.701597213745117 19.40083122253418">
  <!-- Exported by Scratch - http://scratch.mit.edu/ -->
  <path id="ID0.35932795284315944" fill="#FFFFFF" stroke="#000000" stroke-width="1" stroke-linecap="round" d="M 1.7 1 C 1.299 1.012 4.742 1.402 4.614 2.331 C 4.223 4.945 0.95 6.668 0.95 9.4 C 0.95 12.132 2.351 14.659 4.614 16.469 C 6.876 18.279 10.001 19.4 13.45 19.4 C 16.899 19.4 19.796 18.307 22.286 16.469 C 23.832 15.326 25.464 12.743 24.2 11.5 C 19.779 7.154 13.379 4.974 7.7 2.25 C 5.989 1.432 2.611 0.977 1.7 1 Z "/>
  <path id="ID0.09959578141570091" fill="#000000" stroke="none" stroke-linecap="round" d="M 11.3 4 C 12.181 3.975 12.724 5.357 13.05 6.25 C 13.742 8.245 14.457 10.477 14.55 12.75 C 14.543 14.489 14.504 16.564 13.3 18 C 12.286 19.174 10.225 19.153 8.725 19 C 7.436 18.872 6.293 18.188 5.455 16.875 C 4.618 15.563 4.1 13.75 4.1 11.75 C 4.1 9.75 4.278 7.934 5.455 6.625 C 6.765 5.175 9.155 4.102 11.3 4 Z " stroke-width="1"/>
  <path id="ID0.005726669915020466" fill="#FFFFFF" stroke="none" d="M 13.425 6.1 C 14.08 6.1 14.674 6.394 15.104 6.869 C 15.534 7.345 15.8 8.001 15.8 8.725 C 15.8 9.449 15.534 10.105 15.104 10.581 C 14.674 11.056 14.08 11.35 13.425 11.35 C 12.77 11.35 12.176 11.056 11.746 10.581 C 11.316 10.105 11.05 9.449 11.05 8.725 C 11.05 8.001 11.316 7.345 11.746 6.869 C 12.176 6.394 12.77 6.1 13.425 6.1 Z " stroke-width="1"/>
  <path id="ID0.4668941805139184" fill="#FFFFFF" stroke="none" d="M 5.35 13.45 C 5.695 13.45 6.007 13.604 6.234 13.853 C 6.46 14.102 6.6 14.446 6.6 14.825 C 6.6 15.204 6.46 15.548 6.234 15.797 C 6.007 16.046 5.695 16.2 5.35 16.2 C 5.005 16.2 4.693 16.046 4.466 15.797 C 4.24 15.548 4.1 15.204 4.1 14.825 C 4.1 14.446 4.24 14.102 4.466 13.853 C 4.693 13.604 5.005 13.45 5.35 13.45 Z " stroke-width="1"/>
</svg>