<svg xmlns="http://www.w3.org/2000/svg" xmlns:xlink="http://www.w3.org/1999/xlink" version="1.1" width="24.701595306396484" height="19.77500343322754" viewBox="0.6484043598175049 0.5491679906845093 24.701595306396484 19.77500343322754">
  <!-- Exported by Scratch - http://scratch.mit.edu/ -->
  <g id="ID0.33466696878895164">
    <path id="ID0.35932795284315944" fill="#FFFFFF" stroke="#000000" stroke-width="1" stroke-linecap="round" d="M 24.1 1.05 C 24.501 1.062 21.058 1.452 21.186 2.381 C 21.577 4.995 24.85 6.718 24.85 9.45 C 24.85 12.182 23.449 14.709 21.186 16.519 C 18.924 18.329 15.799 19.45 12.35 19.45 C 8.901 19.45 6.004 18.357 3.514 16.519 C 1.968 15.376 0.336 12.793 1.6 11.55 C 6.021 7.204 12.421 5.024 18.1 2.3 C 19.811 1.482 23.189 1.027 24.1 1.05 Z "/>
    <path id="ID0.09959578141570091" fill="#000000" stroke="none" stroke-linecap="round" d="M 12.85 4.75 C 13.731 4.725 14.274 6.107 14.6 7 C 15.292 8.995 16.007 11.227 16.1 13.5 C 16.093 15.239 16.054 17.314 14.85 18.75 C 13.836 19.924 11.775 19.903 10.275 19.75 C 8.986 19.622 7.843 18.938 7.005 17.625 C 6.168 16.313 5.65 14.5 5.65 12.5 C 5.65 10.5 5.828 8.684 7.005 7.375 C 8.315 5.925 10.705 4.852 12.85 4.75 Z " stroke-width="1"/>
    <path id="ID0.005726669915020466" fill="#FFFFFF" stroke="none" d="M 14.975 5.3 C 15.63 5.3 16.224 5.594 16.654 6.069 C 17.084 6.545 17.35 7.201 17.35 7.925 C 17.35 8.649 17.084 9.305 16.654 9.781 C 16.224 10.256 15.63 10.55 14.975 10.55 C 14.32 10.55 13.726 10.256 13.296 9.781 C 12.866 9.305 12.6 8.649 12.6 7.925 C 12.6 7.201 12.866 6.545 13.296 6.069 C 13.726 5.594 14.32 5.3 14.975 5.3 Z " stroke-width="1"/>
    <path id="ID0.4668941805139184" fill="#FFFFFF" stroke="none" d="M 6.6 14.8 C 6.945 14.8 7.257 14.954 7.484 15.203 C 7.71 15.452 7.85 15.796 7.85 16.175 C 7.85 16.554 7.71 16.898 7.484 17.147 C 7.257 17.396 6.945 17.55 6.6 17.55 C 6.255 17.55 5.943 17.396 5.716 17.147 C 5.49 16.898 5.35 16.554 5.35 16.175 C 5.35 15.796 5.49 15.452 5.716 15.203 C 5.943 14.954 6.255 14.8 6.6 14.8 Z " stroke-width="1"/>
  </g>
</svg>