<svg xmlns="http://www.w3.org/2000/svg" xmlns:xlink="http://www.w3.org/1999/xlink" version="1.1" width="27.366235352257355" height="24.27166709969388" viewBox="-0.4072053912776039 -1.3740664008753822 27.366235352257355 24.27166709969388">
  <defs>
    <linearGradient id="grad_1" x2="1">
      <stop offset="0" stop-color="#000000" stop-opacity="1"/>
      <stop offset="1" stop-color="#FFFFFF" stop-opacity="1"/>
    </linearGradient>
  <linearGradient id="grad_1-,0,0,1,-210.95,-176.55" x2="24.7404" x1="17.0794" y1="2.6903" y2="2.6903" gradientUnits="userSpaceOnUse">
      <stop offset="0" stop-color="#000000" stop-opacity="1"/>
      <stop offset="1" stop-color="#FFFFFF" stop-opacity="1"/>
    </linearGradient></defs>
  <!-- Exported by Scratch - http://scratch.mit.edu/ -->
  <path id="ID0.5853018658235669" fill="#000000" stroke="none" stroke-linecap="round" d="M 9.0592 0.0089 C 13.4224 0.3066 17.9094 1.0784 21.3202 3.4936 C 23.8902 5.3142 25.4794 8.7731 25.5792 11.7106 C 25.6429 13.7317 23.5564 15.4741 22.0515 16.658 C 20.1603 18.6224 17.943 20.5222 15.5984 20.9601 C 12.3804 21.5659 8.7202 21.9367 5.7526 20.6822 C 3.6583 19.7865 1.1123 17.9357 0.9712 15.7976 C 1.1123 11.0816 3.5697 6.8174 5.7526 2.739 C 6.5175 1.3339 7.6352 -0.0866 9.0592 0.0089 Z " stroke-width="0.8604205846786499"/>
  <path id="ID0.01434624707326293" fill="#FFFFFF" stroke="none" d="M 21.825 10.5 C 22.204 10.5 22.548 10.654 22.797 10.903 C 23.046 11.152 23.2 11.496 23.2 11.875 C 23.2 12.254 23.046 12.598 22.797 12.847 C 22.548 13.096 22.204 13.25 21.825 13.25 C 21.446 13.25 21.102 13.096 20.853 12.847 C 20.604 12.598 20.45 12.254 20.45 11.875 C 20.45 11.496 20.604 11.152 20.853 10.903 C 21.102 10.654 21.446 10.5 21.825 10.5 Z " stroke-width="1"/>
  <path id="ID0.8579774918034673" fill="url(#grad_1-,0,0,1,-210.95,-176.55)" stroke="none" stroke-linecap="round" d="M 17.55 2.7 C 19.135 3.102 21.375 4.138 22.707 5.532 C 23.716 6.593 24.175 8.096 24.55 9.45 C 24.723 10.557 24.968 11.904 24.3 12.7 C 22.447 15.009 19.298 17.717 17.3 18.2 C 16.387 18.415 18.601 15.575 18.643 14.368 C 18.684 12.874 17.828 11.45 17.8 9.95 C 17.767 8.11 18.598 6.255 18.55 4.45 C 18.511 3.736 17.013 2.572 17.55 2.7 Z " stroke-width="1"/>
  <path id="ID0.19520784635096788" fill="#FFFFFF" stroke="none" d="M 17.275 3.5 C 17.792 3.5 18.261 3.71 18.6 4.05 C 18.94 4.389 19.15 4.858 19.15 5.375 C 19.15 5.892 18.94 6.361 18.6 6.7 C 18.261 7.04 17.792 7.25 17.275 7.25 C 16.758 7.25 16.289 7.04 15.95 6.7 C 15.61 6.361 15.4 5.892 15.4 5.375 C 15.4 4.858 15.61 4.389 15.95 4.05 C 16.289 3.71 16.758 3.5 17.275 3.5 Z " stroke-width="1"/>
  <path id="ID0.06145833618938923" fill="#FFFFFF" stroke="none" d="M 14.285 12.9542 C 14.7873 12.9542 15.2457 13.2073 15.5757 13.6155 C 15.9056 14.0262 16.11 14.592 16.11 15.2146 C 16.11 15.8372 15.9056 16.4029 15.5757 16.8137 C 15.2457 17.2218 14.7873 17.475 14.285 17.475 C 13.7828 17.475 13.3243 17.2218 12.9944 16.8137 C 12.6644 16.4029 12.46 15.8372 12.46 15.2146 C 12.46 14.592 12.6644 14.0262 12.9944 13.6155 C 13.3243 13.2073 13.7828 12.9542 14.285 12.9542 Z " stroke-width="2.756810761192903"/>
  <path id="ID0.9122844291850924" fill="#FFFFFF" stroke="none" d="M 4.7 14.5 C 4.907 14.5 5.094 14.612 5.23 14.793 C 5.366 14.974 5.45 15.224 5.45 15.5 C 5.45 15.776 5.366 16.026 5.23 16.207 C 5.094 16.388 4.907 16.5 4.7 16.5 C 4.493 16.5 4.306 16.388 4.17 16.207 C 4.034 16.026 3.95 15.776 3.95 15.5 C 3.95 15.224 4.034 14.974 4.17 14.793 C 4.306 14.612 4.493 14.5 4.7 14.5 Z " stroke-width="1"/>
  <path id="ID0.617730607278645" fill="#FFFFFF" stroke="none" d="M 7.075 4 C 7.247 4 7.404 4.084 7.517 4.22 C 7.63 4.356 7.7 4.543 7.7 4.75 C 7.7 4.957 7.63 5.144 7.517 5.28 C 7.404 5.416 7.247 5.5 7.075 5.5 C 6.903 5.5 6.746 5.416 6.633 5.28 C 6.52 5.144 6.45 4.957 6.45 4.75 C 6.45 4.543 6.52 4.356 6.633 4.22 C 6.746 4.084 6.903 4 7.075 4 Z " stroke-width="1"/>
</svg>