<svg xmlns="http://www.w3.org/2000/svg" xmlns:xlink="http://www.w3.org/1999/xlink" version="1.1" width="28.18805928830117" height="14.769859749116598" viewBox="2.151715537886769 5.354140064101369 28.18805928830117 14.769859749116598">
  <!-- Exported by Scratch - http://scratch.mit.edu/ -->
  <path id="ID0.35932795284315944" fill="#FFFFFF" stroke="#000000" stroke-width="1.4117531359574185" stroke-linecap="round" d="M 12.2954 19.3438 C 9.655 19.6516 7.1886 18.9535 5.0993 18.1664 C 3.9388 17.7296 3.6423 16.5049 3.2708 15.5057 C 2.8148 14.2588 2.7797 10.8497 2.9562 11.1056 C 3.1327 11.3615 2.8297 15.6825 4.3364 17.1723 C 5.775 18.6007 8.3463 19.582 11.0979 19.3852 C 13.9363 19.099 17.5659 17.8829 19.5539 15.858 C 22.3847 12.9459 23.7729 6.0316 23.8353 6.0601 C 23.8975 6.0881 22.9252 12.8339 20.2953 15.8041 C 18.5652 17.7496 15.0691 18.8098 12.2954 19.3438 Z "/>
  <path id="ID0.6886064512655139" fill="#000000" stroke="none" stroke-linecap="round" d="M 21.8275 11.6146 C 23.9057 11.1305 26.0872 10.8199 28.2112 11.0392 C 28.8095 11.1011 29.9683 12.1375 29.5417 12.2674 C 28.5441 12.5712 26.9737 11.7567 25.6782 11.7811 C 24.5508 11.8046 23.6249 12.37 22.6232 12.2876 C 22.2299 12.3099 21.3067 11.7359 21.8275 11.6146 Z " stroke-width="0.5725806073174128"/>
  <path id="ID0.6886064512655139" fill="#000000" stroke="none" stroke-linecap="round" d="M 22.3651 10.2663 C 23.917 9.0228 25.6256 7.8836 27.4992 7.2129 C 28.027 7.0241 29.4182 7.4288 29.1119 7.7097 C 28.3957 8.3666 26.7478 8.3142 25.6687 8.8562 C 24.7306 9.3298 24.18 10.1777 23.3048 10.5117 C 22.9832 10.6888 21.9762 10.5779 22.3651 10.2663 Z " stroke-width="0.5336221749553417"/>
</svg>