<svg xmlns="http://www.w3.org/2000/svg" xmlns:xlink="http://www.w3.org/1999/xlink" version="1.1" width="25.800045013427734" height="18.320249557495117" viewBox="1.6136560440063477 2.3247039318084717 25.800045013427734 18.320249557495117">
  <!-- Exported by Scratch - http://scratch.mit.edu/ -->
  <path id="ID0.35932795284315944" fill="#FFFFFF" stroke="#000000" stroke-width="0.8782380126453522" stroke-linecap="round" d="M 13.0861 20.1337 C 9.6663 20.2913 6.1287 18.7703 3.4659 17.0278 C 2.1657 16.2183 2.0995 14.4642 2.1154 13.0677 C 2.1378 10.8411 2.788 8.4136 3.4564 6.0227 C 3.6462 5.5308 2.7666 5.1725 4.5431 4.9139 C 11.6651 3.8777 19.0704 3.3776 26.0316 3.1129 C 27.7714 3.0468 26.4471 2.9829 26.1788 4.0218 C 25.1065 8.1788 25.0916 12.8592 22.1107 16.4335 C 20.288 18.6151 16.3825 19.9774 13.0861 20.1337 Z "/>
  <path id="ID0.005726669915020466" fill="#FFFFFF" stroke="none" d="M 12.3252 14.5205 C 11.6786 14.6252 11.0576 14.5064 10.5772 14.2297 C 10.0967 13.9524 9.7568 13.5179 9.6716 12.9914 C 9.5863 12.465 9.7717 11.9454 10.1401 11.5306 C 10.5086 11.1164 11.0603 10.8077 11.7069 10.703 C 12.3535 10.5983 12.9745 10.7171 13.4549 10.9938 C 13.9354 11.2711 14.2752 11.7056 14.3605 12.2321 C 14.4458 12.7585 14.2604 13.278 13.892 13.6929 C 13.5235 14.107 12.9717 14.4158 12.3252 14.5205 Z " stroke-width="0.8782380126453522"/>
  <path id="ID0.9467235687188804" fill="#000000" stroke="none" stroke-linecap="round" d="M 18.9127 17.8424 C 17.0746 18.1401 15.2813 17.6253 13.8698 16.554 C 12.4584 15.4827 11.5443 13.61 11.116 11.9227 C 10.5161 9.538 10.6849 6.8146 11.1282 4.1788 C 11.1132 3.5984 11.6528 4.2715 12.1448 4.2007 C 13.632 4.0323 15.3195 3.9246 16.6458 3.8449 C 19.4889 3.6732 23.273 1.956 25.1837 3.395 C 27.1295 4.8013 25.2074 7.6513 24.9507 9.7755 C 24.5686 11.5447 24.4109 13.4731 23.2911 15.0282 C 22.3466 16.346 20.7507 17.5447 18.9127 17.8424 Z " stroke-width="0.8782380126453522"/>
  <path id="ID0.6756742880679667" fill="#FFFFFF" stroke="none" d="M 20.4773 15.8028 C 19.7962 15.9131 19.1413 15.7788 18.6337 15.4723 C 18.1253 15.1666 17.7643 14.6885 17.6709 14.1119 C 17.5775 13.5353 17.7692 12.9677 18.1552 12.5172 C 18.54 12.0661 19.119 11.732 19.8002 11.6217 C 20.4813 11.5114 21.1362 11.6456 21.6437 11.9522 C 22.1521 12.2579 22.5132 12.7359 22.6066 13.3126 C 22.7 13.8892 22.5082 14.4568 22.1223 14.9073 C 21.7375 15.3584 21.1584 15.6925 20.4773 15.8028 Z " stroke-width="0.8782380126453522"/>
  <path id="ID0.7902789879590273" fill="#FFFFFF" stroke="none" d="M 13.2353 7.8345 C 12.8612 7.8951 12.5018 7.8279 12.224 7.6699 C 11.9463 7.5127 11.7501 7.2646 11.7013 6.9636 C 11.6526 6.6625 11.7604 6.3652 11.9743 6.1284 C 12.1881 5.8908 12.5079 5.7136 12.882 5.653 C 13.2561 5.5925 13.6155 5.6596 13.8933 5.8176 C 14.171 5.9749 14.3672 6.2229 14.416 6.5239 C 14.4647 6.825 14.3569 7.1223 14.143 7.3591 C 13.9292 7.5967 13.6094 7.7739 13.2353 7.8345 Z " stroke-width="0.8782380126453522"/>
</svg>