<svg xmlns="http://www.w3.org/2000/svg" xmlns:xlink="http://www.w3.org/1999/xlink" version="1.1" width="34.467666628284114" height="43.908767702502864" viewBox="0.8325186956311981 2.552286146917514 34.467666628284114 43.908767702502864">
  <defs>
    <linearGradient id="grad_1" y2="1" x2="0">
      <stop offset="0" stop-color="#FFFFFF" stop-opacity="0"/>
      <stop offset="1" stop-color="#FFFFFF" stop-opacity="1"/>
    </linearGradient>
  <linearGradient id="grad_1-.9291182160377502,0.36978283524513245,-0.36978283524513245,0.9291182160377502,-130.6,-221" y2="42.6796" x2="2.8087" x1="19.4198" y1="0.9426" gradientUnits="userSpaceOnUse">
      <stop offset="0" stop-color="#FFFFFF" stop-opacity="0"/>
      <stop offset="1" stop-color="#FFFFFF" stop-opacity="1"/>
    </linearGradient></defs>
  <!-- Exported by Scratch - http://scratch.mit.edu/ -->
  <path id="ID0.35932795284315944" fill="#FFFFFF" stroke="#000000" stroke-width="0.9999999788223859" stroke-linecap="round" d="M 23.2349 34.6799 C 22.8879 33.911 22.625 34.9484 21.1163 35.4635 C 14.5873 37.444 7.3295 37.889 1.6859 41.3717 C 0.2382 42.2672 3.5734 43.8605 5.6404 44.6164 C 8.5413 45.6304 11.7555 45.9902 14.9359 45.1249 C 18.1163 44.2596 20.7702 42.4038 22.6925 39.9771 C 23.8623 38.4981 23.8949 36.2258 23.2349 34.6799 Z "/>
  <path id="ID0.09959578141570091" fill="#FF0000" stroke="none" stroke-linecap="round" d="M 3.1 41 C 3.625 39.403 6.581 39.571 8.35 39 C 9.83 38.523 11.261 38.281 12.85 37.75 C 13.525 37.525 14.942 36.378 14.85 37 C 14.493 40.108 13.311 43.134 11.9 45.65 C 11.548 46.278 10.954 45.763 10.275 45.75 C 10.104 45.747 10.765 45.509 10.4 45.4 C 8.939 44.964 7.321 45.756 6.1 45 C 4.656 44.106 2.5 42.403 3.1 41 Z " stroke-width="1"/>
  <path id="ID0.18240864388644695" fill="#FFFFFF" stroke="none" d="M 4.475 40.75 C 4.992 40.75 5.461 40.89 5.8 41.116 C 6.14 41.343 6.35 41.655 6.35 42 C 6.35 42.345 6.14 42.657 5.8 42.884 C 5.461 43.11 4.992 43.25 4.475 43.25 C 3.958 43.25 3.489 43.11 3.15 42.884 C 2.81 42.657 2.6 42.345 2.6 42 C 2.6 41.655 2.81 41.343 3.15 41.116 C 3.489 40.89 3.958 40.75 4.475 40.75 Z " stroke-width="1"/>
  <path id="ID0.35932795284315944" fill="#FFFFFF" stroke="#000000" stroke-width="0.9999999788223859" stroke-linecap="round" d="M 23.4849 34.6299 C 23.1379 33.861 22.875 34.8984 21.3663 35.4135 C 14.8373 37.394 7.5795 37.839 1.9359 41.3217 C 0.4882 42.2172 3.8234 43.8105 5.8904 44.5664 C 8.7913 45.5804 12.0055 45.9402 15.1859 45.0749 C 18.3663 44.2096 21.0202 42.3538 22.9425 39.9271 C 24.1123 38.4481 24.1449 36.1758 23.4849 34.6299 Z "/>
  <path id="ID0.7451641955412924" fill="url(#grad_1-.9291182160377502,0.36978283524513245,-0.36978283524513245,0.9291182160377502,-130.6,-221)" stroke="none" stroke-linecap="round" d="M 14.3659 37.9616 C 17.0399 35.9293 19.6456 33.4523 21.4095 30.5401 C 23.286 27.4424 24.8472 24.1741 25.4686 20.7469 C 26.0622 14.9258 23.2952 1.1039 24.9927 3.2831 C 27.3237 6.2773 36.2504 22.4355 34.5974 32.5599 C 33.5777 38.7431 23.7781 39.9058 17.959 43.2662 C 16.6414 43.8429 18.8702 41.4149 18.3923 41.5014 C 17.1638 41.7109 15.9545 42.759 14.635 43.2349 C 13.2274 43.7455 11.89 44.8126 10.3851 44.7185 C 8.1634 44.5866 5.8674 44.1033 3.9098 43.0185 C 3.4139 42.7393 2.881 41.7201 3.3788 41.4995 C 4.3056 40.7447 5.6882 41.3273 6.8598 41.0014 C 9.4518 40.2733 12.0921 39.4858 14.3659 37.9616 Z " stroke-width="1.0000000023075502"/>
</svg>