<svg xmlns="http://www.w3.org/2000/svg" xmlns:xlink="http://www.w3.org/1999/xlink" version="1.1" width="25.06740951538086" height="18.53921127319336" viewBox="0.5197322368621826 0.38085412979125977 25.06740951538086 18.53921127319336">
  <!-- Exported by Scratch - http://scratch.mit.edu/ -->
  <path id="ID0.35932795284315944" fill="#FFFFFF" stroke="#000000" stroke-width="1" stroke-linecap="round" d="M 14.8 9.6 C 10.748 9.364 6.679 9.068 2.55 8.6 C 1.631 8.517 0.855 8.769 1.05 8.1 C 1.82 5.469 4.979 0.851 5.014 0.881 C 5.049 0.913 1.35 5.218 1.35 7.95 C 1.35 10.682 2.751 13.209 5.014 15.019 C 7.276 16.829 10.401 17.95 13.85 17.95 C 17.299 17.95 20.196 16.857 22.686 15.019 C 24.232 13.876 25.948 11.034 24.6 10.05 C 22.215 8.315 18.061 9.79 14.8 9.6 Z "/>
  <path id="ID0.09959578141570091" fill="#000000" stroke="none" stroke-linecap="round" d="M 13.5 9.75 C 12.083 9.698 9.734 8.188 9.25 9.5 C 8.329 12.035 9.379 15.119 10.75 17.75 C 11.298 18.789 13.089 18 14.25 18.25 C 14.776 18.361 15.356 18.51 15.875 18.35 C 17.637 17.811 19.629 17.582 20.5 16.15 C 21.832 14.413 23.333 11.27 21.75 9.9 C 19.699 8.126 16.066 9.842 13.5 9.75 Z " stroke-width="1"/>
  <path id="ID0.601923952344805" fill="#FFFFFF" stroke="none" d="M 10.125 10.65 C 10.573 10.65 10.98 10.818 11.274 11.09 C 11.568 11.361 11.75 11.736 11.75 12.15 C 11.75 12.564 11.568 12.939 11.274 13.21 C 10.98 13.482 10.573 13.65 10.125 13.65 C 9.677 13.65 9.27 13.482 8.976 13.21 C 8.682 12.939 8.5 12.564 8.5 12.15 C 8.5 11.736 8.682 11.361 8.976 11.09 C 9.27 10.818 9.677 10.65 10.125 10.65 Z " stroke-width="1"/>
  <path id="ID0.845280843321234" fill="#FFFFFF" stroke="none" d="M 20.625 13.4 C 20.866 13.4 21.085 13.526 21.244 13.73 C 21.402 13.933 21.5 14.215 21.5 14.525 C 21.5 14.835 21.402 15.117 21.244 15.32 C 21.085 15.524 20.866 15.65 20.625 15.65 C 20.384 15.65 20.165 15.524 20.006 15.32 C 19.848 15.117 19.75 14.835 19.75 14.525 C 19.75 14.215 19.848 13.933 20.006 13.73 C 20.165 13.526 20.384 13.4 20.625 13.4 Z " stroke-width="1"/>
</svg>