<svg xmlns="http://www.w3.org/2000/svg" xmlns:xlink="http://www.w3.org/1999/xlink" version="1.1" width="29.982432938316926" height="30.42064819405423" viewBox="-0.7077453616755531 -0.5230464223521278 29.982432938316926 30.42064819405423">
  <defs>
    <linearGradient id="grad_1" x2="1">
      <stop offset="0" stop-color="#000000" stop-opacity="1"/>
      <stop offset="1" stop-color="#FFFFFF" stop-opacity="1"/>
    </linearGradient>
  <linearGradient id="grad_1-,0,0,1,-210.95,-169.55" x2="26.509" x1="17.0794" y1="4.1407" y2="4.1407" gradientUnits="userSpaceOnUse">
      <stop offset="0" stop-color="#000000" stop-opacity="1"/>
      <stop offset="1" stop-color="#FFFFFF" stop-opacity="1"/>
    </linearGradient></defs>
  <!-- Exported by Scratch - http://scratch.mit.edu/ -->
  <path id="ID0.5853018658235669" fill="#000000" stroke="none" stroke-linecap="round" d="M 15.2542 0.8999 C 19.7791 0.4267 24.8943 3.7943 27.2571 7.6542 C 29.0433 10.9513 26.6281 15.3042 25.5792 18.7106 C 24.9881 20.644 23.5564 22.4741 22.0515 23.658 C 20.1603 25.6224 17.943 27.5222 15.5984 27.9601 C 12.3804 28.5659 8.7202 28.9367 5.7526 27.6822 C 3.6583 26.7865 1.3094 25.045 0.9712 22.7976 C 0.3603 18.6702 0.5496 14.0626 2.7781 10.6226 C 5.5469 6.3507 10.0168 1.4454 15.2542 0.8999 Z " stroke-width="0.8604205846786499"/>
  <path id="ID0.01434624707326293" fill="#FFFFFF" stroke="none" d="M 21.825 17.5 C 22.204 17.5 22.548 17.654 22.797 17.903 C 23.046 18.152 23.2 18.496 23.2 18.875 C 23.2 19.254 23.046 19.598 22.797 19.847 C 22.548 20.096 22.204 20.25 21.825 20.25 C 21.446 20.25 21.102 20.096 20.853 19.847 C 20.604 19.598 20.45 19.254 20.45 18.875 C 20.45 18.496 20.604 18.152 20.853 17.903 C 21.102 17.654 21.446 17.5 21.825 17.5 Z " stroke-width="1"/>
  <path id="ID0.8579774918034673" fill="url(#grad_1-,0,0,1,-210.95,-169.55)" stroke="none" stroke-linecap="round" d="M 21 4.15 C 22.934 3.927 25.288 7.755 26.25 10.15 C 27.031 12.091 25.828 14.322 25.5 16.4 C 25.177 17.518 25.07 18.835 24.3 19.7 C 22.337 21.919 19.298 24.717 17.3 25.2 C 16.387 25.415 18.601 22.575 18.643 21.368 C 18.684 19.874 17.828 18.45 17.8 16.95 C 17.767 15.11 18.112 13.245 18.55 11.45 C 19.119 9.139 19.084 4.577 21 4.15 Z " stroke-width="1"/>
  <path id="ID0.19520784635096788" fill="#FFFFFF" stroke="none" d="M 17.275 10.5 C 17.792 10.5 18.261 10.71 18.6 11.05 C 18.94 11.389 19.15 11.858 19.15 12.375 C 19.15 12.892 18.94 13.361 18.6 13.7 C 18.261 14.04 17.792 14.25 17.275 14.25 C 16.758 14.25 16.289 14.04 15.95 13.7 C 15.61 13.361 15.4 12.892 15.4 12.375 C 15.4 11.858 15.61 11.389 15.95 11.05 C 16.289 10.71 16.758 10.5 17.275 10.5 Z " stroke-width="1"/>
  <path id="ID0.06145833618938923" fill="#FFFFFF" stroke="none" d="M 14.285 19.9542 C 14.7873 19.9542 15.2457 20.2073 15.5757 20.6155 C 15.9056 21.0262 16.11 21.592 16.11 22.2146 C 16.11 22.8372 15.9056 23.4029 15.5757 23.8137 C 15.2457 24.2218 14.7873 24.475 14.285 24.475 C 13.7828 24.475 13.3243 24.2218 12.9944 23.8137 C 12.6644 23.4029 12.46 22.8372 12.46 22.2146 C 12.46 21.592 12.6644 21.0262 12.9944 20.6155 C 13.3243 20.2073 13.7828 19.9542 14.285 19.9542 Z " stroke-width="2.756810761192903"/>
  <path id="ID0.9122844291850924" fill="#FFFFFF" stroke="none" d="M 4.7 21.5 C 4.907 21.5 5.094 21.612 5.23 21.793 C 5.366 21.974 5.45 22.224 5.45 22.5 C 5.45 22.776 5.366 23.026 5.23 23.207 C 5.094 23.388 4.907 23.5 4.7 23.5 C 4.493 23.5 4.306 23.388 4.17 23.207 C 4.034 23.026 3.95 22.776 3.95 22.5 C 3.95 22.224 4.034 21.974 4.17 21.793 C 4.306 21.612 4.493 21.5 4.7 21.5 Z " stroke-width="1"/>
  <path id="ID0.617730607278645" fill="#FFFFFF" stroke="none" d="M 7.075 11 C 7.247 11 7.404 11.084 7.517 11.22 C 7.63 11.356 7.7 11.543 7.7 11.75 C 7.7 11.957 7.63 12.144 7.517 12.28 C 7.404 12.416 7.247 12.5 7.075 12.5 C 6.903 12.5 6.746 12.416 6.633 12.28 C 6.52 12.144 6.45 11.957 6.45 11.75 C 6.45 11.543 6.52 11.356 6.633 11.22 C 6.746 11.084 6.903 11 7.075 11 Z " stroke-width="1"/>
</svg>