<svg xmlns="http://www.w3.org/2000/svg" xmlns:xlink="http://www.w3.org/1999/xlink" version="1.1" width="51.50891113548512" height="75.07842254905934" viewBox="-0.5000000013363124 5.929939268683219 51.50891113548512 75.07842254905934">
  <!-- Exported by Scratch - http://scratch.mit.edu/ -->
  <path id="ID0.21615128219127655" fill="#01EE4B" stroke="#000000" stroke-width="1.0000000026726248" stroke-linecap="round" d="M 10.9718 6.7496 C 13.2731 5.8174 16.1683 6.9718 18.9866 9.5902 C 21.8058 12.2083 24.5468 16.2898 26.5408 21.2123 C 28.5348 26.1347 27.0664 30.7292 29.205 34.8152 C 34.4507 44.7818 47.027 51.5954 50.13 62.798 C 51.8088 68.8785 47.6057 81.0888 43.4853 80.4869 C 36.6357 78.9782 32.0664 64.3851 28.19 58.5766 C 27.1065 56.9353 33.4386 67.8256 31.745 64.689 C 24.8276 52.2631 15.7919 40.923 9.8577 27.9704 C 7.9372 23.7756 6.9912 18.2095 7.1935 14.3675 C 7.3949 10.5259 8.6704 7.6819 10.9718 6.7496 Z "/>
  <path id="ID0.732419051695615" fill="#01EE4B" stroke="none" d="M 12 7.65 C 15.311 7.65 18.311 9.387 20.483 12.193 C 22.655 14.999 24 18.874 24 23.15 C 24 27.426 22.655 31.301 20.483 34.107 C 18.311 36.913 15.311 38.65 12 38.65 C 8.689 38.65 5.689 36.913 3.517 34.107 C 1.345 31.301 0 27.426 0 23.15 C 0 18.874 1.345 14.999 3.517 12.193 C 5.689 9.387 8.689 7.65 12 7.65 Z " stroke-width="1"/>
</svg>