<svg xmlns="http://www.w3.org/2000/svg" xmlns:xlink="http://www.w3.org/1999/xlink" version="1.1" width="82.42027168620073" height="34.35110741007768" viewBox="6.464741323647682 3.2344604474880145 82.42027168620073 34.35110741007768">
  <!-- Exported by Scratch - http://scratch.mit.edu/ -->
  <path id="ID0.8054993292316794" fill="#FFFFFF" stroke="#000000" stroke-width="1.0176990543647915" stroke-linecap="round" d="M 7.5531 4.2853 C 7.7104 4.2969 6.7972 3.6517 7.7336 4.761 C 11.4791 9.197 15.7958 13.4831 19.1622 18.3846 C 20.0013 19.5574 19.3611 20.0861 18.9329 20.6486 C 17.7536 22.1536 16.2418 23.4849 14.5694 24.2093 C 13.1622 24.8326 11.4697 24.8571 9.8363 24.6448 C 9.0496 24.5394 7.8771 24.8472 7.6394 23.3014 C 6.6888 17.1191 7.0164 10.781 7.0773 4.4658 C 6.981 2.9599 7.3989 4.2735 7.5531 4.2853 Z "/>
  <g id="ID0.5847997860983014">
    <path id="ID0.7827857472002506" fill="#01EE4B" stroke="#000000" stroke-width="1" stroke-linecap="round" d="M 66.15 26 C 67.392 26 68.624 26.539 69.331 27.465 C 71.25 29.995 72.924 33.292 73.75 36.5 C 73.96 37.335 72.692 37.025 72.25 37 C 70.114 36.856 67.981 36.477 66.15 36 C 65.021 35.71 63.783 35.44 62.969 34.535 C 62.154 33.629 61.65 32.379 61.65 31 C 61.65 29.621 62.154 28.371 62.969 27.465 C 63.783 26.56 64.908 26 66.15 26 Z "/>
    <path id="ID0.3674726518802345" fill="#01EE4B" stroke="none" d="M 64.6 23.5 C 66.186 23.5 67.624 24.144 68.665 25.185 C 69.706 26.226 70.35 27.664 70.35 29.25 C 70.35 30.836 69.706 32.274 68.665 33.315 C 67.624 34.356 66.186 35 64.6 35 C 63.014 35 61.576 34.356 60.535 33.315 C 59.494 32.274 58.85 30.836 58.85 29.25 C 58.85 27.664 59.494 26.226 60.535 25.185 C 61.576 24.144 63.014 23.5 64.6 23.5 Z " stroke-width="1"/>
  </g>
  <g id="ID0.5847997860983014">
    <path id="ID0.7827857472002506" fill="#01EE4B" stroke="#000000" stroke-width="0.9999999950847638" stroke-linecap="round" d="M 76.1578 16.9916 C 77.2062 16.3257 78.5351 16.1201 79.6284 16.5227 C 82.6047 17.6294 85.7855 19.5149 88.2028 21.7799 C 88.8278 22.3721 87.5912 22.7903 87.2047 23.0062 C 85.3245 24.0299 83.3208 24.8537 81.5195 25.4327 C 80.411 25.7933 79.2212 26.2291 78.0489 25.9017 C 76.8752 25.5739 75.7795 24.789 75.0401 23.6249 C 74.3008 22.4609 74.056 21.1355 74.2582 19.9338 C 74.46 18.7334 75.1094 17.6575 76.1578 16.9916 Z "/>
    <path id="ID0.3674726518802345" fill="#01EE4B" stroke="none" d="M 73.509 15.7124 C 74.8478 14.862 76.4069 14.6346 77.8437 14.9552 C 79.2806 15.2758 80.5952 16.1443 81.4456 17.4831 C 82.296 18.8218 82.5234 20.381 82.2028 21.8178 C 81.8822 23.2547 81.0137 24.5693 79.6749 25.4197 C 78.3362 26.2701 76.7771 26.4975 75.3402 26.1769 C 73.9033 25.8563 72.5887 24.9878 71.7383 23.649 C 70.888 22.3103 70.6606 20.7511 70.9811 19.3143 C 71.3017 17.8774 72.1702 16.5628 73.509 15.7124 Z " stroke-width="0.9999999950847638"/>
  </g>
</svg>