<svg xmlns="http://www.w3.org/2000/svg" xmlns:xlink="http://www.w3.org/1999/xlink" version="1.1" width="52.17096710205078" height="27.567420959472656" viewBox="0.3500000238418579 10.992274284362793 52.17096710205078 27.567420959472656">
  <!-- Exported by Scratch - http://scratch.mit.edu/ -->
  <g id="ID0.5847997860983014">
    <path id="ID0.7827857472002506" fill="#01EE4B" stroke="#000000" stroke-width="1" stroke-linecap="round" d="M 8.15 27 C 9.392 27 8.77 28.024 11.331 28.465 C 21.574 30.227 43.256 31.085 44 32 C 43.957 33.374 23.649 36.858 14.25 38 C 11.87 38.286 9.981 37.477 8.15 37 C 7.021 36.71 5.783 36.44 4.969 35.535 C 4.154 34.629 3.65 33.379 3.65 32 C 3.65 30.621 4.154 29.371 4.969 28.465 C 5.783 27.56 6.908 27 8.15 27 Z "/>
    <path id="ID0.3674726518802345" fill="#01EE4B" stroke="none" d="M 6.6 24.5 C 8.186 24.5 9.624 25.144 10.665 26.185 C 11.706 27.226 12.35 28.664 12.35 30.25 C 12.35 31.836 11.706 33.274 10.665 34.315 C 9.624 35.356 8.186 36 6.6 36 C 5.014 36 3.576 35.356 2.535 34.315 C 1.494 33.274 0.85 31.836 0.85 30.25 C 0.85 28.664 1.494 27.226 2.535 26.185 C 3.576 25.144 5.014 24.5 6.6 24.5 Z " stroke-width="1"/>
  </g>
  <g id="ID0.5847997860983014">
    <path id="ID0.7827857472002506" fill="#01EE4B" stroke="#000000" stroke-width="0.9999999950847638" stroke-linecap="round" d="M 18.1613 18.0619 C 19.2097 17.396 19.2015 18.0172 21.6319 17.593 C 31.3533 15.8938 50.7061 10.8727 51.9976 11.5557 C 52.7208 12.5973 36.4697 20.31 29.2082 24.0765 C 27.3328 25.0462 25.3243 25.9239 23.523 26.503 C 22.4145 26.8636 21.2247 27.2994 20.0524 26.972 C 18.8787 26.6442 17.783 25.8593 17.0436 24.6952 C 16.3043 23.5312 16.0595 22.2058 16.2617 21.0041 C 16.4635 19.8037 17.1129 18.7278 18.1613 18.0619 Z "/>
    <path id="ID0.3674726518802345" fill="#01EE4B" stroke="none" d="M 15.5194 16.7211 C 16.8582 15.8707 18.4173 15.6433 19.8542 15.9639 C 21.291 16.2844 22.6057 17.153 23.456 18.4917 C 24.3064 19.8305 24.5338 21.3896 24.2132 22.8265 C 23.8927 24.2633 23.0241 25.578 21.6854 26.4283 C 20.3466 27.2787 18.7875 27.5061 17.3506 27.1855 C 15.9137 26.865 14.5991 25.9964 13.7488 24.6577 C 12.8984 23.3189 12.671 21.7598 12.9916 20.3229 C 13.3121 18.886 14.1807 17.5714 15.5194 16.7211 Z " stroke-width="0.9999999950847638"/>
  </g>
</svg>