<svg xmlns="http://www.w3.org/2000/svg" xmlns:xlink="http://www.w3.org/1999/xlink" version="1.1" width="8.927000045776367" height="8.859600067138672" viewBox="2.563800096511841 0.044100046157836914 8.927000045776367 8.859600067138672">
  <!-- Exported by Scratch - http://scratch.mit.edu/ -->
  <g id="ID0.8745019854977727">
    <path id="ID0.9864800246432424" fill="#03B830" stroke="#000000" stroke-width="0.5224624578962682" stroke-linecap="round" d="M 4.4917 3.5886 L 10.6488 0.5441 L 10.9908 5.0887 L 3.0638 8.4037 L 4.4917 3.5886 Z "/>
    <path id="ID0.9864800246432424" fill="#01EE4B" stroke="#01EE4B" stroke-width="0.48465264929895335" stroke-linecap="round" d="M 5.1605 4.755 L 8.0163 3.343 L 8.1749 5.4508 L 4.4982 6.9883 L 5.1605 4.755 Z "/>
    <path id="ID0.3566299695521593" fill="none" stroke="#01651A" stroke-width="0.5224624578962682" stroke-linecap="round" d="M 3.4103 7.8109 L 7.1533 4.2213 L 4.9837 3.9681 "/>
    <path id="ID0.11943750269711018" fill="none" stroke="#01651A" stroke-width="0.5224624578962682" stroke-linecap="round" d="M 7.1902 4.3167 L 8.2645 5.3947 "/>
    <path id="ID0.8793348614126444" fill="none" stroke="#01651A" stroke-width="0.5224624578962682" stroke-linecap="round" d="M 9.6151 1.486 L 6.7509 4.5415 "/>
    <path id="ID0.5052715819329023" fill="#FFFFFF" stroke="none" d="M 9.5712 1.2872 C 9.686 1.2559 9.812 1.2841 9.923 1.3551 C 10.034 1.4261 10.1292 1.5397 10.1831 1.6794 C 10.2371 1.819 10.2395 1.9579 10.1993 2.07 C 10.1591 2.1821 10.0767 2.2669 9.9619 2.2982 C 9.847 2.3294 9.721 2.3013 9.61 2.2302 C 9.4991 2.1592 9.4039 2.0456 9.3499 1.906 C 9.2959 1.7663 9.2936 1.6274 9.3338 1.5153 C 9.374 1.4032 9.4563 1.3184 9.5712 1.2872 Z " stroke-width="0.5224624578962682"/>
    <path id="ID0.17683460004627705" fill="#FFFFFF" stroke="none" d="M 9.5963 2.7138 C 9.6618 2.696 9.7419 2.7332 9.8187 2.8076 C 9.895 2.8825 9.9678 2.9943 10.0186 3.1259 C 10.0695 3.2575 10.0887 3.3838 10.0793 3.4821 C 10.0692 3.5801 10.0303 3.6497 9.9649 3.6675 C 9.8994 3.6853 9.8192 3.6481 9.7425 3.5737 C 9.6661 3.4988 9.5934 3.387 9.5425 3.2554 C 9.4916 3.1238 9.4724 2.9975 9.4818 2.8992 C 9.4919 2.8012 9.5308 2.7316 9.5963 2.7138 Z " stroke-width="0.5224624578962682"/>
  </g>
</svg>