<svg xmlns="http://www.w3.org/2000/svg" xmlns:xlink="http://www.w3.org/1999/xlink" version="1.1" width="58.221129179000854" height="26.894293546676636" viewBox="0.23231756687164307 0.20915448665618896 58.221129179000854 26.894293546676636">
  <!-- Exported by Scratch - http://scratch.mit.edu/ -->
  <path id="ID0.4039098876528442" fill="#FFFFFF" stroke="#000000" stroke-width="1" stroke-linecap="round" d="M 26.25 15.5 C 32.76 15.228 39.628 15.317 45.25 12.5 C 47.325 11.468 46.873 7.428 45.25 6 C 41.366 2.759 31.517 0.98 31.55 0.85 C 31.709 0.727 41.903 2.457 46.75 4 C 49.449 4.855 52.168 6.136 54.25 8 C 55.846 9.487 57.044 10.117 57.85 13.5 C 57.533 17.313 54.656 20.337 49.497 22.69 C 44.338 25.043 37.213 26.5 29.35 26.5 C 21.487 26.5 14.362 25.043 9.203 22.69 C 4.044 20.337 0.585 17.625 0.85 13.5 C 1.157 8.705 6.41 5.267 10.75 3.5 C 17.233 0.785 30.952 0.72 31.4 0.85 C 31.987 0.928 20.744 2.267 15.75 4.5 C 13.895 5.33 12.154 7.414 12.25 9.5 C 12.343 11.375 14.322 12.53 16.25 13.5 C 19.295 14.989 22.857 15.641 26.25 15.5 Z "/>
  <path id="ID0.9961620662361383" fill="none" stroke="#000000" stroke-width="1.2068965435028076" stroke-linecap="round" d="M 29.5379 1.2948 C 32.0205 1.1114 34.2702 1.5966 36.4776 2.019 C 38.475 2.3352 40.5774 2.5066 42.1222 3.5059 C 44.215 4.8672 47.3397 6.7572 47.3397 8.8379 C 47.3397 10.9186 45.3447 12.805 42.1222 14.17 C 38.8998 15.5362 34.4488 16.381 29.5379 16.381 C 24.6271 16.381 20.176 15.5362 16.9536 14.17 C 13.7312 12.805 11.7362 10.9186 11.7362 8.8379 C 11.7362 6.7572 13.7312 4.8709 16.9536 3.5059 C 20.176 2.1397 25.2872 1.6134 29.5379 1.2948 Z "/>
</svg>