<svg xmlns="http://www.w3.org/2000/svg" xmlns:xlink="http://www.w3.org/1999/xlink" version="1.1" width="70.13500213623047" height="10.794811248779297" viewBox="-0.2549368143081665 0.46689802408218384 70.13500213623047 10.794811248779297">
  <defs>
    <linearGradient id="grad_1" x2="1">
      <stop offset="0" stop-color="#01EE4B" stop-opacity="1"/>
      <stop offset="1" stop-color="#03B830" stop-opacity="1"/>
    </linearGradient>
  <linearGradient id="grad_1-.7537394165992737,0,0,0.5594594478607178,-153.35,-89.1" x2="69.3801" x1="2.3961" y1="0.9669" y2="0.9669" gradientUnits="userSpaceOnUse">
      <stop offset="0" stop-color="#01EE4B" stop-opacity="1"/>
      <stop offset="1" stop-color="#03B830" stop-opacity="1"/>
    </linearGradient></defs>
  <!-- Exported by Scratch - http://scratch.mit.edu/ -->
  <path id="ID0.997980069834739" fill="url(#grad_1-.7537394165992737,0,0,0.5594594478607178,-153.35,-89.1)" stroke="#000000" stroke-width="0.6637461796259292" stroke-linecap="round" d="M 24.9094 0.973 C 31.3712 0.7604 37.0227 6.1676 43.7529 7.127 C 51.7214 8.2549 68.7077 6.4048 69.38 6.5676 C 69.4169 7.0968 54.4846 11.1904 47.4402 10.7249 C 39.9073 10.2197 34.102 4.4601 26.4169 4.3297 C 20.4502 4.4601 16.2798 11.1993 10.1421 10.7249 C 5.9264 10.3959 2.1344 4.0064 2.4103 3.2108 C 2.6726 2.4913 8.3595 8.1743 12.0958 7.6865 C 17.6049 6.9424 19.6973 1.1548 24.9094 0.973 Z "/>
  <path id="ID0.3641551942564547" fill="#01EE4B" stroke="none" stroke-linecap="round" d="M 2.5 1.8 C 3.836 1.341 5.788 1.998 6.75 1.8 C 7.077 1.727 5.222 1.228 5.4 1.6 C 6.009 2.865 8.792 4.166 8.1 5.05 C 6.792 6.416 3.575 5.502 1.4 6.1 C 0.85 6.25 1.561 7.175 1.5 7.05 C 0.993 6.78 0.174 6.008 0.25 5.3 C 0.34 4.489 1.417 4.242 1.75 3.6 C 2.182 3.051 1.925 1.999 2.5 1.8 Z " stroke-width="1"/>
</svg>