<svg xmlns="http://www.w3.org/2000/svg" xmlns:xlink="http://www.w3.org/1999/xlink" version="1.1" width="75.67646675456011" height="78.2478015934273" viewBox="4.1904831868984145 3.3377691251613544 75.67646675456011 78.2478015934273">
  <!-- Exported by Scratch - http://scratch.mit.edu/ -->
  <path id="ID0.8054993292316794" fill="#FFFFFF" stroke="#000000" stroke-width="1.0176990543647915" stroke-linecap="round" d="M 4.766 4.0049 C 5.3678 3.9099 5.2382 3.2641 6.7522 5.5099 C 12.8209 14.4116 19.2158 23.1057 24.6622 32.4846 C 26.0239 34.8295 24.8611 34.1861 24.4329 34.7486 C 23.2536 36.2536 21.7418 37.5849 20.0694 38.3093 C 18.6622 38.9326 16.9697 38.9571 15.3363 38.7448 C 14.5496 38.6394 13.8894 39.9159 13.1394 37.4014 C 10.1399 27.3427 7.6878 16.5064 5.2503 5.9982 C 4.6545 3.3811 4.633 4.1491 4.766 4.0049 Z "/>
  <path id="ID0.8054993292316794" fill="#FFFFFF" stroke="#000000" stroke-width="0.904693522057329" stroke-linecap="round" d="M 79.3581 51.7334 C 79.2263 52.3227 79.3323 52.4664 77.6702 52.9539 C 71.023 54.9038 64.1447 57.9646 57.2538 58.0053 C 55.567 58.0156 57.1521 54.3588 57.2469 52.4987 C 57.6524 51.1122 57.117 48.6245 58.7379 48.5128 C 65.1577 48.0639 71.2944 50.2726 77.8262 51.3831 C 79.459 51.6611 79.3025 51.554 79.3581 51.7334 Z "/>
  <g id="ID0.5847997860983014">
    <path id="ID0.7827857472002506" fill="#01EE4B" stroke="#000000" stroke-width="1" stroke-linecap="round" d="M 37.15 70 C 38.392 70 39.624 70.539 40.331 71.465 C 42.25 73.995 43.924 77.292 44.75 80.5 C 44.96 81.335 43.692 81.025 43.25 81 C 41.114 80.856 38.981 80.477 37.15 80 C 36.021 79.71 34.783 79.44 33.969 78.535 C 33.154 77.629 32.65 76.379 32.65 75 C 32.65 73.621 33.154 72.371 33.969 71.465 C 34.783 70.56 35.908 70 37.15 70 Z "/>
    <path id="ID0.3674726518802345" fill="#01EE4B" stroke="none" d="M 35.6 67.5 C 37.186 67.5 38.624 68.144 39.665 69.185 C 40.706 70.226 41.35 71.664 41.35 73.25 C 41.35 74.836 40.706 76.274 39.665 77.315 C 38.624 78.356 37.186 79 35.6 79 C 34.014 79 32.576 78.356 31.535 77.315 C 30.494 76.274 29.85 74.836 29.85 73.25 C 29.85 71.664 30.494 70.226 31.535 69.185 C 32.576 68.144 34.014 67.5 35.6 67.5 Z " stroke-width="1"/>
  </g>
  <g id="ID0.5847997860983014">
    <path id="ID0.7827857472002506" fill="#01EE4B" stroke="#000000" stroke-width="0.9999999950847638" stroke-linecap="round" d="M 47.1613 61.0119 C 48.2097 60.346 49.5386 60.1404 50.6319 60.543 C 53.6083 61.6497 56.789 63.5352 59.2063 65.8002 C 59.8313 66.3924 58.5947 66.8106 58.2082 67.0265 C 56.328 68.0502 54.3243 68.8739 52.523 69.453 C 51.4145 69.8136 50.2247 70.2494 49.0524 69.922 C 47.8787 69.5942 46.783 68.8093 46.0436 67.6452 C 45.3043 66.4812 45.0595 65.1558 45.2617 63.9541 C 45.4635 62.7537 46.1129 61.6778 47.1613 61.0119 Z "/>
    <path id="ID0.3674726518802345" fill="#01EE4B" stroke="none" d="M 44.5194 59.7211 C 45.8582 58.8707 47.4173 58.6433 48.8542 58.9639 C 50.291 59.2844 51.6057 60.153 52.456 61.4917 C 53.3064 62.8305 53.5338 64.3896 53.2132 65.8265 C 52.8927 67.2633 52.0241 68.578 50.6854 69.4283 C 49.3466 70.2787 47.7875 70.5061 46.3506 70.1855 C 44.9137 69.865 43.5991 68.9964 42.7488 67.6577 C 41.8984 66.3189 41.671 64.7598 41.9916 63.3229 C 42.3121 61.886 43.1807 60.5714 44.5194 59.7211 Z " stroke-width="0.9999999950847638"/>
  </g>
  <path id="ID0.8054993292316794" fill="#FFFFFF" stroke="#000000" stroke-width="0.9046935117514371" stroke-linecap="round" d="M 36.1601 9.737 C 36.7072 9.9926 36.9473 9.5464 36.9887 11.6481 C 37.2086 20.0138 37.8089 28.4263 37.2595 36.7502 C 37.1221 38.8313 36.5092 37.852 35.854 37.9607 C 34.0733 38.234 32.1118 38.2334 30.344 37.7934 C 28.8492 37.4312 27.4408 36.57 26.2085 35.6002 C 25.6166 35.1314 24.3866 35.5392 25.1192 33.6749 C 28.051 26.218 31.8518 18.5878 35.4883 11.1577 C 36.4033 9.3131 35.973 9.7527 36.1601 9.737 Z "/>
</svg>