<svg xmlns="http://www.w3.org/2000/svg" xmlns:xlink="http://www.w3.org/1999/xlink" version="1.1" width="59.88145065307617" height="34.16797637939453" viewBox="7.211948394775391 0.0956452488899231 59.88145065307617 34.16797637939453">
  <!-- Exported by Scratch - http://scratch.mit.edu/ -->
  <path id="ID0.8054993292316794" fill="#FFFFFF" stroke="#000000" stroke-width="0.5975571274018524" stroke-linecap="round" d="M 9.8385 0.7288 C 9.5486 1.1174 9.6914 1.0965 9.497 2.4663 C 8.8909 8.0229 7.9363 13.7273 7.7154 19.1024 C 7.66 20.4462 8.2834 19.6705 8.7347 19.6569 C 9.9598 19.6069 11.2935 19.3716 12.4725 18.8971 C 13.4699 18.5018 14.3823 17.8188 15.1693 17.0921 C 15.5471 16.7412 16.1635 17.0028 15.8087 15.8119 C 14.389 11.0483 12.3066 6.2886 10.3745 1.5072 C 9.9776 0.4048 9.995 0.528 9.8385 0.7288 Z "/>
  <path id="ID0.8054993292316794" fill="#FFFFFF" stroke="#000000" stroke-width="0.9986682975731249" stroke-linecap="round" d="M 66.5476 5.2268 C 66.3712 5.9991 66.207 5.8595 64.4557 7.9441 C 57.1024 16.2595 50.0074 25.0519 42.3953 32.8142 C 40.4925 34.755 40.7833 33.179 40.1871 32.8123 C 38.5879 31.7978 37.1132 30.438 36.2019 28.8597 C 35.4221 27.533 35.1818 25.8654 35.1771 24.2327 C 35.1778 23.4461 33.951 23.3407 36.1887 21.932 C 45.1408 16.2972 54.9918 11.1785 64.6696 5.9134 C 66.8346 4.662 66.6295 4.8227 66.5476 5.2268 Z "/>
</svg>