<svg xmlns="http://www.w3.org/2000/svg" xmlns:xlink="http://www.w3.org/1999/xlink" version="1.1" width="51.01918832024477" height="19.966556942070945" viewBox="1.3026569308810325 11.84002665896941 51.01918832024477 19.966556942070945">
  <!-- Exported by Scratch - http://scratch.mit.edu/ -->
  <path id="ID0.49832283426076174" fill="#01EE4B" stroke="#000000" stroke-width="1.3024257775201618" stroke-linecap="round" d="M 1.9969 26.2787 C 1.1016 24.8293 14.4122 25.3477 20.0226 22.8511 C 23.105 21.468 24.0619 17.9751 27.3284 15.9556 C 30.5949 13.9361 33.8054 12.3452 36.7623 12.5019 C 42.4113 12.8047 47.9949 15.1678 51.5 16.7762 C 52.6181 17.5502 47.9484 16.562 46.0094 17.2675 C 44.332 17.8825 43.4697 19.4496 41.8954 20.8037 C 39.3565 23.0127 37.8561 25.6797 34.5896 27.6992 C 31.3231 29.7187 28.1469 31.2248 25.1558 31.1529 C 17.1252 30.9558 3.2543 28.3108 1.9969 26.2787 Z "/>
  <path id="ID0.8438622388057411" fill="#FFFFFF" stroke="none" d="M 30.25 16.15 C 30.871 16.15 31.433 16.346 31.841 16.663 C 32.248 16.98 32.5 17.417 32.5 17.9 C 32.5 18.383 32.248 18.82 31.841 19.137 C 31.433 19.454 30.871 19.65 30.25 19.65 C 29.629 19.65 29.067 19.454 28.659 19.137 C 28.252 18.82 28 18.383 28 17.9 C 28 17.417 28.252 16.98 28.659 16.663 C 29.067 16.346 29.629 16.15 30.25 16.15 Z " stroke-width="1"/>
  <path id="ID0.5695698317140341" fill="#00FF55" stroke="#FFFFFF" stroke-width="1.1399999856948853" d="M 36.555 15.3555 C 36.791 15.3555 37.0047 15.4193 37.1592 15.5225 C 37.3142 15.6257 37.41 15.7682 37.41 15.9255 C 37.41 16.0828 37.3142 16.2253 37.1592 16.3285 C 37.0047 16.4317 36.791 16.4955 36.555 16.4955 C 36.319 16.4955 36.1053 16.4317 35.9508 16.3285 C 35.7958 16.2253 35.7 16.0828 35.7 15.9255 C 35.7 15.7682 35.7958 15.6257 35.9508 15.5225 C 36.1053 15.4193 36.319 15.3555 36.555 15.3555 Z "/>
</svg>