<svg xmlns="http://www.w3.org/2000/svg" xmlns:xlink="http://www.w3.org/1999/xlink" version="1.1" width="48.96239357340776" height="59.5574710880562" viewBox="1.5206573945857929 5.911438081917946 48.96239357340776 59.5574710880562">
  <!-- Exported by Scratch - http://scratch.mit.edu/ -->
  <path id="ID0.8054993292316794" fill="#FFFFFF" stroke="#000000" stroke-width="1.0176990543647915" stroke-linecap="round" d="M 24.058 6.4991 C 24.8122 6.7828 24.6557 6.9325 26.5602 9.0056 C 34.1196 17.6519 42.1827 26.0966 49.1622 34.9346 C 50.9073 37.1439 49.3611 36.6361 48.9329 37.1986 C 47.7536 38.7036 46.2418 40.0349 44.5694 40.7593 C 43.1622 41.3826 41.4697 41.4071 39.8363 41.1948 C 39.0496 41.0894 38.8179 42.3334 37.6394 39.8514 C 32.9257 29.9223 28.8206 19.1402 24.5513 8.5162 C 23.5227 6.1297 23.6623 6.3614 24.058 6.4991 Z "/>
  <path id="ID0.8054993292316794" fill="#FFFFFF" stroke="#000000" stroke-width="0.8142715921766516" stroke-linecap="round" d="M 2.3371 48.3845 C 2.5508 48.1501 1.8583 47.9306 3.6023 48.5555 C 10.4353 50.8556 17.4822 52.9772 23.9959 55.7704 C 25.6243 56.4688 24.2852 56.7003 23.9784 57.2526 C 23.1303 58.7468 21.9983 60.301 20.69 61.5679 C 19.5902 62.6422 18.2132 63.4961 16.8667 64.1775 C 16.218 64.5038 16.0964 65.5901 14.9765 64.4546 C 10.4975 59.9122 6.6276 54.6155 2.648 49.4722 C 1.6413 48.2763 2.1142 48.6435 2.3371 48.3845 Z "/>
</svg>