<svg xmlns="http://www.w3.org/2000/svg" xmlns:xlink="http://www.w3.org/1999/xlink" version="1.1" width="64.12393891811371" height="12.339037299156189" viewBox="-0.26851850748062134 0.03148150444030762 64.12393891811371 12.339037299156189">
  <!-- Exported by Scratch - http://scratch.mit.edu/ -->
  <g id="ID0.8535324074327946">
    <path id="ID0.7163692079484463" fill="none" stroke="#000000" stroke-width="1.2370370626449585" stroke-linecap="round" d="M 56.1239 7.4224 L 62.9276 5.8761 "/>
    <path id="ID0.0927580171264708" fill="none" stroke="#000000" stroke-width="1.2370370626449585" stroke-linecap="round" d="M 56.4332 10.8243 L 63.2369 11.752 "/>
  </g>
  <path id="ID0.31665632082149386" fill="#000000" stroke="none" stroke-linecap="round" d="M 4.1 0.65 C 5.135 0.65 6.072 0.93 6.751 1.383 C 7.43 1.835 8.215 2.563 7.85 3.15 C 7.103 4.354 5.348 4.305 4.25 5 C 3.698 5.53 3.584 6.836 3 6.75 C 2.252 6.617 1.865 5.575 1.449 4.917 C 1.084 4.333 0.35 3.84 0.35 3.15 C 0.35 2.46 0.77 1.835 1.449 1.383 C 2.128 0.93 3.065 0.65 4.1 0.65 Z " stroke-width="1"/>
</svg>