<svg xmlns="http://www.w3.org/2000/svg" xmlns:xlink="http://www.w3.org/1999/xlink" version="1.1" width="9.935904502868652" height="6.576037406921387" viewBox="0.5111939907073975 -0.12070006132125854 9.935904502868652 6.576037406921387">
  <!-- Exported by Scratch - http://scratch.mit.edu/ -->
  <path id="ID0.14847592869773507" fill="#000000" stroke="none" d="M 2.1467 0.3822 C 2.2991 0.4129 2.3889 0.6819 2.4104 1.0919 C 2.4322 1.5019 2.3858 2.0527 2.2662 2.6471 C 2.1466 3.2416 1.9764 3.7675 1.7977 4.1372 C 1.6194 4.5069 1.4325 4.7203 1.2801 4.6896 C 1.1277 4.6589 1.0379 4.3899 1.0164 3.98 C 0.9946 3.57 1.041 3.0191 1.1606 2.4247 C 1.2801 1.8303 1.4504 1.3043 1.6291 0.9347 C 1.8074 0.565 1.9943 0.3516 2.1467 0.3822 Z " stroke-width="0.4427649950522898"/>
  <path id="ID0.5141475424170494" fill="#000000" stroke="none" d="M 9.073 1.7679 C 9.4107 1.8359 9.6696 2.1311 9.8147 2.5536 C 9.9606 2.9756 9.9927 3.5249 9.8769 4.1005 C 9.7611 4.6761 9.5191 5.1702 9.2213 5.503 C 8.9242 5.8365 8.5712 6.0086 8.2335 5.9407 C 7.8958 5.8727 7.6369 5.5775 7.4918 5.1551 C 7.3459 4.733 7.3138 4.1837 7.4296 3.6081 C 7.5454 3.0325 7.7874 2.5384 8.0852 2.2056 C 8.3823 1.8721 8.7353 1.7 9.073 1.7679 Z " stroke-width="0.7050068294290582"/>
</svg>