<svg xmlns="http://www.w3.org/2000/svg" xmlns:xlink="http://www.w3.org/1999/xlink" version="1.1" width="67.30170861443422" height="38.59099999627016" viewBox="3.9701350154452415 7.840026658969411 67.30170861443422 38.59099999627016">
  <!-- Exported by Scratch - http://scratch.mit.edu/ -->
  <path id="ID0.49832283426076174" fill="#FFFFFF" stroke="#000000" stroke-width="1.3024257775201618" stroke-linecap="round" d="M 27.2534 36.985 C 33.4002 32.217 34.5125 25.2554 38.9726 18.8511 C 40.8026 16.2638 43.0119 13.9751 46.2784 11.9556 C 49.5449 9.9361 52.7554 8.3452 55.7123 8.5019 C 61.3613 8.8047 66.9449 11.1678 70.45 12.7762 C 71.5681 13.5502 66.8984 12.562 64.9594 13.2675 C 63.282 13.8825 62.4197 15.4496 60.8454 16.8037 C 58.3065 19.0127 56.3845 21.8648 53.5396 23.6992 C 50.8487 25.4334 46.1146 23.7632 44.1974 26.2596 C 40.0957 31.6712 43.8167 39.5937 37.7354 42.4918 C 27.1782 47.511 7.0362 45.5702 4.743 44.5025 C 2.9646 43.4305 21.1761 41.6825 27.2534 36.985 Z "/>
  <path id="ID0.8438622388057411" fill="#FFFFFF" stroke="none" d="M 49.25 12.15 C 49.871 12.15 50.433 12.346 50.841 12.663 C 51.248 12.98 51.5 13.417 51.5 13.9 C 51.5 14.383 51.248 14.82 50.841 15.137 C 50.433 15.454 49.871 15.65 49.25 15.65 C 48.629 15.65 48.067 15.454 47.659 15.137 C 47.252 14.82 47 14.383 47 13.9 C 47 13.417 47.252 12.98 47.659 12.663 C 48.067 12.346 48.629 12.15 49.25 12.15 Z " stroke-width="1"/>
  <path id="ID0.5695698317140341" fill="#00FF55" stroke="#FFFFFF" stroke-width="1.1399999856948853" d="M 55.555 11.3555 C 55.791 11.3555 56.0047 11.4193 56.1592 11.5225 C 56.3142 11.6257 56.41 11.7682 56.41 11.9255 C 56.41 12.0828 56.3142 12.2253 56.1592 12.3285 C 56.0047 12.4317 55.791 12.4955 55.555 12.4955 C 55.319 12.4955 55.1053 12.4317 54.9508 12.3285 C 54.7958 12.2253 54.7 12.0828 54.7 11.9255 C 54.7 11.7682 54.7958 11.6257 54.9508 11.5225 C 55.1053 11.4193 55.319 11.3555 55.555 11.3555 Z "/>
</svg>