<svg xmlns="http://www.w3.org/2000/svg" xmlns:xlink="http://www.w3.org/1999/xlink" version="1.1" width="30.529672622680664" height="23.251667022705078" viewBox="0.3500000238418579 2.3250510692596436 30.529672622680664 23.251667022705078">
  <!-- Exported by Scratch - http://scratch.mit.edu/ -->
  <g id="ID0.5847997860983014">
    <path id="ID0.7827857472002506" fill="#01EE4B" stroke="#000000" stroke-width="1" stroke-linecap="round" d="M 8.15 14 C 9.392 14 10.624 14.539 11.331 15.465 C 13.25 17.995 14.924 21.292 15.75 24.5 C 15.96 25.335 14.692 25.025 14.25 25 C 12.114 24.856 9.981 24.477 8.15 24 C 7.021 23.71 5.783 23.44 4.969 22.535 C 4.154 21.629 3.65 20.379 3.65 19 C 3.65 17.621 4.154 16.371 4.969 15.465 C 5.783 14.56 6.908 14 8.15 14 Z "/>
    <path id="ID0.3674726518802345" fill="#01EE4B" stroke="none" d="M 6.6 11.5 C 8.186 11.5 9.624 12.144 10.665 13.185 C 11.706 14.226 12.35 15.664 12.35 17.25 C 12.35 18.836 11.706 20.274 10.665 21.315 C 9.624 22.356 8.186 23 6.6 23 C 5.014 23 3.576 22.356 2.535 21.315 C 1.494 20.274 0.85 18.836 0.85 17.25 C 0.85 15.664 1.494 14.226 2.535 13.185 C 3.576 12.144 5.014 11.5 6.6 11.5 Z " stroke-width="1"/>
  </g>
  <g id="ID0.5847997860983014">
    <path id="ID0.7827857472002506" fill="#01EE4B" stroke="#000000" stroke-width="0.9999999950847638" stroke-linecap="round" d="M 18.1613 5.0119 C 19.2097 4.346 20.5386 4.1404 21.6319 4.543 C 24.6083 5.6497 27.789 7.5352 30.2063 9.8002 C 30.8313 10.3924 29.5947 10.8106 29.2082 11.0265 C 27.328 12.0502 25.3243 12.8739 23.523 13.453 C 22.4145 13.8136 21.2247 14.2494 20.0524 13.922 C 18.8787 13.5942 17.783 12.8093 17.0436 11.6452 C 16.3043 10.4812 16.0595 9.1558 16.2617 7.9541 C 16.4635 6.7537 17.1129 5.6778 18.1613 5.0119 Z "/>
    <path id="ID0.3674726518802345" fill="#01EE4B" stroke="none" d="M 15.5194 3.7211 C 16.8582 2.8707 18.4173 2.6433 19.8542 2.9639 C 21.291 3.2844 22.6057 4.153 23.456 5.4917 C 24.3064 6.8305 24.5338 8.3896 24.2132 9.8265 C 23.8927 11.2633 23.0241 12.578 21.6854 13.4283 C 20.3466 14.2787 18.7875 14.5061 17.3506 14.1855 C 15.9137 13.865 14.5991 12.9964 13.7488 11.6577 C 12.8984 10.3189 12.671 8.7598 12.9916 7.3229 C 13.3121 5.886 14.1807 4.5714 15.5194 3.7211 Z " stroke-width="0.9999999950847638"/>
  </g>
</svg>