<svg xmlns="http://www.w3.org/2000/svg" xmlns:xlink="http://www.w3.org/1999/xlink" version="1.1" width="38.242244720458984" height="75.01009368896484" viewBox="-0.5 0.15000003576278687 38.242244720458984 75.01009368896484">
  <!-- Exported by Scratch - http://scratch.mit.edu/ -->
  <path id="ID0.21615128219127655" fill="#01EE4B" stroke="#000000" stroke-width="1" stroke-linecap="round" d="M 21 2 C 23.483 2 25.733 4.157 27.362 7.642 C 28.992 11.127 30 15.939 30 21.25 C 30 26.561 26.914 30.268 27.362 34.858 C 28.482 46.065 40.763 58.062 36.25 68.65 C 32.893 76.154 16.386 75.553 9.25 72.65 C 5.62 71.167 12.589 63.638 15 60.25 C 15.59 59.136 15.497 67.181 15.25 63.65 C 14.258 49.526 11.843 35.14 12 21.25 C 12.056 16.637 13.008 11.127 14.638 7.642 C 16.267 4.157 18.517 2 21 2 Z "/>
  <path id="ID0.732419051695615" fill="#01EE4B" stroke="none" d="M 12 0.65 C 15.311 0.65 18.311 2.387 20.483 5.193 C 22.655 7.999 24 11.874 24 16.15 C 24 20.426 22.655 24.301 20.483 27.107 C 18.311 29.913 15.311 31.65 12 31.65 C 8.689 31.65 5.689 29.913 3.517 27.107 C 1.345 24.301 0 20.426 0 16.15 C 0 11.874 1.345 7.999 3.517 5.193 C 5.689 2.387 8.689 0.65 12 0.65 Z " stroke-width="1"/>
</svg>