<svg xmlns="http://www.w3.org/2000/svg" xmlns:xlink="http://www.w3.org/1999/xlink" version="1.1" width="50.285247810510505" height="75.03836060347926" viewBox="1.7438425978880572 4.9425878485899615 50.285247810510505 75.03836060347926">
  <!-- Exported by Scratch - http://scratch.mit.edu/ -->
  <path id="ID0.21615128219127655" fill="#01EE4B" stroke="#000000" stroke-width="1.0000000077761317" stroke-linecap="round" d="M 48.7347 11.2271 C 50.8921 12.4564 51.7791 15.4445 51.469 19.2789 C 51.1598 23.1138 49.6533 27.7937 47.0238 32.4081 C 44.3944 37.0225 39.8779 38.7155 37.9947 42.9253 C 33.4193 53.2169 37.6706 68.956 28.9869 76.6855 C 22.4499 82.4836 5.2945 78.3558 2.519 72.5376 C 0.1568 68.4361 13.6386 60.9879 18.7114 56.8462 C 20.2396 55.6085 14.7011 66.6956 16.1146 63.4232 C 21.5853 50.2959 24.8915 36.1781 31.3847 23.4965 C 33.4884 19.3905 37.2723 15.2003 40.4139 12.9794 C 43.5546 10.7579 46.5774 9.9978 48.7347 11.2271 Z "/>
  <path id="ID0.732419051695615" fill="#01EE4B" stroke="none" d="M 45.364 6.7963 C 48.207 8.4934 49.8926 11.5225 50.3194 15.0452 C 50.7461 18.5678 49.9148 22.5845 47.7231 26.2561 C 45.5314 29.9277 42.3903 32.5655 39.0871 33.8616 C 35.7838 35.1577 32.3175 35.1115 29.4746 33.4144 C 26.6316 31.7173 24.9459 28.6881 24.5192 25.1655 C 24.0925 21.6428 24.9238 17.6262 27.1155 13.9546 C 29.3072 10.283 32.4483 7.6451 35.7515 6.349 C 39.0548 5.053 42.521 5.0992 45.364 6.7963 Z " stroke-width="0.9999999664686102"/>
</svg>