<svg xmlns="http://www.w3.org/2000/svg" xmlns:xlink="http://www.w3.org/1999/xlink" version="1.1" width="45.059371965985726" height="73.59870912418884" viewBox="-0.5000000088717674 3.8993596941921975 45.059371965985726 73.59870912418884">
  <!-- Exported by Scratch - http://scratch.mit.edu/ -->
  <path id="ID0.21615128219127655" fill="#01EE4B" stroke="#000000" stroke-width="1.0000000177435349" stroke-linecap="round" d="M 14.4872 4.5052 C 16.9091 3.9577 19.5793 5.5655 21.9366 8.6055 C 24.2949 11.6453 26.3392 16.1166 27.5102 21.2969 C 28.6813 26.4772 26.4886 30.7734 27.9377 35.1517 C 31.5012 45.8359 44.2164 54.522 44.0579 66.1522 C 43.9626 72.8962 32.2629 78.7254 26.5135 76.526 C 21.7715 74.8739 23.5708 62.9282 23.0903 58.4356 C 22.8211 56.8048 26.7728 68.4121 25.6092 65.0428 C 20.7941 51.6611 13.7129 39.0081 9.9532 25.2659 C 8.737 20.8155 8.7043 15.1697 9.5258 11.4111 C 10.3463 7.6527 12.0653 5.0527 14.4872 4.5052 Z "/>
  <path id="ID0.732419051695615" fill="#01EE4B" stroke="none" d="M 12 4.65 C 15.311 4.65 18.311 6.387 20.483 9.193 C 22.655 11.999 24 15.874 24 20.15 C 24 24.426 22.655 28.301 20.483 31.107 C 18.311 33.913 15.311 35.65 12 35.65 C 8.689 35.65 5.689 33.913 3.517 31.107 C 1.345 28.301 0 24.426 0 20.15 C 0 15.874 1.345 11.999 3.517 9.193 C 5.689 6.387 8.689 4.65 12 4.65 Z " stroke-width="1"/>
</svg>