<svg xmlns="http://www.w3.org/2000/svg" xmlns:xlink="http://www.w3.org/1999/xlink" version="1.1" width="41.78350830078125" height="66.64115905761719" viewBox="5.361364364624023 0.4298986792564392 41.78350830078125 66.64115905761719">
  <!-- Exported by Scratch - http://scratch.mit.edu/ -->
  <path id="ID0.13044894626364112" fill="#01EE4B" stroke="#000000" stroke-width="0.978190642255385" stroke-linecap="round" d="M 21.0887 25.4688 C 26.2439 23.8504 32.308 23.9473 35.8853 27.2271 C 41.7319 32.5936 45.2154 40.5039 46.592 48.1183 C 47.21 51.6272 42.255 53.8859 39.8309 56.5379 C 38.1957 59.8875 38.0207 64.9325 34.4575 66.0578 C 29.063 67.7455 23.7958 64.846 19.039 63.4792 C 15.7211 62.6183 11.4655 62.0065 10.4706 59.4416 C 7.8698 52.5155 5.5264 44.0188 7.8613 37.4393 C 9.8864 31.8216 15.3045 27.3088 21.0887 25.4688 Z "/>
  <path id="ID0.13044894626364112" fill="#01EE4B" stroke="#000000" stroke-width="0.9783330865659259" stroke-linecap="round" d="M 28.1 18.4375 C 33.524 18.2988 39.305 20.0524 41.75 24.1745 C 45.744 30.9175 46.712 39.4504 45.75 47.1227 C 45.291 50.6539 39.867 51.4609 36.75 53.3379 C 34.18 56.0993 32.501 60.8849 28.75 60.9873 C 23.076 61.1269 18.898 56.9063 14.75 54.294 C 11.829 52.5605 7.935 50.8088 7.75 48.0789 C 7.333 40.7307 7.633 31.9482 11.841 26.2838 C 15.464 21.4561 22.007 18.6163 28.1 18.4375 Z "/>
  <path id="ID0.13044894626364112" fill="#01EE4B" stroke="#000000" stroke-width="0.9783330865659259" stroke-linecap="round" d="M 26.35 0.9375 C 31.774 0.7988 37.555 2.5524 40 6.6745 C 43.994 13.4175 44.962 21.9504 44 29.6227 C 43.541 33.1539 38.117 33.9609 35 35.8379 C 32.43 38.5993 30.751 43.3849 27 43.4873 C 21.326 43.6269 17.148 39.4063 13 36.794 C 10.079 35.0605 6.185 33.3088 6 30.5789 C 5.583 23.2307 5.883 14.4482 10.091 8.7838 C 13.714 3.9561 20.257 1.1163 26.35 0.9375 Z "/>
</svg>