<svg xmlns="http://www.w3.org/2000/svg" xmlns:xlink="http://www.w3.org/1999/xlink" version="1.1" width="58.11194610595703" height="71.50794219970703" viewBox="0.8931102752685547 0.4920562505722046 58.11194610595703 71.50794219970703">
  <!-- Exported by Scratch - http://scratch.mit.edu/ -->
  <path id="ID0.13044894626364112" fill="#01EE4B" stroke="#000000" stroke-width="1" stroke-linecap="round" d="M 22.35 1 C 27.774 0.855 33.555 2.689 36 7 C 39.994 14.052 37.908 23.19 40 31 C 41.545 36.84 48.245 41.061 49 47 C 48.633 51.537 45.125 56.132 41 58 C 33.577 61.365 22.819 66.954 15.5 62.5 C 6.518 56.087 4.223 42.813 2 32 C 0.452 24.454 1.883 15.13 6.091 9.206 C 9.714 4.157 16.257 1.187 22.35 1 Z "/>
  <path id="ID0.05383919691666961" fill="#01EE4B" stroke="none" stroke-linecap="round" d="M 42.5 43 C 44.155 43 45.564 43.836 46.742 44.832 C 48.072 45.945 50.532 47.138 50.5 49 C 50.384 51.782 48.106 54.79 46 57 C 40.754 62.475 37.521 71.097 30.5 71.5 C 21.656 70.643 13.56 66.57 9.5 59.5 C 5.849 51.148 4.693 33.992 10.5 31.5 C 17.005 28.748 26.658 44.848 36.5 49.25 C 38.96 50.35 37.172 45.963 38.258 44.832 C 39.345 43.7 40.845 43 42.5 43 Z " stroke-width="1"/>
  <path id="ID0.5736157060600817" fill="#FFFFFF" stroke="#000000" stroke-width="1" d="M 35.35 5.65 C 36.454 5.65 37.454 6.546 38.178 7.995 C 38.902 9.443 39.35 11.443 39.35 13.65 C 39.35 15.857 38.205 17.397 38.178 19.305 C 38.189 23.305 41.007 32.313 40.5 32.5 C 39.302 32.313 34.41 23.463 32.522 19.305 C 31.733 17.558 31.35 15.857 31.35 13.65 C 31.35 11.443 31.798 9.443 32.522 7.995 C 33.246 6.546 34.246 5.65 35.35 5.65 Z "/>
  <path id="ID0.3292163978330791" fill="#FFFFFF" stroke="#000000" stroke-width="0.9999999920926457" d="M 36.1846 21.8255 C 36.9748 21.5781 37.9164 22.0754 38.7998 23.0793 C 39.6832 24.0832 40.5083 25.5937 41.0647 27.3706 C 41.6211 29.1475 41.0439 30.7073 41.6519 32.1872 C 43.026 35.4004 48.0168 41.9985 47.4776 42.4953 C 46.9718 42.3257 40.406 36.3665 37.6038 33.4549 C 36.4902 32.2946 35.8953 30.9405 35.3389 29.1636 C 34.7824 27.3867 34.5986 25.6754 34.7516 24.347 C 34.9047 23.0186 35.3945 22.073 36.1846 21.8255 Z "/>
  <path id="ID0.9570666430518031" fill="#FFFFFF" stroke="#000000" stroke-width="0.9033477670107168" d="M 41.6086 34.9229 C 42.3068 34.603 43.2075 34.8987 44.0986 35.6355 C 44.9905 36.3719 45.8728 37.5494 46.5335 38.9913 C 47.1941 40.4331 46.6475 41.9541 47.4852 43.0266 C 50.3026 46.515 58.6625 52.9517 58.5028 53.4715 C 57.8675 53.316 48.1238 47.5848 43.9089 44.6652 C 42.7768 43.8816 42.1347 42.7513 41.4741 41.3094 C 40.8134 39.8676 40.4977 38.4305 40.5224 37.2741 C 40.5462 36.1181 40.9104 35.2429 41.6086 34.9229 Z "/>
</svg>