<svg xmlns="http://www.w3.org/2000/svg" xmlns:xlink="http://www.w3.org/1999/xlink" version="1.1" width="66.89939119760164" height="73.36647798959383" viewBox="0.04039995698149401 4.101544845382525 66.89939119760164 73.36647798959383">
  <!-- Exported by Scratch - http://scratch.mit.edu/ -->
  <path id="ID0.49072065530344844" fill="#FFFFFF" stroke="#000000" stroke-width="1.000000023285242" stroke-linecap="round" d="M 21.5915 28.4338 C 22.2764 28.7375 23.3215 28.5893 23.7492 28.0139 C 24.4983 27.0244 23.114 25.1232 23.8426 24.054 C 25.4592 22.7229 28.0579 22.7902 29.7704 21.8493 C 32.5624 20.2974 35.9047 19.3795 38.111 17.0603 C 40.996 14.0277 42.5908 9.6794 45.2766 6.0279 C 45.6874 5.2735 43.7977 3.0347 45.5902 6.4173 C 52.7657 19.9373 67.1855 44.8666 66.4097 47.4271 C 65.6326 49.9733 43.695 18.4613 40.253 22.9102 C 36.5252 27.76 52.0495 68.5933 51.2499 69.2601 C 50.4505 69.9256 40.1326 40.8647 31.0575 29.0293 C 28.7718 26.0514 25.4948 33.2009 25.6907 35.9176 C 27.0559 46.0761 37.0164 66.7373 35.3842 64.7019 C 33.6941 62.5834 21.5678 37.867 16.2843 24.2335 C 14.9639 20.8249 19.2855 27.4287 21.5915 28.4338 Z "/>
  <path id="ID0.13044894626364112" fill="#01EE4B" stroke="#000000" stroke-width="1" stroke-linecap="round" d="M 33.35 10 C 38.774 9.855 44.555 11.689 47 16 C 50.994 23.052 48.908 32.19 51 40 C 52.545 45.84 59.245 50.061 60 56 C 59.633 60.537 55.372 64.79 52 67 C 45.511 71.326 36 79.29 30 75 C 19.754 67.595 15.474 52.766 13 41 C 11.431 33.453 12.883 24.13 17.091 18.206 C 20.714 13.157 27.257 10.187 33.35 10 Z "/>
  <path id="ID0.05383919691666961" fill="#01EE4B" stroke="none" stroke-linecap="round" d="M 53.5 52 C 55.155 52 56.564 52.836 57.742 53.832 C 59.072 54.945 61.532 56.138 61.5 58 C 61.384 60.782 59.623 64.433 57 66 C 49.102 70.718 40.195 79.027 31.5 76.5 C 22.637 73.318 12.466 56.907 16.25 52.75 C 20.58 48.002 37.161 58.022 47.5 58.25 C 50.085 58.307 48.172 54.963 49.258 53.832 C 50.345 52.7 51.845 52 53.5 52 Z " stroke-width="1"/>
  <path id="ID0.49072065530344844" fill="#FFFFFF" stroke="#000000" stroke-width="1" stroke-linecap="round" d="M 13.75 25.5 C 14.093 26.166 15 26.706 15.694 26.526 C 16.898 26.225 17.012 23.876 18.25 23.5 C 20.344 23.477 22.326 25.159 24.25 25.5 C 27.398 26.042 30.577 27.423 33.75 27 C 37.899 26.447 41.868 24.06 46.25 22.9 C 47.043 22.57 46.148 20.073 46.25 23.4 C 46.658 36.708 47.399 50.58 47.75 64.4 C 47.789 67.552 48.532 69.708 47.25 66.9 C 42.124 55.668 38.143 43.73 32.75 32.4 C 31.701 29.598 34.15 29.544 31.75 32.9 C 24.282 45.836 12.291 75.882 11.25 75.9 C 10.21 75.917 18.018 46.635 20.75 31.9 C 21.433 28.216 21.901 27.385 20.25 29.9 C 13.646 39.959 7.436 50.979 1.25 61.9 C -0.179 64.357 0.845 66.012 1.75 62.4 C 5.371 47.963 7.816 32.833 12.25 18.9 C 13.359 15.417 12.584 23.271 13.75 25.5 Z "/>
</svg>