<svg xmlns="http://www.w3.org/2000/svg" xmlns:xlink="http://www.w3.org/1999/xlink" version="1.1" width="82.02473450891816" height="76.10924531214081" viewBox="0.4896756947405967 0.891720289028469 82.02473450891816 76.10924531214081">
  <!-- Exported by Scratch - http://scratch.mit.edu/ -->
  <path id="ID0.13044894626364112" fill="#01EE4B" stroke="#000000" stroke-width="1" stroke-linecap="round" d="M 42.55 1.4 C 47.974 1.255 53.918 3.005 56.2 7.4 C 60.885 16.398 57.959 27.528 59 37.5 C 60.245 42.26 61.615 46.961 63 51.5 C 63.754 53.63 72.634 56.671 67.2 56.9 C 45.466 57.817 2.662 54.279 2 53.5 C 0.273 53.301 41.156 52.943 54 51.5 C 58.573 50.98 40.602 48.103 35 50.5 C 31.905 51.831 32.956 62.152 31.2 59.9 C 27.117 54.504 23.288 41.62 22.2 32.4 C 21.293 24.744 22.083 15.53 26.291 9.606 C 29.914 4.557 36.457 1.587 42.55 1.4 Z "/>
  <path id="ID0.15543386712670326" fill="#01EE4B" stroke="#000000" stroke-width="1.0000000118478471" stroke-linecap="round" d="M 54.5599 26.9785 C 58.4872 21.9924 62.9881 16.3379 67.4184 12.0673 C 68.5619 10.9687 66.2045 14.7153 65.6906 15.9743 C 63.837 20.5699 62.0214 25.2239 60.3116 29.6441 C 59.8845 30.7502 60.1396 31.2857 59.5602 31.8772 C 58.9807 32.4687 58.1758 32.7301 57.3429 32.6743 C 56.5108 32.6191 55.6506 32.2468 54.9606 31.5708 C 54.2705 30.8948 53.8806 30.0424 53.8085 29.2116 C 53.7356 28.38 53.5784 28.2246 54.5599 26.9785 Z "/>
  <path id="ID0.13044894626364112" fill="#01EE4B" stroke="#000000" stroke-width="1" stroke-linecap="round" d="M 42.35 2 C 47.774 1.855 53.147 3.95 56 8 C 62.013 16.524 58.481 36.81 65 38 C 71.349 39.01 81.544 8.986 82 9.5 C 82.435 11.213 72.907 36.028 69 48 C 67.968 51.144 72.31 54.884 67 57.5 C 45.89 65.958 1.791 76.618 1 76.5 C 0.206 76.381 45.443 59.304 56 55 C 60.684 53.094 41.148 61.898 33 63.5 C 31.24 64.077 32.24 62.845 31 60.5 C 27.255 51.723 23.088 42.22 22 33 C 21.093 25.344 21.883 16.13 26.091 10.206 C 29.714 5.157 36.257 2.187 42.35 2 Z "/>
  <path id="ID0.05383919691666961" fill="#01EE4B" stroke="none" stroke-linecap="round" d="M 56.5 50.25 C 58.466 53.189 47.09 55.1 43 52.5 C 36.833 48.118 28.282 33.067 30.5 32.5 C 32.746 31.923 51.519 42.849 56.5 50.25 Z " stroke-width="1"/>
</svg>