<svg xmlns="http://www.w3.org/2000/svg" xmlns:xlink="http://www.w3.org/1999/xlink" version="1.1" width="56.55429458618164" height="90.67245483398438" viewBox="0.4460141062736511 0.44557905197143555 56.55429458618164 90.67245483398438">
  <!-- Exported by Scratch - http://scratch.mit.edu/ -->
  <path id="ID0.13044894626364112" fill="#01EE4B" stroke="#000000" stroke-width="1" stroke-linecap="round" d="M 28.35 7 C 33.774 6.855 39.555 8.689 42 13 C 45.994 20.052 43.908 29.19 46 37 C 47.545 42.84 54.245 47.061 55 53 C 54.633 57.537 50.372 61.79 47 64 C 40.511 68.326 31 76.29 25 72 C 14.754 64.595 10.474 49.766 8 38 C 6.431 30.453 7.883 21.13 12.091 15.206 C 15.714 10.157 22.257 7.187 28.35 7 Z "/>
  <path id="ID0.05383919691666961" fill="#01EE4B" stroke="none" stroke-linecap="round" d="M 48.5 49 C 50.155 49 51.564 49.836 52.742 50.832 C 54.072 51.945 56.532 53.138 56.5 55 C 56.384 57.782 54.487 61.224 52 63 C 44.987 68.005 37.734 72.938 29.5 75 C 27.108 75.597 23.039 71.697 24.5 69.5 C 28.63 63.204 36.843 60.646 42.5 55.25 C 43.914 53.901 43.172 51.963 44.258 50.832 C 45.345 49.7 46.845 49 48.5 49 Z " stroke-width="1"/>
  <path id="ID0.4615161926485598" fill="#04D036" stroke="#000000" stroke-width="1" stroke-linecap="round" d="M 10.5 2.5 C 14.571 11.008 13.103 22.322 14 31.25 C 14.229 33.511 12.61 34.965 13.047 37.082 C 14.796 45.545 18.283 51.958 20.5 59.5 C 23.224 68.872 26.331 79.298 27 90 C 27.492 92.05 24.465 88.466 23 87 C 17.648 81.323 13.218 74.889 9 68 C 6.031 63.148 4.615 57.429 3 52 C 2.051 48.844 2.273 45.674 2.5 42.5 C 1.767 38.505 1.339 34.561 1.5 30.5 C 1.812 21.592 -0.49 12.611 2.5 3.5 C 3.298 0.965 9.106 -0.223 10.5 2.5 Z "/>
</svg>