<svg xmlns="http://www.w3.org/2000/svg" xmlns:xlink="http://www.w3.org/1999/xlink" version="1.1" width="67.7365493774414" height="73.10482788085938" viewBox="0.8931102752685547 0.4929506778717041 67.7365493774414 73.10482788085938">
  <!-- Exported by Scratch - http://scratch.mit.edu/ -->
  <path id="ID0.15543386712670326" fill="#01EE4B" stroke="#000000" stroke-width="1" stroke-linecap="round" d="M 41 34 C 47.31 33.316 54.499 32.574 60.65 32.75 C 62.235 32.798 57.909 33.736 56.65 34.25 C 52.07 36.142 47.475 38.102 43.121 39.974 C 42.032 40.443 41.828 41 41 41 C 40.172 41 39.422 40.608 38.879 39.974 C 38.336 39.341 38 38.466 38 37.5 C 38 36.534 38.336 35.659 38.879 35.026 C 39.422 34.392 39.423 34.171 41 34 Z "/>
  <path id="ID0.13044894626364112" fill="#01EE4B" stroke="#000000" stroke-width="1" stroke-linecap="round" d="M 22.35 1 C 27.774 0.855 33.147 2.95 36 7 C 42.013 15.524 39.294 28.383 45 37 C 49.794 42.505 64.569 43.4 65 46 C 65.402 48.423 48.38 42.908 49 47 C 50.353 55.606 69.898 72.342 68 73 C 65.769 74.566 48.058 56.845 36 54 C 28.818 52.298 22.362 66.582 15.5 62.5 C 5.993 56.781 4.223 42.813 2 32 C 0.452 24.454 1.883 15.13 6.091 9.206 C 9.714 4.157 16.257 1.187 22.35 1 Z "/>
  <path id="ID0.05383919691666961" fill="#01EE4B" stroke="none" stroke-linecap="round" d="M 36.5 49.25 C 39.099 52.544 33.639 57.516 32 62 C 31.631 64.963 34.169 71.764 30.5 71.5 C 22.472 70.874 13.56 66.57 9.5 59.5 C 5.849 51.148 4.555 33.972 10.5 31.5 C 17.164 28.758 30.018 41.043 36.5 49.25 Z " stroke-width="1"/>
</svg>