<svg xmlns="http://www.w3.org/2000/svg" xmlns:xlink="http://www.w3.org/1999/xlink" version="1.1" width="61.51323699951172" height="66.64115905761719" viewBox="5.361364364624023 0.4298986792564392 61.51323699951172 66.64115905761719">
  <!-- Exported by Scratch - http://scratch.mit.edu/ -->
  <path id="ID0.13044894626364112" fill="#CCCCCC" stroke="#000000" stroke-width="0.9783330797116366" stroke-linecap="round" d="M 21.9978 20.9645 C 27.0907 19.0931 32.8208 19.2562 36.7668 22.0194 C 41.6121 25.4179 38.9637 35.9993 44.5893 37.9453 C 51.9263 39.7417 66.2415 29.0671 66.3737 30.5669 C 66.5034 32.0908 52.6055 40.6403 46.2034 45.8282 C 43.6018 48.2873 42.1168 52.1166 39.4789 53.4058 C 33.6165 56.1566 27.3565 58.709 20.8562 59.2086 C 17.6941 59.4518 13.2833 58.0938 12.2323 55.5675 C 9.4801 48.7415 6.9468 40.3269 9.1153 33.612 C 10.998 27.8772 16.2842 23.0884 21.9978 20.9645 Z "/>
  <path id="ID0.13044894626364112" fill="#01EE4B" stroke="#000000" stroke-width="0.978190642255385" stroke-linecap="round" d="M 21.0887 25.4688 C 26.2439 23.8504 32.2955 23.9509 35.8853 27.2271 C 41.1031 31.9879 43.2066 39.5303 44.2328 46.2478 C 44.6141 49.991 41.4422 53.239 39.8309 56.5379 C 38.2447 59.8036 38.0207 64.9325 34.4575 66.0578 C 29.063 67.7455 23.7958 64.846 19.039 63.4792 C 15.7211 62.6183 11.4655 62.0065 10.4706 59.4416 C 7.8698 52.5155 5.5264 44.0188 7.8613 37.4393 C 9.8864 31.8216 15.3045 27.3088 21.0887 25.4688 Z "/>
  <path id="ID0.13044894626364112" fill="#CCCCCC" stroke="#000000" stroke-width="0.9783330865659259" stroke-linecap="round" d="M 28.1 18.4375 C 33.524 18.2988 39.113 20.1557 41.75 24.1745 C 46.098 30.8008 42.801 40.7584 47.75 47.2661 C 51.241 52.178 66.577 53.6218 64.75 55.2502 C 62.914 56.8843 47.682 55.7445 39.25 55.7761 C 37.03 55.5772 35.895 54.839 34.25 54.7721 C 27.751 54.514 21.067 55.9061 14.75 54.294 C 11.677 53.51 7.935 50.8088 7.75 48.0789 C 7.333 40.7307 7.633 31.9482 11.841 26.2838 C 15.464 21.4561 22.007 18.6163 28.1 18.4375 Z "/>
  <path id="ID0.13044894626364112" fill="#01EE4B" stroke="#000000" stroke-width="0.9783330865659259" stroke-linecap="round" d="M 26.35 0.9375 C 31.774 0.7988 37.555 2.5524 40 6.6745 C 43.994 13.4175 44.962 21.9504 44 29.6227 C 43.541 33.1539 38.117 33.9609 35 35.8379 C 32.43 38.5993 30.751 43.3849 27 43.4873 C 21.326 43.6269 17.148 39.4063 13 36.794 C 10.079 35.0605 6.185 33.3088 6 30.5789 C 5.583 23.2307 5.883 14.4482 10.091 8.7838 C 13.714 3.9561 20.257 1.1163 26.35 0.9375 Z "/>
  <path id="ID0.6711135799996555" fill="#00FFFF" stroke="#000000" stroke-width="1" d="M 12.5 38.85 C 13.19 38.85 13.815 39.466 14.267 40.462 C 14.72 41.458 15 42.833 15 44.35 C 15 45.867 14.72 47.242 14.267 48.238 C 13.815 49.234 13.19 49.85 12.5 49.85 C 11.81 49.85 11.185 49.234 10.733 48.238 C 10.28 47.242 10 45.867 10 44.35 C 10 42.833 10.28 41.458 10.733 40.462 C 11.185 39.466 11.81 38.85 12.5 38.85 Z "/>
</svg>