<svg xmlns="http://www.w3.org/2000/svg" xmlns:xlink="http://www.w3.org/1999/xlink" version="1.1" width="85.64485562013965" height="70.13477718996387" viewBox="-0.06147939049890572 0.41662019408056206 85.64485562013965 70.13477718996387">
  <!-- Exported by Scratch - http://scratch.mit.edu/ -->
  <path id="ID0.13044894626364112" fill="#01EE4B" stroke="#000000" stroke-width="1" stroke-linecap="round" d="M 35.35 3 C 40.774 2.855 46.555 4.689 49 9 C 52.994 16.052 50.908 25.19 53 33 C 54.545 38.84 61.245 43.061 62 49 C 61.633 53.537 57.372 57.79 54 60 C 47.511 64.326 38 72.29 32 68 C 21.754 60.595 17.474 45.766 15 34 C 13.431 26.453 14.883 17.13 19.091 11.206 C 22.714 6.157 29.257 3.187 35.35 3 Z "/>
  <path id="ID0.05383919691666961" fill="#01EE4B" stroke="none" stroke-linecap="round" d="M 55.5 45 C 57.155 45 58.564 45.836 59.742 46.832 C 61.072 47.945 63.532 49.138 63.5 51 C 63.384 53.782 61.623 57.433 59 59 C 51.102 63.718 42.195 72.027 33.5 69.5 C 24.637 66.318 14.466 49.907 18.25 45.75 C 22.58 41.002 39.161 51.022 49.5 51.25 C 52.085 51.307 50.172 47.963 51.258 46.832 C 52.345 45.7 53.845 45 55.5 45 Z " stroke-width="1"/>
  <path id="ID0.49072065530344844" fill="#82EFFF" stroke="#000000" stroke-width="1" stroke-linecap="round" d="M 15.75 18.5 C 16.738 19.662 17 19.706 17.694 19.526 C 18.898 19.225 19.012 16.876 20.25 16.5 C 22.344 16.477 24.326 18.159 26.25 18.5 C 29.398 19.042 32.946 21.018 35.75 20 C 42.666 17.444 55.583 4.53 55 9 C 53.968 16.535 40.281 34.621 31 46 C 26.085 52.014 19.483 58.874 11.75 61 C 8.759 61.752 10.207 54.77 9.25 51.5 C 6.542 43.277 1.639 35.244 0.75 26.5 C 0.016 18.956 0.935 5.012 5.25 2.5 C 8.435 1.012 11.797 13.853 15.75 18.5 Z "/>
  <path id="ID0.4211739134043455" fill="#82EFFF" stroke="#000000" stroke-width="1" stroke-linecap="round" d="M 65.25 1 C 68.078 1 70.055 2.113 72.496 2.246 C 76.331 2.435 84.755 0.548 85 1.5 C 84.755 2.619 76.548 6.624 72.496 8.254 C 70.225 9.166 68.078 9.5 65.25 9.5 C 62.422 9.5 60.436 8.302 58.004 8.254 C 55.442 8.218 50.074 11.097 50 10 C 50.074 8.398 55.005 3.925 58.004 2.246 C 60.136 1.061 62.422 1 65.25 1 Z "/>
  <path id="ID0.4211739134043455" fill="#82EFFF" stroke="#000000" stroke-width="1.1667596118388759" stroke-linecap="round" d="M 68.915 20.5402 C 71.127 23.5209 71.7795 26.2679 73.582 28.9199 C 76.4298 33.0746 84.534 40.8288 83.9611 41.6544 C 82.8709 42.063 73.2356 35.7996 68.7573 32.5003 C 66.2487 30.6501 64.3012 28.5863 62.0892 25.6056 C 59.8773 22.6249 59.286 19.8178 57.4223 17.2259 C 55.4473 14.5041 48.9368 10.562 49.7598 9.8303 C 51.1042 8.9536 58.553 11.4852 62.2469 13.6456 C 64.8661 15.1865 66.7031 17.5595 68.915 20.5402 Z "/>
</svg>