<svg xmlns="http://www.w3.org/2000/svg" xmlns:xlink="http://www.w3.org/1999/xlink" version="1.1" width="85.22038269042969" height="76.10801696777344" viewBox="0.48967570066452026 0.8929506540298462 85.22038269042969 76.10801696777344">
  <!-- Exported by Scratch - http://scratch.mit.edu/ -->
  <path id="ID0.13044894626364112" fill="#01EE4B" stroke="#000000" stroke-width="1" stroke-linecap="round" d="M 42.55 1.4 C 47.974 1.255 53.347 3.35 56.2 7.4 C 62.213 15.924 59.494 28.783 65.2 37.4 C 69.994 42.905 84.769 43.8 85.2 46.4 C 85.602 48.823 73.851 44.829 69.2 47.4 C 66.639 48.858 72.815 56.332 67.2 56.9 C 44.741 59.17 2.662 54.279 2 53.5 C 0.273 53.301 41.156 52.943 54 51.5 C 58.573 50.98 40.602 48.103 35 50.5 C 31.905 51.831 32.956 62.152 31.2 59.9 C 27.117 54.504 23.288 41.62 22.2 32.4 C 21.293 24.744 22.083 15.53 26.291 9.606 C 29.914 4.557 36.457 1.587 42.55 1.4 Z "/>
  <path id="ID0.15543386712670326" fill="#01EE4B" stroke="#000000" stroke-width="1" stroke-linecap="round" d="M 61 35 C 67.31 34.316 74.499 33.574 80.65 33.75 C 82.235 33.798 77.909 34.736 76.65 35.25 C 72.07 37.142 67.475 39.102 63.121 40.974 C 62.032 41.443 61.828 42 61 42 C 60.172 42 59.422 41.608 58.879 40.974 C 58.336 40.341 58 39.466 58 38.5 C 58 37.534 58.336 36.659 58.879 36.026 C 59.422 35.392 59.423 35.171 61 35 Z "/>
  <path id="ID0.13044894626364112" fill="#01EE4B" stroke="#000000" stroke-width="1" stroke-linecap="round" d="M 42.35 2 C 47.774 1.855 53.147 3.95 56 8 C 62.013 16.524 59.294 29.383 65 38 C 69.794 43.505 84.569 44.4 85 47 C 85.402 49.423 73.651 45.429 69 48 C 66.439 49.458 72.31 54.884 67 57.5 C 45.89 65.958 1.791 76.618 1 76.5 C 0.206 76.381 45.443 59.304 56 55 C 60.684 53.094 41.148 61.898 33 63.5 C 31.24 64.077 32.24 62.845 31 60.5 C 27.255 51.723 23.088 42.22 22 33 C 21.093 25.344 21.883 16.13 26.091 10.206 C 29.714 5.157 36.257 2.187 42.35 2 Z "/>
  <path id="ID0.05383919691666961" fill="#01EE4B" stroke="none" stroke-linecap="round" d="M 56.5 50.25 C 58.466 53.189 47.09 55.1 43 52.5 C 36.833 48.118 28.282 33.067 30.5 32.5 C 32.746 31.923 51.519 42.849 56.5 50.25 Z " stroke-width="1"/>
</svg>