<svg xmlns="http://www.w3.org/2000/svg" xmlns:xlink="http://www.w3.org/1999/xlink" version="1.1" width="56.79071044921875" height="71.50714874267578" viewBox="0.8931102752685547 0.4928516745567322 56.79071044921875 71.50714874267578">
  <!-- Exported by Scratch - http://scratch.mit.edu/ -->
  <path id="ID0.13044894626364112" fill="#01EE4B" stroke="#000000" stroke-width="1" stroke-linecap="round" d="M 22.35 1 C 27.774 0.855 33.182 2.918 36 7 C 45.385 20.639 51.76 37.341 57 54 C 58.326 57.543 52.15 45.871 49 47 C 44.769 48.525 45.125 56.132 41 58 C 33.577 61.365 22.819 66.954 15.5 62.5 C 6.518 56.087 4.223 42.813 2 32 C 0.452 24.454 1.883 15.13 6.091 9.206 C 9.714 4.157 16.257 1.187 22.35 1 Z "/>
  <path id="ID0.05383919691666961" fill="#01EE4B" stroke="none" stroke-linecap="round" d="M 42.5 43 C 44.155 43 45.564 43.836 46.742 44.832 C 48.072 45.945 50.532 47.138 50.5 49 C 50.384 51.782 48.106 54.79 46 57 C 40.754 62.475 37.521 71.097 30.5 71.5 C 21.656 70.643 13.56 66.57 9.5 59.5 C 5.849 51.148 4.693 33.992 10.5 31.5 C 17.005 28.748 26.658 44.848 36.5 49.25 C 38.96 50.35 37.172 45.963 38.258 44.832 C 39.345 43.7 40.845 43 42.5 43 Z " stroke-width="1"/>
</svg>