<svg xmlns="http://www.w3.org/2000/svg" xmlns:xlink="http://www.w3.org/1999/xlink" version="1.1" width="204.91087341308594" height="68.70510864257812" viewBox="-0.42346012592315674 0.0016093254089355469 204.91087341308594 68.70510864257812">
  <!-- Exported by Scratch - http://scratch.mit.edu/ -->
  <path id="ID0.28402591217309237" fill="#00CC44" stroke="#000000" stroke-width="0.9407480474274355" d="M 180.3923 0.65 C 187.9275 -0.064 195.4485 1.948 202.9003 3.5 C 204.772 3.483 203.6251 2.806 203.7778 4.5 C 203.0574 9.707 201.312 14.644 199.2587 20.15 C 197.53 24.793 197.1448 30.405 193.7295 33.935 C 190.3143 37.465 185.0615 38.691 180.3923 39.65 C 164.8754 42.867 147.7992 45.487 130.945 47.5 C 127.3182 47.781 134.5164 47.593 137.0875 44.5 C 147.3534 32.224 156.6085 16.891 167.0551 6.365 C 170.6082 2.782 175.6652 1.097 180.3923 0.65 Z "/>
  <g id="ID0.9230008474551141">
    <path id="ID0.35488262167200446" fill="#01EE4B" stroke="#000000" stroke-width="0.9753630113350221" stroke-linecap="round" d="M 19.9518 5 C 20.9646 3.971 20.7604 5.136 21.852 6 C 26.3212 7.331 29.4337 8.405 35.1532 11 C 58.0304 21.378 77.0312 42.077 101.1843 42.65 C 130.8033 43.337 170.4875 15.357 188.5923 13.65 C 196.3356 13.012 167.2619 31.733 156.2894 37.65 C 133.9072 49.726 112.192 67.719 86.553 68.2 C 62.5119 68.643 42.6703 47.075 19.9043 38.95 C 14.2133 36.919 7.2425 42.441 3.8003 39 C 1.7795 36.191 7.6425 30.691 8.9783 26.45 C 9.9151 23.469 10.8747 20.439 12.1801 17.614 C 14.2855 13.018 16.8279 8.696 19.9518 5 Z "/>
    <path id="ID0.9421507022343576" fill="#01EE4B" stroke="none" stroke-linecap="round" d="M 13.3012 1 C 17.2963 0.89 21.5556 3.647 23.8472 6.45 C 26.726 9.893 27.9896 15.072 27.9801 19.45 C 27.9687 23.127 26.5473 26.989 24.2206 29.7 C 21.5556 32.808 17.3296 34.938 13.3962 36.45 C 9.251 38.046 3.6968 41.719 1.9002 38 C -1.8118 33.258 1.0907 25.845 2.3277 19.45 C 3.0099 15.868 4.0502 12.137 6.0872 9.2 C 8.1023 6.282 10.0871 2.003 13.3012 1 Z " stroke-width="0.9753630113350221"/>
  </g>
</svg>