<svg xmlns="http://www.w3.org/2000/svg" xmlns:xlink="http://www.w3.org/1999/xlink" version="1.1" width="192.53846741391368" height="131.60095215512462" viewBox="5.627993580335639 33.537986752027535 192.53846741391368 131.60095215512462">
  <!-- Exported by Scratch - http://scratch.mit.edu/ -->
  <path id="ID0.35488262167200446" fill="#01EE4B" stroke="#000000" stroke-width="0.7984732938759782" stroke-linecap="round" d="M 25.4222 52.5777 C 25.2318 51.0493 26.1225 52.4953 27.2035 52.6987 C 31.0978 52.3114 32.8741 52.0996 39.0571 52.0722 C 63.7883 51.9628 88.4022 55.0041 113.3269 51.4977 C 130.2099 49.1209 165.3595 30.1912 161.7093 34.7411 C 157.9991 39.3169 120.4683 68.8855 96.5245 77.5577 C 76.8325 83.7452 55.5448 81.4298 35.8375 77.6052 C 23.1284 63.695 26.2525 58.6173 25.4222 52.5777 Z "/>
  <path id="ID0.35488262167200446" fill="#01EE4B" stroke="#000000" stroke-width="0.7984732880107518" stroke-linecap="round" d="M 43.8072 65.0698 C 43.6505 63.5376 44.5092 65.0029 45.5854 65.23 C 49.4873 64.9286 51.2679 64.7559 57.45 64.8646 C 82.1776 65.2997 106.9786 66.2172 131.7144 65.9253 C 152.7666 65.7042 198.4848 62.5664 196.5293 65.4177 C 194.5229 68.192 144.2154 81.0697 117.6767 85.2406 C 96.4502 89.3993 73.8873 96.1054 53.669 90.3205 C 44.6361 86.611 44.5043 71.1262 43.8072 65.0698 Z "/>
  <g id="ID0.9230008474551141">
    <path id="ID0.35488262167200446" fill="#01EE4B" stroke="#000000" stroke-width="1" stroke-linecap="round" d="M 31 52 C 32.066 50.971 31.851 52.136 33 53 C 37.704 54.331 39.842 55.046 47 58 C 75.631 69.816 102.605 85.216 133.1 93.2 C 153.757 98.606 203.515 93.705 197.1 97.2 C 190.603 100.696 132.956 116.741 101.1 115.2 C 75.357 112.841 54.912 94.075 30.95 85.95 C 24.96 83.919 17.623 89.441 14 86 C 11.873 83.191 18.044 77.691 19.45 73.45 C 20.436 70.469 21.446 67.439 22.82 64.614 C 25.036 60.018 27.712 55.696 31 52 Z "/>
    <path id="ID0.9421507022343576" fill="#01EE4B" stroke="none" stroke-linecap="round" d="M 24 48 C 28.205 47.89 32.688 50.647 35.1 53.45 C 38.13 56.893 39.46 62.072 39.45 66.45 C 39.438 70.127 37.942 73.989 35.493 76.7 C 32.688 79.808 28.24 81.938 24.1 83.45 C 19.737 85.046 13.891 88.719 12 85 C 8.093 80.258 11.148 72.845 12.45 66.45 C 13.168 62.868 14.263 59.137 16.407 56.2 C 18.528 53.282 20.617 49.003 24 48 Z " stroke-width="1"/>
  </g>
  <g id="ID0.9230008474551141">
    <path id="ID0.35488262167200446" fill="#01EE4B" stroke="#000000" stroke-width="1.0000000066871202" stroke-linecap="round" d="M 33.1359 63.2118 C 34.4533 62.5339 33.9115 63.5874 34.7626 64.746 C 38.883 67.3769 40.724 68.6781 46.7261 73.5707 C 70.7337 93.1407 93.8538 114.0832 119.0185 132.1031 C 136.0162 144.2526 173.5922 156.5953 174.5128 161.4521 C 175.2811 167.3105 139.6553 163.9518 123.4856 160.4452 C 109.0001 157.2483 95.1319 152.6573 82.0339 143.9411 C 60.9597 129.9311 42.533 112.1545 23.2982 95.7052 C 18.4174 91.5315 15.3271 89.2881 13.5253 84.9816 C 12.4087 83.2658 14.6423 81.8205 15.8912 80.4201 C 17.9018 78.0439 19.5357 75.24 21.666 72.9312 C 25.1132 69.1694 28.9218 65.8027 33.1359 63.2118 Z "/>
    <path id="ID0.9421507022343576" fill="#01EE4B" stroke="none" stroke-linecap="round" d="M 27.5867 57.3632 C 31.6448 58.4704 35.1423 62.403 36.6436 65.7825 C 38.5521 69.9529 38.3322 75.2955 37.0602 79.4846 C 35.9884 83.002 33.6795 86.7431 30.3156 88.1582 C 27.2708 89.4636 24.3212 86.3749 21.5136 84.9853 C 16.3729 83.6513 9.3381 84.4005 6.5145 79.9983 C 4.8009 77.3831 9.224 75.0692 11.2071 71.6989 C 13.0993 68.5749 15.0518 65.2194 17.9517 63.0254 C 20.824 60.8429 24.0581 57.3481 27.5867 57.3632 Z " stroke-width="1.0000000066871202"/>
  </g>
</svg>