<svg xmlns="http://www.w3.org/2000/svg" xmlns:xlink="http://www.w3.org/1999/xlink" version="1.1" width="160.3521728515625" height="92.35254669189453" viewBox="-0.33914804458618164 0.6474570035934448 160.3521728515625 92.35254669189453">
  <defs>
    <linearGradient id="grad_1" x2="1">
      <stop offset="0" stop-color="#04D036" stop-opacity="1"/>
      <stop offset="1" stop-color="#04D036" stop-opacity="0"/>
    </linearGradient>
  <linearGradient id="grad_1-,0,0,1,-239.9,-131.75" x2="54.9535" x1="23.75" y1="24.3551" y2="24.3551" gradientUnits="userSpaceOnUse">
      <stop offset="0" stop-color="#04D036" stop-opacity="1"/>
      <stop offset="1" stop-color="#04D036" stop-opacity="0"/>
    </linearGradient></defs>
  <!-- Exported by Scratch - http://scratch.mit.edu/ -->
  <path id="ID0.0808516452088952" fill="#00CC44" stroke="#000000" stroke-width="1" stroke-linecap="round" d="M 41.5 28.5 C 74.508 19.797 105.935 6.361 139 2.5 C 147.85 1.583 136.058 12.902 138 17.5 C 139.533 21.167 149.566 19.386 149 23.5 C 147.914 31.427 134.079 33.595 133 41.5 C 131.876 49.048 148.349 51.799 146 58.5 C 142.636 67.894 122.929 65.832 119 75.5 C 116.493 81.736 139.206 91.081 133 90.5 C 113.829 89.133 89.562 79.242 68 71.5 C 58.609 68.122 50.883 61.972 40.95 57.65 C 36.338 55.644 30.169 56.025 26.458 53.4 C 22.747 50.775 20.45 47.15 20.45 43.15 C 20.45 39.15 23.173 35.285 26.458 32.9 C 30.557 29.92 33.233 30.641 41.5 28.5 Z "/>
  <path id="ID0.39674359979107976" fill="url(#grad_1-,0,0,1,-239.9,-131.75)" stroke="none" stroke-linecap="round" d="M 31.375 28.75 C 38.843 26.943 49.311 23.121 54.5 24.75 C 57.081 25.562 47.865 29.926 46.5 33.75 C 45.982 35.364 50.797 36.171 50 37.75 C 48.449 40.811 43.634 41.06 41.25 43.75 C 39.24 45.971 39.982 50.403 37.25 52 C 35.415 53.072 33.213 50.347 31.375 49.5 C 29.505 48.641 27.365 48.337 25.985 46.459 C 24.604 44.581 23.75 41.987 23.75 39.125 C 23.75 36.263 24.604 33.669 25.985 31.791 C 27.365 29.913 29.372 29.234 31.375 28.75 Z " stroke-width="1"/>
  <path id="ID0.6462057833559811" fill="#01EE4B" stroke="#000000" stroke-width="1" stroke-linecap="round" d="M 23.25 29.5 C 48.628 22.02 63.041 17.676 83.1 12.5 C 97.351 8.823 111.454 3.884 126 1.5 C 137.11 0.526 160.139 1.806 159.5 2.5 C 158.853 3.201 132.837 3.421 120 6.5 C 89.132 14.795 39.265 30.376 28.85 36.5 C 21.762 40.651 61.869 33.945 78 32.5 C 102.059 29.281 152.779 21.172 149.5 22.5 C 146.221 23.828 84.595 35.834 52.5 41.5 C 43.724 42.86 34.99 42.436 27.35 43.5 C 25.44 43.766 25.972 44.393 26.5 44.5 C 28.564 44.859 31.284 44.568 34.5 44.5 C 47.364 44.228 59.876 42.713 72.5 43.5 C 89.943 44.517 106.582 47.181 123 50.5 C 131.299 51.858 147.283 57.103 146.5 57.5 C 145.611 57.897 127.793 54.133 118 53.5 C 93.463 51.467 54.132 44.207 43.5 49.5 C 36.48 52.997 65.197 67.854 78 73.5 C 96.831 81.804 138.192 91.832 138 92.5 C 137.754 92.207 94.751 83.593 74.5 76.5 C 53.274 69.065 35.689 59.562 13.5 47.5 C 7.954 44.478 12.253 42.156 11.6 39.5 C 11.188 37.265 10.012 34.223 11.939 32.651 C 14.945 30.181 16.905 31.37 23.25 29.5 Z "/>
  <path id="ID0.342473431956023" fill="#01EE4B" stroke="none" stroke-linecap="round" d="M 20.6 33.5 C 22.106 34.5 24.281 34.396 25.548 35.845 C 26.816 37.293 27.753 39.509 27.6 41.5 C 27.465 43.154 25.813 45.069 24.1 45.5 C 18.617 46.884 12.172 48.364 7 45.5 C 3.024 44.1 -1.056 38.75 0.5 34.5 C 2.07 30.254 8.939 29.402 13.5 29.5 C 16.398 29.031 18.311 31.97 20.6 33.5 Z " stroke-width="1"/>
</svg>