<svg xmlns="http://www.w3.org/2000/svg" xmlns:xlink="http://www.w3.org/1999/xlink" version="1.1" width="176.9715576171875" height="97.45732116699219" viewBox="-0.41945338249206543 0.07945728302001953 176.9715576171875 97.45732116699219">
  <!-- Exported by Scratch - http://scratch.mit.edu/ -->
  <g id="ID0.9230008474551141">
    <path id="ID0.35488262167200446" fill="#01EE4B" stroke="#000000" stroke-width="1" stroke-linecap="round" d="M 21 31 C 22.066 29.971 21.851 31.136 23 32 C 27.704 33.331 31.187 34.359 37 37 C 60.251 47.564 82.598 64.125 108.5 70 C 114.567 71.517 123.827 63.521 123.5 57 C 122.971 47.771 116.134 37.271 107.5 33 C 101.321 30.086 91.125 34.673 88.5 39 C 86.801 41.927 93.366 47.402 97.5 49 C 101.603 49.756 109.044 43.02 109.5 45 C 109.788 46.983 103.497 55.682 98.5 56 C 87.874 56.96 74.561 56.039 67.5 48 C 59.915 39.363 52.632 21.305 61.5 14 C 76.73 1.466 101.945 -2.503 121.5 3 C 143.821 10.353 169.736 26.062 175.5 49 C 179.867 66.43 157.379 82.755 141.5 91 C 126.635 99.22 107.218 97.747 91.1 94.2 C 66.384 88.76 44.912 73.075 20.95 64.95 C 14.96 62.919 7.623 68.441 4 65 C 1.873 62.191 8.044 56.691 9.45 52.45 C 10.436 49.469 11.446 46.439 12.82 43.614 C 15.036 39.018 17.712 34.696 21 31 Z "/>
    <path id="ID0.9421507022343576" fill="#01EE4B" stroke="none" stroke-linecap="round" d="M 14 27 C 18.205 26.89 22.688 29.647 25.1 32.45 C 28.13 35.893 29.46 41.072 29.45 45.45 C 29.438 49.127 27.942 52.989 25.493 55.7 C 22.688 58.808 18.24 60.938 14.1 62.45 C 9.737 64.046 3.891 67.719 2 64 C -1.907 59.258 1.148 51.845 2.45 45.45 C 3.168 41.868 4.263 38.137 6.407 35.2 C 8.528 32.282 10.617 28.003 14 27 Z " stroke-width="1"/>
  </g>
</svg>