<svg xmlns="http://www.w3.org/2000/svg" xmlns:xlink="http://www.w3.org/1999/xlink" version="1.1" width="173.9886016845703" height="108.38639068603516" viewBox="-0.41945338249206543 6.410299777984619 173.9886016845703 108.38639068603516">
  <!-- Exported by Scratch - http://scratch.mit.edu/ -->
  <g id="ID0.9230008474551141">
    <path id="ID0.35488262167200446" fill="#01EE4B" stroke="#000000" stroke-width="1" stroke-linecap="round" d="M 21 49 C 22.066 47.971 21.851 49.136 23 50 C 27.704 51.331 32.453 53.041 37 55 C 52.635 61.729 67.511 79.811 84.75 75.9 C 107.706 70.474 139.508 24.938 140.75 30.9 C 141.992 36.862 120.307 98.946 91.1 112.2 C 68.056 122.647 44.912 91.075 20.95 82.95 C 14.96 80.919 7.623 86.441 4 83 C 1.873 80.191 8.044 74.691 9.45 70.45 C 10.436 67.469 11.446 64.439 12.82 61.614 C 15.036 57.018 17.712 52.696 21 49 Z "/>
    <path id="ID0.9421507022343576" fill="#01EE4B" stroke="none" stroke-linecap="round" d="M 14 45 C 18.205 44.89 22.688 47.647 25.1 50.45 C 28.13 53.893 29.46 59.072 29.45 63.45 C 29.438 67.127 27.942 70.989 25.493 73.7 C 22.688 76.808 18.24 78.938 14.1 80.45 C 9.737 82.046 3.891 85.719 2 82 C -1.907 77.258 1.148 69.845 2.45 63.45 C 3.168 59.868 4.263 56.137 6.407 53.2 C 8.528 50.282 10.617 46.003 14 45 Z " stroke-width="1"/>
  </g>
  <path id="ID0.7249003322795033" fill="#CCCCCC" stroke="#000000" stroke-width="0.999999989815425" stroke-linecap="round" d="M 131.6312 61.6201 C 118.6822 69.4002 102.5376 72.5067 87.3401 77.0708 C 84.0003 78.1389 83.9597 77.2486 83.1595 76.3482 C 82.6651 75.5882 82.2395 78.0714 84.7939 75.1955 C 94.2192 61.7631 101.6704 46.3333 113.1884 35.4693 C 125.5249 23.8433 142.4146 13.3415 155.4185 7.0327 C 158.8414 5.4888 143.4893 19.047 146.042 19.7638 C 150.0826 20.7443 164.7702 10.7811 167.4787 11.9877 C 169.8238 13.0798 155.2956 22.0127 155.9155 24.9149 C 156.4714 27.2456 169.4449 21.0341 168.3388 23.6178 C 165.9504 29.0785 149.5458 38.592 149.8784 39.0843 C 150.2233 39.5544 175.6475 23.2149 172.8549 26.5512 C 167.6956 33.0349 147.0722 52.3297 131.6312 61.6201 Z "/>
  <path id="ID0.9650932652875781" fill="#00FFFF" stroke="#000000" stroke-width="0.9999999921775533" stroke-linecap="round" d="M 127.9026 34.2871 C 128.8995 35.2398 128.9901 36.9544 128.3324 38.9539 C 127.6733 40.9535 126.3214 43.749 124.263 45.3326 C 121.6473 47.291 117.0599 46.1991 113.7611 48.5061 C 103.2206 57.5283 83.9075 78.6758 83.746 78.5395 C 83.6072 78.1883 103.7023 55.6912 112.9641 44.8024 C 115.2816 42.0791 115.0319 40.5182 117.0334 38.4237 C 119.0349 36.3293 121.2534 34.8184 123.221 34.0694 C 125.1887 33.3217 126.9056 33.3344 127.9026 34.2871 Z "/>
</svg>