<svg xmlns="http://www.w3.org/2000/svg" xmlns:xlink="http://www.w3.org/1999/xlink" version="1.1" width="166.3578338623047" height="45.243595123291016" viewBox="-0.41945338249206543 -0.5026365264784545 166.3578338623047 45.243595123291016">
  <!-- Exported by Scratch - http://scratch.mit.edu/ -->
  <g id="ID0.9230008474551141">
    <path id="ID0.35488262167200446" fill="#01EE4B" stroke="#000000" stroke-width="0.9175194747874983" stroke-linecap="round" d="M 21 3.3074 C 22.066 2.4566 20.374 3.8035 23 4.1343 C 33.504 5.4506 43.9 6.9745 55 7.8551 C 58.6 8.08 68.008 6.1022 67 7.4417 C 64.34 9.2905 34.766 14.5361 41 14.0565 C 56.9 12.8228 88.343 5.4523 112 5.3745 C 123.935 4.7494 142.98 9.8478 146 11.9894 C 148.336 13.5926 132.485 12.6318 126 12.8162 C 121.641 12.9378 110.347 10.296 113 11.1625 C 119.722 13.2941 134.636 16.2179 145 17.7773 C 151.219 18.7199 158.218 17.4813 164 17.7773 C 165.584 17.8509 166.585 17.2382 163 18.6042 C 148.599 24.068 130.928 28.9869 118 35.1412 C 114.655 36.9595 124.623 33.6355 128 33.4875 C 135.165 33.2692 151.602 31.3154 148 32.6606 C 142.676 36.1119 122.424 44.1175 108 44.2366 C 82.766 44.4623 45.516 35.8515 33 35.1412 C 26.388 34.7675 59.321 40.1544 66 42.5829 C 68.697 43.6073 57.832 42.4605 54 42.5829 C 42.844 42.1852 31.116 44.058 21 41.756 C 16.011 40.6108 14.767 34.9634 10 32.6606 C 8.28 31.7801 4.549 33.4214 4 31.4204 C 3.309 27.9046 8.044 24.5501 9.45 21.0434 C 10.436 18.5785 11.446 16.0732 12.82 13.7373 C 15.036 9.9371 17.712 6.3635 21 3.3074 Z "/>
    <path id="ID0.9421507022343576" fill="#01EE4B" stroke="none" stroke-linecap="round" d="M 14 0 C 18.205 -0.091 22.688 2.1887 25.1 4.5063 C 28.13 7.3532 29.46 11.6355 29.45 15.2554 C 29.438 18.2958 27.942 21.4891 25.493 23.7306 C 22.688 26.3005 18.24 28.0617 14.1 29.3119 C 9.737 30.6316 3.891 33.6686 2 30.5935 C -1.907 26.6726 1.148 20.5431 2.45 15.2554 C 3.168 12.2936 4.263 9.2086 6.407 6.7802 C 8.528 4.3674 10.617 0.8293 14 0 Z " stroke-width="0.9175194747874983"/>
  </g>
</svg>