<svg xmlns="http://www.w3.org/2000/svg" xmlns:xlink="http://www.w3.org/1999/xlink" version="1.1" width="177.86602783871837" height="138.97784424496837" viewBox="6.634953495496772 13.44306754731562 177.86602783871837 138.97784424496837">
  <!-- Exported by Scratch - http://scratch.mit.edu/ -->
  <path id="ID0.35488262167200446" fill="#01EE4B" stroke="#000000" stroke-width="0.7984732938759782" stroke-linecap="round" d="M 26.4222 42.6277 C 26.2318 41.0993 27.1225 42.5453 28.2035 42.7487 C 32.0978 42.3614 33.8741 42.1496 40.0571 42.1222 C 64.7883 42.0128 90.7593 49.0432 114.3269 41.5477 C 124.8803 38.1951 127.4518 12.0554 130.0099 14.0517 C 132.6304 16.0919 137.4972 45.6699 126.0016 51.9864 C 100.2227 67.1145 67.4831 70.5868 36.8375 67.6552 C 27.8511 66.7953 27.2525 48.6673 26.4222 42.6277 Z "/>
  <path id="ID0.35488262167200446" fill="#01EE4B" stroke="#000000" stroke-width="0.7984732880107518" stroke-linecap="round" d="M 44.8072 55.0698 C 44.6505 53.5376 45.5092 55.0029 46.5854 55.23 C 50.4873 54.9286 52.2679 54.7559 58.45 54.8646 C 83.1776 55.2997 108.5343 61.1061 132.7144 55.9253 C 147.6962 52.7118 156.927 38.1561 169.9873 31.0124 C 173.3361 29.2683 174.5751 29.4204 171.9756 33.02 C 161.8797 47.7014 155.3676 67.8585 138.9914 74.0051 C 112.9039 84.9611 82.4379 86.0907 54.669 80.3205 C 45.833 78.4816 45.5043 61.1262 44.8072 55.0698 Z "/>
  <g id="ID0.9230008474551141">
    <path id="ID0.35488262167200446" fill="#01EE4B" stroke="#000000" stroke-width="1" stroke-linecap="round" d="M 32 42 C 33.066 40.971 32.851 42.136 34 43 C 38.704 44.331 40.842 45.046 48 48 C 76.631 59.816 103.22 81.044 134.1 83.2 C 153.703 84.59 183.828 49.864 184 54 C 184.172 58.136 161.477 106.536 138 110 C 100.933 115.276 66.797 85.795 31.95 75.95 C 23.238 73.489 18.623 79.441 15 76 C 12.873 73.191 19.044 67.691 20.45 63.45 C 21.436 60.469 22.446 57.439 23.82 54.614 C 26.036 50.018 28.712 45.696 32 42 Z "/>
    <path id="ID0.9421507022343576" fill="#01EE4B" stroke="none" stroke-linecap="round" d="M 25 38 C 29.205 37.89 33.688 40.647 36.1 43.45 C 39.13 46.893 40.46 52.072 40.45 56.45 C 40.438 60.127 38.942 63.989 36.493 66.7 C 33.688 69.808 29.24 71.938 25.1 73.45 C 20.737 75.046 14.891 78.719 13 75 C 9.093 70.258 12.148 62.845 13.45 56.45 C 14.168 52.868 15.263 49.137 17.407 46.2 C 19.528 43.282 21.617 39.003 25 38 Z " stroke-width="1"/>
  </g>
  <g id="ID0.9230008474551141">
    <path id="ID0.35488262167200446" fill="#01EE4B" stroke="#000000" stroke-width="1.0000000066871202" stroke-linecap="round" d="M 34.1387 53.2329 C 35.4561 52.555 34.9143 53.6085 35.7653 54.7671 C 39.8857 57.398 41.7267 58.6991 47.7289 63.5917 C 71.7364 83.1618 90.0314 114.4117 120.0213 122.1242 C 138.6557 126.9276 168.6613 88.7702 168.997 93.0101 C 170.1452 98.186 146.4953 140.787 124.4884 150.4662 C 110.9039 156.4325 96.1347 142.6784 83.0367 133.9622 C 61.9624 119.9522 43.5358 102.1756 24.301 85.7263 C 19.4202 81.5526 16.3298 79.3092 14.5281 75.0027 C 13.4115 73.2868 15.6451 71.8415 16.894 70.4412 C 18.9046 68.065 20.5385 65.2611 22.6688 62.9523 C 26.1159 59.1905 29.9245 55.8237 34.1387 53.2329 Z "/>
    <path id="ID0.9421507022343576" fill="#01EE4B" stroke="none" stroke-linecap="round" d="M 28.5936 47.4048 C 32.6517 48.5121 36.1493 52.4447 37.6506 55.8241 C 39.559 59.9946 39.3391 65.3371 38.0671 69.5263 C 36.9953 73.0436 34.6865 76.7848 31.3225 78.1998 C 28.2777 79.5053 25.3281 76.4166 22.5206 75.0269 C 17.3799 73.6929 10.345 74.4422 7.5215 70.04 C 5.8078 67.4248 10.2309 65.1109 12.214 61.7406 C 14.1062 58.6165 16.0588 55.261 18.9586 53.067 C 21.8309 50.8846 25.0651 47.3897 28.5936 47.4048 Z " stroke-width="1.0000000066871202"/>
  </g>
</svg>