<svg xmlns="http://www.w3.org/2000/svg" xmlns:xlink="http://www.w3.org/1999/xlink" version="1.1" width="105.54020690917969" height="139.786865234375" viewBox="8.440474510192871 13.934642791748047 105.54020690917969 139.786865234375">
  <!-- Exported by Scratch - http://scratch.mit.edu/ -->
  <g id="ID0.9230008474551141">
    <path id="ID0.35488262167200446" fill="#01EE4B" stroke="#000000" stroke-width="0.999999979175586" stroke-linecap="round" d="M 12.976 149.9481 C 15.0851 153.1296 22.5363 150.5959 26.5709 149.8766 C 40.5515 147.3736 56.0573 147.7968 68.2263 140.4389 C 85.6394 129.8948 106.7335 119.1117 111.6549 99.9671 C 118.3026 74.1028 105.0312 46.8442 100.0307 20.5828 C 98.1727 14.1837 95.6403 11.8507 94.4679 18.1221 C 89.7781 43.2089 98.6904 73.3191 85.2544 94.2215 C 74.9083 110.2791 52.1557 112.6991 32.7791 117.4519 C 27.2959 118.8069 20.7389 110.7565 16.374 113.1884 C 13.6153 115.3802 18.2247 122.242 18.5319 126.6995 C 18.7457 129.832 20.0513 133.0023 19.5988 136.0959 C 18.8731 140.9572 11.6024 146.2463 12.976 149.9481 Z "/>
    <path id="ID0.9421507022343576" fill="#01EE4B" stroke="none" stroke-linecap="round" d="M 11.0167 152.9554 C 15.0174 154.4389 19.5095 149.3439 23.0362 146.9559 C 27.9147 144.4937 33.9334 142.7981 36.1629 138.4531 C 37.8059 135.2025 36.5771 130.7759 34.8792 127.5411 C 32.9352 123.8332 29.2815 120.4668 25.5226 118.1699 C 21.4042 115.6527 14.6943 110.2927 11.003 112.9967 C 6.9586 117.0596 10.1304 125.6162 10.0111 131.7388 C 9.9399 135.3939 10.8122 139.0497 11.2949 142.6509 C 11.7767 146.195 8.3316 151.9728 11.0167 152.9554 Z " stroke-width="0.999999979175586"/>
  </g>
</svg>