<svg xmlns="http://www.w3.org/2000/svg" xmlns:xlink="http://www.w3.org/1999/xlink" version="1.1" width="201.917724609375" height="80.22644805908203" viewBox="-0.41945338249206543 -0.5031855329871178 201.917724609375 80.22644805908203">
  <!-- Exported by Scratch - http://scratch.mit.edu/ -->
  <path id="ID0.02780614886432886" fill="#00CC44" stroke="#000000" stroke-width="1" stroke-linecap="round" d="M 109.5 43.5 C 137.168 40.077 165.37 43.771 193.5 45.5 C 200.534 45.932 203.517 47.041 198.5 49.5 C 178.431 59.337 157.624 67.401 136.5 74.5 C 126.762 77.164 116.278 80.6 106.35 78.65 C 100.159 77.401 95.973 69.956 91.5 64.5 C 90.722 63.305 91.622 61.24 91.35 59.65 C 91.273 58.922 89.006 60.82 90.5 59.5 C 96.468 54.17 101.314 44.95 109.5 43.5 Z "/>
  <g id="ID0.9230008474551141">
    <path id="ID0.35488262167200446" fill="#01EE4B" stroke="#000000" stroke-width="1" stroke-linecap="round" d="M 21 4 C 22.066 2.971 22.002 4.388 23 5 C 26.991 7.448 29.292 8.888 33.5 12.5 C 52.613 26.948 66.793 51.029 89.5 56.5 C 121.185 64.135 187.131 48.463 187.1 49.2 C 187.071 49.926 122.956 68.741 91.1 67.2 C 65.357 64.841 44.912 46.075 20.95 37.95 C 14.96 35.919 7.623 41.441 4 38 C 1.873 35.191 8.044 29.691 9.45 25.45 C 10.436 22.469 11.446 19.439 12.82 16.614 C 15.036 12.018 17.712 7.696 21 4 Z "/>
    <path id="ID0.9421507022343576" fill="#01EE4B" stroke="none" stroke-linecap="round" d="M 14 0 C 18.205 -0.11 22.688 2.647 25.1 5.45 C 28.13 8.893 29.46 14.072 29.45 18.45 C 29.438 22.127 27.942 25.989 25.493 28.7 C 22.688 31.808 18.24 33.938 14.1 35.45 C 9.737 37.046 3.891 40.719 2 37 C -1.907 32.258 1.148 24.845 2.45 18.45 C 3.168 14.868 4.263 11.137 6.407 8.2 C 8.528 5.282 10.617 1.003 14 0 Z " stroke-width="1"/>
  </g>
</svg>