<svg xmlns="http://www.w3.org/2000/svg" xmlns:xlink="http://www.w3.org/1999/xlink" version="1.1" width="152.49581909741323" height="50.28443909253043" viewBox="-0.3998601464696796 -0.5031855357952983 152.49581909741323 50.28443909253043">
  <!-- Exported by Scratch - http://scratch.mit.edu/ -->
  <path id="ID0.2644540970213711" fill="#FFFFFF" stroke="#000000" stroke-width="1" stroke-linecap="round" d="M 34 12.75 C 38.689 13.269 43.258 17.081 48 19 C 57.766 22.325 67.231 27.13 77.5 28.5 C 88.706 29.982 100.129 28.729 111 27 C 119.812 25.196 126.66 19.448 136 18 C 138.335 17.638 139.343 20.578 137 22 C 127.623 27.685 118.145 32.559 108 35 C 99.148 37.393 89.651 36.583 81 36.25 C 73.964 35.972 66.866 35.254 60 33.75 C 53.888 32.405 48.377 30.216 43 28 C 40.303 27.019 37.735 25.696 35.841 24.185 C 34.696 23.274 33.35 22.029 33.35 20.65 C 33.35 19.271 35.557 18.5 35.841 17.115 C 36.027 15.913 32.572 12.655 34 12.75 Z "/>
  <g id="ID0.9230008474551141">
    <path id="ID0.35488262167200446" fill="#01EE4B" stroke="#000000" stroke-width="0.9753630113350221" stroke-linecap="round" d="M 19.9759 4 C 20.9887 2.971 20.7844 4.136 21.876 5 C 26.3453 6.331 33.202 5.513 35.1773 10 C 37.8366 16.095 35.2143 25.009 32.9921 32 C 32.3527 33.904 30.0572 33.243 29.0017 34 C 25.6916 35.232 22.9582 37.348 19.9284 37.95 C 14.6677 38.995 7.2666 41.441 3.8244 38 C 1.8036 35.191 7.6665 29.691 9.0024 25.45 C 9.9391 22.469 10.8987 19.439 12.2042 16.614 C 14.3096 12.018 16.852 7.696 19.9759 4 Z "/>
    <path id="ID0.9421507022343576" fill="#01EE4B" stroke="none" stroke-linecap="round" d="M 13.3248 0 C 17.3199 -0.11 21.5792 2.647 23.8708 5.45 C 26.7496 8.893 28.0132 14.072 28.0037 18.45 C 27.9923 22.127 26.5709 25.989 24.2442 28.7 C 21.5792 31.808 17.3532 33.938 13.4198 35.45 C 9.2746 37.046 3.7204 40.719 1.9238 37 C -1.7882 32.258 1.1143 24.845 2.3513 18.45 C 3.0335 14.868 4.0738 11.137 6.1108 8.2 C 8.1259 5.282 10.1107 1.003 13.3248 0 Z " stroke-width="0.9753630113350221"/>
  </g>
  <path id="ID0.7628542897291481" fill="#FFFFFF" stroke="#000000" stroke-width="1.0000000056163612" d="M 54.4235 17.708 C 55.4512 18.1113 55.809 19.9371 55.5574 22.5605 C 55.3055 25.1848 54.4441 28.6066 53.0334 32.2017 C 51.6228 35.7969 49.9273 38.8914 48.3274 40.9868 C 46.7279 43.0813 45.2239 44.1766 44.1962 43.7733 C 43.1684 43.3701 42.8106 41.5442 43.0622 38.9209 C 43.3142 36.2966 44.1756 32.8748 45.5862 29.2796 C 46.9969 25.6845 48.6923 22.5899 50.2922 20.4946 C 51.8918 18.4001 53.3958 17.3048 54.4235 17.708 Z "/>
  <path id="ID0.7628542897291481" fill="#FFFFFF" stroke="#000000" stroke-width="0.9999999964635169" d="M 67.0324 19.4907 C 68.1359 19.5241 69.088 21.1226 69.735 23.6773 C 70.3821 26.2331 70.7241 29.745 70.6073 33.6053 C 70.4906 37.4655 69.9369 40.9503 69.1366 43.4623 C 68.3364 45.9733 67.2894 47.5113 66.1859 47.4779 C 65.0824 47.4446 64.1303 45.846 63.4832 43.2913 C 62.8362 40.7356 62.4942 37.2236 62.611 33.3634 C 62.7277 29.5032 63.2813 26.0183 64.0816 23.5064 C 64.8819 20.9954 65.9289 19.4574 67.0324 19.4907 Z "/>
  <path id="ID0.7628542897291481" fill="#FFFFFF" stroke="#000000" stroke-width="0.999999982926516" d="M 82.1998 21.6928 C 83.2868 21.5002 84.5452 22.8706 85.7002 25.2395 C 86.8554 27.6093 87.9072 30.9774 88.581 34.7802 C 89.2548 38.5829 89.4243 42.1074 89.1537 44.7299 C 88.8829 47.3513 88.172 49.0707 87.0849 49.2633 C 85.9979 49.456 84.7395 48.0855 83.5845 45.7167 C 82.4293 43.3469 81.3775 39.9787 80.7037 36.1759 C 80.0299 32.3732 79.8604 28.8487 80.131 26.2263 C 80.4018 23.6048 81.1127 21.8854 82.1998 21.6928 Z "/>
  <path id="ID0.7628542897291481" fill="#FFFFFF" stroke="#000000" stroke-width="0.9999999957089885" d="M 94.9232 21.5917 C 95.9329 21.1453 97.482 22.176 99.1688 24.2009 C 100.856 26.2266 102.6809 29.2466 104.2425 32.7788 C 105.8041 36.311 106.8096 39.6933 107.1724 42.3046 C 107.5349 44.9149 107.2547 46.7543 106.245 47.2007 C 105.2352 47.6471 103.6862 46.6164 101.9994 44.5916 C 100.3122 42.5658 98.4873 39.5458 96.9257 36.0136 C 95.3641 32.4814 94.3586 29.0991 93.9958 26.4879 C 93.6333 23.8775 93.9135 22.0381 94.9232 21.5917 Z "/>
  <path id="ID0.7628542897291481" fill="#FFFFFF" stroke="#000000" stroke-width="0.9360833124180681" d="M 109.1244 17.0643 C 110.0301 16.433 111.6288 16.9777 113.4798 18.3669 C 115.3312 19.7569 117.435 21.9914 119.3508 24.7397 C 121.2666 27.4881 122.6354 30.235 123.2989 32.453 C 123.9621 34.6703 123.92 36.3587 123.0144 36.99 C 122.1087 37.6213 120.51 37.0767 118.659 35.6874 C 116.8076 34.2974 114.7038 32.0629 112.788 29.3146 C 110.8722 26.5663 109.5034 23.8194 108.8399 21.6014 C 108.1768 19.3841 108.2188 17.6956 109.1244 17.0643 Z "/>
  <path id="ID0.23695724131539464" fill="#01EE4B" stroke="#000000" stroke-width="1" stroke-linecap="round" d="M 149.5 7.75 C 151.573 7.007 150.838 6.797 151.5 7.25 C 151.831 7.55 151.259 7.634 150.5 8.75 C 147.05 14.042 143.7 19.447 140.298 24.305 C 138.839 26.388 137.364 29.389 135.5 30.25 C 134.538 30.622 135.047 27.821 134.5 26.75 C 133.795 25.42 133.227 24.032 132.5 22.75 C 131.154 21.303 129.638 20.071 128.35 18.65 C 126.741 16.888 120.914 14.942 123 13.75 C 130.594 9.451 140.572 9.517 149.5 7.75 Z "/>
</svg>