<svg xmlns="http://www.w3.org/2000/svg" xmlns:xlink="http://www.w3.org/1999/xlink" version="1.1" width="122.64942932128906" height="40.52075958251953" viewBox="-0.41945338249206543 -0.5031855329871178 122.64942932128906 40.52075958251953">
  <!-- Exported by Scratch - http://scratch.mit.edu/ -->
  <g id="ID0.9230008474551141">
    <path id="ID0.35488262167200446" fill="#01EE4B" stroke="#000000" stroke-width="1" stroke-linecap="round" d="M 21 4 C 22.066 2.971 21.851 4.136 23 5 C 27.704 6.331 31.362 9.305 37 10 C 59.552 12.781 80.683 12.243 102.5 13 C 109.449 13.254 123.709 8.137 121.5 12 C 116.631 20.571 101.112 32.907 87.5 36 C 66.143 41.932 43.386 37.936 20.95 37.95 C 15.278 37.955 7.623 41.441 4 38 C 1.873 35.191 8.044 29.691 9.45 25.45 C 10.436 22.469 11.446 19.439 12.82 16.614 C 15.036 12.018 17.712 7.696 21 4 Z "/>
    <path id="ID0.9421507022343576" fill="#01EE4B" stroke="none" stroke-linecap="round" d="M 14 0 C 18.205 -0.11 22.688 2.647 25.1 5.45 C 28.13 8.893 29.46 14.072 29.45 18.45 C 29.438 22.127 27.942 25.989 25.493 28.7 C 22.688 31.808 18.24 33.938 14.1 35.45 C 9.737 37.046 3.891 40.719 2 37 C -1.907 32.258 1.148 24.845 2.45 18.45 C 3.168 14.868 4.263 11.137 6.407 8.2 C 8.528 5.282 10.617 1.003 14 0 Z " stroke-width="1"/>
  </g>
</svg>