<svg xmlns="http://www.w3.org/2000/svg" xmlns:xlink="http://www.w3.org/1999/xlink" version="1.1" width="212.62086486816406" height="68.3071517944336" viewBox="-0.41945338249206543 -0.5031855329871178 212.62086486816406 68.3071517944336">
  <!-- Exported by Scratch - http://scratch.mit.edu/ -->
  <path id="ID0.5855301776900887" fill="#FFFFFF" stroke="#000000" stroke-width="1" stroke-linecap="round" d="M 171.35 44.65 C 176.05 43.864 181.043 43.812 185.5 42.5 C 194.558 38.376 209.717 25.65 211.5 28.5 C 213.303 31.396 202.625 48.501 194.5 54.5 C 188.066 59.434 179.149 58.117 171.35 58.65 C 164.795 59.098 154.855 59.927 149.5 57.5 C 147.862 56.43 157.549 53.757 157.35 51.65 C 157.079 49.861 148.837 49.956 150.5 49.5 C 155.833 46.458 164.793 45.76 171.35 44.65 Z "/>
  <g id="ID0.9230008474551141">
    <path id="ID0.35488262167200446" fill="#01EE4B" stroke="#000000" stroke-width="1" stroke-linecap="round" d="M 21 4 C 22.066 2.971 21.851 4.136 23 5 C 27.704 6.331 29.842 7.046 37 10 C 65.631 21.816 92.605 37.216 123.1 45.2 C 143.757 50.606 193.515 45.705 187.1 49.2 C 180.603 52.696 122.956 68.741 91.1 67.2 C 65.357 64.841 44.912 46.075 20.95 37.95 C 14.96 35.919 7.623 41.441 4 38 C 1.873 35.191 8.044 29.691 9.45 25.45 C 10.436 22.469 11.446 19.439 12.82 16.614 C 15.036 12.018 17.712 7.696 21 4 Z "/>
    <path id="ID0.9421507022343576" fill="#01EE4B" stroke="none" stroke-linecap="round" d="M 14 0 C 18.205 -0.11 22.688 2.647 25.1 5.45 C 28.13 8.893 29.46 14.072 29.45 18.45 C 29.438 22.127 27.942 25.989 25.493 28.7 C 22.688 31.808 18.24 33.938 14.1 35.45 C 9.737 37.046 3.891 40.719 2 37 C -1.907 32.258 1.148 24.845 2.45 18.45 C 3.168 14.868 4.263 11.137 6.407 8.2 C 8.528 5.282 10.617 1.003 14 0 Z " stroke-width="1"/>
  </g>
</svg>