<svg xmlns="http://www.w3.org/2000/svg" xmlns:xlink="http://www.w3.org/1999/xlink" version="1.1" width="111.33285522460938" height="143.63563537597656" viewBox="21.15948486328125 15.042473793029785 111.33285522460938 143.63563537597656">
  <!-- Exported by Scratch - http://scratch.mit.edu/ -->
  <g id="ID0.9230008474551141">
    <path id="ID0.35488262167200446" fill="#01EE4B" stroke="#000000" stroke-width="0.999999979175586" stroke-linecap="round" d="M 28.9883 154.9052 C 31.0974 158.0867 38.5485 155.553 42.5831 154.8337 C 56.5637 152.3307 72.0696 152.7539 84.2386 145.3959 C 101.6516 134.8519 122.7458 124.0688 127.6672 104.9242 C 134.3148 79.0599 135.2858 44.0568 116.043 25.5399 C 99.3881 9.5582 68.4596 15.0309 49.0262 25.9885 C 31.8231 35.7109 19.419 58.0511 21.9996 76.9691 C 23.7226 92.9785 43.5409 105.4413 59.0032 106.9632 C 73.3586 108.3527 85.5278 93.0316 97.021 85.9575 C 99.8881 84.1961 90.5821 89.2899 87.0093 88.9622 C 75.0204 89.2932 58.2385 95.2677 51.0232 85.9693 C 44.4925 77.5426 49.831 59.0616 60.0056 53.9987 C 73.0362 45.9792 95.2965 43.3574 106.0094 54.9692 C 116.0346 65.8377 110.4316 87.1106 101.2666 99.1786 C 89.6772 114.2923 68.168 117.6562 48.7914 122.409 C 43.3082 123.764 36.7512 115.7135 32.3863 118.1455 C 29.6276 120.3373 34.237 127.1991 34.5442 131.6565 C 34.7579 134.7891 36.0636 137.9594 35.611 141.053 C 34.8854 145.9143 27.6147 151.2034 28.9883 154.9052 Z "/>
    <path id="ID0.9421507022343576" fill="#01EE4B" stroke="none" stroke-linecap="round" d="M 27.0426 157.912 C 31.0434 159.3955 35.5355 154.3005 39.0621 151.9125 C 43.9406 149.4503 49.9593 147.7548 52.1889 143.4097 C 53.8318 140.1592 52.603 135.7325 50.9051 132.4977 C 48.9611 128.7898 45.3075 125.4235 41.5486 123.1266 C 37.4302 120.6094 30.7203 115.2494 27.0289 117.9534 C 22.9845 122.0163 26.1563 130.5728 26.037 136.6955 C 25.9659 140.3506 26.8382 144.0064 27.3208 147.6075 C 27.8026 151.1516 24.3576 156.9295 27.0426 157.912 Z " stroke-width="0.999999979175586"/>
  </g>
</svg>