<svg xmlns="http://www.w3.org/2000/svg" xmlns:xlink="http://www.w3.org/1999/xlink" version="1.1" width="190.06912231445312" height="83.04778289794922" viewBox="0.30875062942504883 0.23651790618896484 190.06912231445312 83.04778289794922">
  <!-- Exported by Scratch - http://scratch.mit.edu/ -->
  <path id="ID0.2513795290142298" fill="#01EE4B" stroke="#000000" stroke-width="1" stroke-linecap="round" d="M 131.5 8.9 C 129.079 7.391 125.986 6.684 123.5 5.9 C 119.565 4.658 114.942 3.101 110.5 2.9 C 93.782 2.654 87.089 2.629 75.5 3.9 C 63.394 5.218 52.009 6.865 41.5 11 C 36.93 12.5 33.916 16.355 31.75 20.25 C 29.333 24.706 31.226 34.359 27.5 33.5 C 21.008 31.963 14.313 24 12.25 16.75 C 10.989 12.268 20.576 4.169 18.75 5.25 C 16.74 6.188 4.765 14.091 2.75 21.75 C 0.05 32.047 -0.751 44.273 6.5 53.5 C 17.033 66.744 34.094 74.822 50.5 79 C 62.452 82.032 74.537 75.996 86.5 75.5 C 94.707 74.495 103.094 73.433 111 74.5 C 116.502 75.249 121.305 78.188 127 79.5 C 133.329 80.859 139.834 83.687 147 82.5 C 161.161 80.129 175.646 75.918 188 68.5 C 192.143 66.051 188.162 59.784 188 55.5 C 187.92 52.368 187.329 48.632 185 46.5 C 176.398 38.606 165.848 31.903 156 24.5 C 148.019 19.373 140.07 14.266 131.5 8.9 Z "/>
  <path id="ID0.9362705438397825" fill="#01EE4B" stroke="none" stroke-linecap="round" d="M 37 20 C 42.594 22.223 47.987 25.62 51.508 30.362 C 54.524 34.42 57.15 38.982 57.15 44.5 C 57.15 50.018 54.993 55.018 51.508 58.638 C 48.023 62.259 43.211 64.5 37.9 64.5 C 32.589 64.5 26.589 63.004 24.292 58.638 C 16.004 42.878 9.137 25.785 7.25 8.25 C 7.003 3.685 15.121 -0.808 18.75 1.25 C 24.662 4.714 23.609 15.042 28.25 19.5 C 30.361 21.51 34.5 18.443 37 20 Z " stroke-width="1"/>
</svg>